<?xml version="1.0" encoding="utf-8"?>
<!-- Generator: Adobe Illustrator 17.0.0, SVG Export Plug-In . SVG Version: 6.00 Build 0)  -->
<!DOCTYPE svg PUBLIC "-//W3C//DTD SVG 1.1//EN" "http://www.w3.org/Graphics/SVG/1.1/DTD/svg11.dtd">
<svg version="1.1" id="Layer_1" xmlns="http://www.w3.org/2000/svg" xmlns:xlink="http://www.w3.org/1999/xlink" x="0px" y="0px"
	 width="419.833px" height="307.333px" viewBox="45.167 102.5 419.833 307.333"
	 enable-background="new 45.167 102.5 419.833 307.333" xml:space="preserve">
<path id="shopping-cart-3-icon" fill="#FFFFFF" d="M203.184,264.775h205.085l53.563-121.166H165.086L203.184,264.775z
	 M50.168,105.109h71.972l59.18,188.166h215.449l-17.625,40H152.072L92.894,145.109h-29.98L50.168,105.109L50.168,105.109z
	 M222.074,353.109c14.852,0,26.891,12.039,26.891,26.891s-12.038,26.891-26.89,26.891S195.184,394.852,195.184,380
	S207.222,353.109,222.074,353.109z M310.96,353.109c14.852,0,26.891,12.039,26.891,26.891s-12.039,26.891-26.891,26.891
	c-14.853,0-26.893-12.039-26.893-26.891S296.107,353.109,310.96,353.109z"/>
</svg>
