<?xml version="1.0" standalone="no"?>
<!DOCTYPE svg PUBLIC "-//W3C//DTD SVG 1.1//EN" "http://www.w3.org/Graphics/SVG/1.1/DTD/svg11.dtd" >
<svg xmlns="http://www.w3.org/2000/svg">
<metadata></metadata>
<defs>
<font id="cellos_script_personal_use_Rg" horiz-adv-x="1857" >
<font-face units-per-em="2048" ascent="1536" descent="-512" />
<missing-glyph horiz-adv-x="491" />
<glyph horiz-adv-x="0" />
<glyph unicode="&#xd;" horiz-adv-x="1024" />
<glyph unicode=" "  horiz-adv-x="491" />
<glyph unicode="&#x09;" horiz-adv-x="491" />
<glyph unicode="&#xa0;" horiz-adv-x="491" />
<glyph unicode="!" horiz-adv-x="616" d="M-63 96q0 41 27.5 69t68.5 28t68.5 -28t27.5 -69t-27.5 -68.5t-68.5 -27.5t-68.5 27.5t-27.5 68.5zM396.5 453.5q-13.5 17.5 19.5 62.5q41 61 113.5 145t155.5 178.5t170 189.5t159.5 178t121 144.5t56.5 90.5q4 16 44 26.5t85 9.5t80 -15.5t29 -47.5q-4 -25 -63.5 -87 t-152 -147t-204 -183.5t-218 -194.5t-198.5 -181t-143 -143q-41 -43 -54.5 -25.5z" />
<glyph unicode="&#x22;" horiz-adv-x="395" d="M266 883q-12 6 0.5 17t36 29.5t52 45t53.5 63.5q23 33 37 72t25 71.5t22.5 55.5t27.5 25q20 2 45 -3.5t45.5 -17.5t30.5 -28.5t2 -32.5q-8 -14 -35.5 -44t-66.5 -66t-82 -71.5t-82 -63.5t-70 -43t-41 -9zM471 883q-12 6 0 17t35.5 29.5t52.5 45t53 63.5q23 33 37.5 72 t25.5 71.5t22.5 55.5t27.5 25q20 2 45 -3.5t45.5 -17.5t30.5 -28.5t2 -32.5q-8 -14 -36 -44t-66.5 -66t-81.5 -71.5t-82 -63.5t-70 -43t-41 -9z" />
<glyph unicode="#" horiz-adv-x="980" d="M16.5 330q-2.5 8 4 18t19.5 18.5t30 8.5h131l194 231h-143q-16 0 -18.5 8.5t4 18.5t19.5 18t30 8h153q51 59 87 102.5t46 53.5q12 14 27.5 19.5t28 3.5t15.5 -10.5t-9 -22.5l-123 -146h219q51 59 87 102.5t46 53.5q12 14 27.5 19.5t28 3.5t15.5 -10.5t-9 -22.5l-123 -146 h117q18 0 22 -8t-2 -18t-20.5 -18.5t-32.5 -8.5h-127l-197 -231h139q18 0 22.5 -8.5t-1.5 -18.5t-20.5 -18t-32.5 -8h-152l-119 -140q-10 -12 -25.5 -16t-27.5 -3t-16 8t6 19q6 6 36.5 42t73.5 90h-219l-118 -140q-10 -12 -25.5 -16t-28 -3t-16.5 8t6 19q6 6 37 42t74 90 h-121q-16 0 -18.5 8zM272 375h220l194 231h-217z" />
<glyph unicode="$" horiz-adv-x="1054" d="M-69.5 -83q-6.5 7 3.5 20q4 4 38 40.5t91 98.5q-47 47 -58 115.5t4.5 143.5t53 149.5t91 136t118 101.5t134.5 44q45 2 78.5 -19.5t51 -50t15.5 -53.5t-27 -27q-84 -8 -156.5 -44.5t-130 -89t-95.5 -115t-51 -121t0 -107.5t61 -73q49 -27 108 -26t119.5 31.5t117 88 t97.5 143.5t63.5 197.5t14.5 251.5q-8 147 42 277t146 228.5t231.5 157t297.5 64.5l129 141q10 14 25.5 19.5t27.5 3t16 -10.5t-6 -22q-4 -4 -36 -39t-85 -90l66 -6q51 53 80.5 86.5t33.5 37.5q10 14 25.5 19.5t28 3.5t16.5 -10t-6 -23q-4 -4 -34 -37.5t-83 -91.5 q47 -18 44 -52t-36.5 -79t-86 -98t-105.5 -108.5t-96.5 -111t-55.5 -102.5t-48 -54t-70.5 7.5t-60 43t-19.5 50.5q14 53 74.5 108.5t136 107t150.5 97.5t119 80.5t41 58.5t-83 30q-131 12 -253 -29t-213 -121t-138 -193.5t-29 -248.5q16 -119 0 -232.5t-57 -215 t-104.5 -183.5t-141.5 -136t-166 -75.5t-180 -1.5q-39 -41 -61.5 -64.5t-26.5 -29.5q-8 -12 -22.5 -16.5t-27 -3.5t-18.5 8.5t4 19.5l97 102q-6 4 -12.5 5.5t-10.5 5.5q-16 6 -27 14q-47 -49 -74.5 -79t-31.5 -36q-8 -12 -22.5 -16t-26.5 -3t-18.5 8z" />
<glyph unicode="%" horiz-adv-x="1024" d="M-146.5 0q-5.5 6 5.5 18l1364 1420q12 14 28.5 19t28.5 3t15 -10t-9 -20q-6 -6 -66.5 -69t-154.5 -161t-213 -222t-243 -254t-242.5 -254t-215 -223.5t-158 -164t-69.5 -72.5q-10 -10 -25.5 -15t-27.5 -3t-17.5 8zM131 965q-16 59 9.5 130.5t84 143.5t136 125t168 76 t178.5 -6q86 -27 122.5 -70t35.5 -94t-33.5 -105.5t-86 -105.5t-122 -93t-140 -69t-141.5 -34t-125 16q-70 27 -86 86zM209 984q-10 -48 31 -62q47 -16 106.5 4t118.5 63t114.5 100.5t92.5 114t49 103.5t-10 71q-35 35 -94.5 18.5t-125 -62.5t-128 -111.5t-103.5 -128 t-51 -110.5zM305 106.5q-16 59.5 9.5 131t84 143.5t136 125t168 75.5t178.5 -6.5q86 -27 122.5 -69.5t35.5 -94t-33.5 -105.5t-86 -105t-122 -93t-140 -69t-141.5 -34t-125 15q-70 27 -86 86.5zM383 125.5q-10 -48.5 31 -62.5q47 -16 106.5 4.5t118.5 63.5t114.5 100.5 t92.5 113.5t49 103.5t-10 71.5q-35 35 -94.5 18.5t-125 -62.5t-128 -111.5t-103.5 -128t-51 -111z" />
<glyph unicode="&#x26;" horiz-adv-x="1007" d="M-64.5 152q-7.5 86 23.5 182t97.5 181t168 145.5t236.5 76.5q-31 158 31.5 261.5t177 161t260 73.5t280.5 -2q80 -10 105.5 -36t14.5 -61.5t-49 -81.5t-83 -96.5t-89 -103.5t-65 -104q-16 -43 -51 -45.5t-67.5 16t-56 45.5t-19.5 41q20 53 71.5 100t111 87t113.5 73 t82.5 56.5t20.5 40t-75 24.5q-102 12 -201 -2.5t-172.5 -63.5t-110.5 -137t-14 -221q6 -29 -25 -29q-102 -6 -192 -59t-163 -130t-124 -168t-74.5 -176t-16.5 -151.5t52 -93.5q49 -31 116.5 -9.5t134.5 74t124 125t86 145t19.5 135t-74.5 93.5q-4 0 -9 4h-20 q-16 0 -21.5 7.5t-2.5 14.5t13.5 14t26.5 7h482q35 0 27.5 -21.5t-44.5 -21.5h-329q86 -43 106 -111.5t-6.5 -144.5t-93 -149.5t-155.5 -126.5t-192.5 -77t-203.5 1q-84 20 -129 86t-52.5 152z" />
<glyph unicode="'" horiz-adv-x="151" d="M246 883q-12 6 0 17t35.5 29.5t52 45t53.5 63.5q23 33 37 72t25.5 71.5t22.5 55.5t28 25q20 2 44.5 -3.5t45 -17.5t31 -28.5t2.5 -32.5q-8 -14 -36 -44t-67 -66t-82 -71.5t-82 -63.5t-69.5 -43t-40.5 -9z" />
<glyph unicode="(" horiz-adv-x="792" d="M88 -123q0 246 62.5 436.5t160 334t217 245.5t235.5 172t213 111.5t150 66.5q66 29 76 14.5t-53 -49.5q-51 -29 -145.5 -101.5t-206 -176t-227 -230.5t-211 -265t-156 -279.5t-60.5 -272.5q0 -35 -8 -48t-19.5 -12t-19.5 16.5t-8 37.5z" />
<glyph unicode=")" horiz-adv-x="792" d="M-422 -182.5q-10 14.5 53 49.5q51 29 145.5 101.5t206 176t227.5 230.5t211 265t155.5 279.5t60.5 272.5q0 33 8 47t19.5 12t19.5 -16t8 -37q0 -246 -62.5 -436.5t-159.5 -333.5t-217 -245.5t-235.5 -172t-213 -111.5t-150.5 -67q-66 -29 -76 -14.5z" />
<glyph unicode="*" horiz-adv-x="665" d="M113 357.5q0 11.5 18 27.5l127 102h-117q-16 0 -18 8.5t4 18.5t19.5 18.5t29.5 8.5h125l-14 118q0 12 9 19.5t21.5 7.5t22.5 -6t12 -18q2 -16 4 -40t6 -53q39 33 72 60t53 43q14 12 33 15t30 -1t13 -14t-12 -23l-135 -108h108q18 0 22.5 -8.5t-1.5 -18.5t-20.5 -18.5 t-32.5 -8.5h-119l14 -112q0 -16 -9 -24.5t-20.5 -9.5t-22.5 6t-13 24l-11 86l-118 -97q-20 -16 -40 -20t-30 1t-10 16.5z" />
<glyph unicode="+" horiz-adv-x="665" d="M123 495.5q-2 8.5 4 18.5t19.5 18.5t29.5 8.5h146l84 121q8 12 22 18t26.5 6t17.5 -7t-3 -20l-84 -118h139q18 0 22.5 -8.5t-1.5 -18.5t-20.5 -18.5t-32.5 -8.5h-144q-27 -39 -47 -71.5t-31 -44.5q-12 -16 -26.5 -23.5t-26.5 -6.5t-16 9t6 25l78 112h-144q-16 0 -18 8.5z " />
<glyph unicode="," horiz-adv-x="387" d="M-229 -165q12 11 35.5 29.5t52 45.5t53.5 63q23 33 37 72t25.5 72t22.5 55.5t28 24.5q20 2 44.5 -3.5t45 -17.5t30.5 -28.5t2 -32.5q-8 -14 -35.5 -44t-66.5 -66t-82 -71.5t-82 -63.5t-69.5 -43t-40.5 -9q-12 6 0 17z" />
<glyph unicode="-" horiz-adv-x="653" d="M123 495.5q-2 8.5 4 18.5t19.5 18.5t29.5 8.5h348q18 0 22.5 -8.5t-1.5 -18.5t-20.5 -18.5t-32.5 -8.5h-351q-16 0 -18 8.5z" />
<glyph unicode="." horiz-adv-x="387" d="M-63 96q0 41 27.5 69t68.5 28t68.5 -28t27.5 -69t-27.5 -68.5t-68.5 -27.5t-68.5 27.5t-27.5 68.5z" />
<glyph unicode="/" horiz-adv-x="530" d="M-354 -154.5q-4 7.5 6 19.5l1339 1521q12 14 27.5 19.5t28 3.5t15.5 -10t-9 -23q-6 -6 -64.5 -73.5t-151 -173t-209 -237.5t-238.5 -270.5t-239.5 -272.5t-212 -239.5t-155 -175t-68.5 -77.5q-10 -12 -25.5 -16.5t-27.5 -3.5t-16 8.5z" />
<glyph unicode="0" d="M70 -193q0 17 8 23q10 10 20 10l27 4q10 0 10 6q0 16 -16 17q-10 0 -13 -6q-8 -2 -8 -11h-24q0 14 6 21q2 8 12 12q4 2 14 2q4 2 13 2q14 0 26 -4q8 -6 13 -12q2 -4 2 -14v-56q0 -10 2 -12q0 -2 4 -6v-4h-29v2v4q-2 2 -2 6l-8 -8q-4 -2 -6 -2t-4 -2q-4 -2 -13 -2 q-12 0 -18 2q-6 4 -10 10q-6 6 -6 18zM96 -190q0 -4 4 -9q4 -2 6.5 -4t4.5 -2q4 0 6 4h4q8 4 10 6q4 8 4 13v12q-2 0 -10 -4l-12 -2q-4 0 -13 -4q-4 -4 -4 -10zM125 565v494l268 59l-10 37l41 12l-8 39l41 8l-6 46l41 2v41h36l4 36l39 -6l9 41l43 -6l10 39l39 -10l16 37 l39 -17l23 39l34 -18l23 35l37 -25l24 33l35 -27l27 29l26 -25l27 23l27 -29l34 23l23 -37l39 20l18 -35l37 17l17 -41l43 12l12 -39l39 10l8 -43l43 4l2 -26l404 88v-496l-185 -41l4 -2l-24 -26l24 -29l-32 -27l22 -34l-37 -23l23 -37l-35 -20l14 -37l-39 -17l13 -43 l-37 -12l6 -39l-41 -8l2 -43l-39 -4v-39h-35l-6 -37l-39 2l-8 -37l-43 6l-10 -40l-39 12l-14 -39l-44 16l-18 -39l-37 21l-22 -35l-37 23l-25 -33l-30 26l-31 -26l-27 24l-26 -24l-25 31l-35 -23l-24 37l-37 -21l-19 35l-39 -16l-18 41l-39 -13l-12 37l-41 -8l-8 43l-43 -4 l-5 41h-40v35l-35 4l4 41l-41 6l8 43l-41 12l12 37l-28 12zM186 -115h25v-18h2q4 8 6 10t3 4t5 4q2 2 15 2h2h4v-28h-8q-27 0 -27 -25v-55h-27v106zM236 76v16q0 4 2 7t2 7q2 12 14 25q4 6 10 10t12 9q14 6 33 6h6q4 0 8.5 -1t8.5 -1q8 0 14 -7q14 -8 21 -18q4 -4 8 -12 q0 -2 1 -3t1 -3v-5h-33v3q0 2 -4 6q-2 4 -4 5t-6 5q-6 4 -19 4h-8h-6l-14 -12q-10 -6 -11 -15q-4 -8 -4 -28q0 -8 1 -14.5t3 -14.5q2 -10 13 -14q6 -4 10 -6t10 -2h4q12 0 19 4q4 0 7 3l5 5q4 6 6 10t2 10h-37v27h66v-84h-21l-4 20q-6 -8 -14 -14q-4 -4 -9 -5t-10 -3 q-4 0 -9 -1t-9 -1q-12 0 -25 6q-14 6 -20 16q-8 6 -16 27q-4 10 -4 33zM236 702h10l8 5l10 10l8 10l11 10q4 8 8 13l63 86l19 30l20 31q6 8 11.5 15.5t9.5 15.5q4 10 8 17t8 16q2 4 0 6t-4 2q-8 0 -10 -2l-8 -4l-17 -21l-16 -20q-6 -6 -15 -19l-16 -20l-55 -80l-27 -41 q-6 -10 -11 -21.5t-11 -21.5l-4 -6v-4v-4v-3zM262 -78h29v-24h-29v24zM262 -115h29v-106h-29v106zM276 889q2 -4 4.5 -6t6.5 -6l18 -7q14 0 23 2q4 0 4 2q2 2 2 5q0 2 -2 2h-4q-4 0 -4 -2q-14 -2 -29 2q-8 4 -10 8q0 4 -1 5t-1 5q0 6 2 12l6 15l16 18q4 4 10.5 8t12.5 9 q6 4 11 7t13 7l25 12q8 0 14 2t15 6l28 4q16 4 27 5q6 0 22 -5q10 0 15 -6l10 -12v-16q0 -12 -2 -21l-10 -18q-4 -6 -7.5 -11.5t-7.5 -9.5q-4 -6 -9 -10t-11 -10q-4 -6 -21 -19l-22 -14l-25 -10l-14 -6q-2 0 -5 -1t-7 -1h-4q-4 0 -7 -3q-2 0 -2 -2q-4 0 -4 -4q0 -2 2 -2h4 q4 0 7 2h4l26 9l27 12l27 10l26 16l23 17l20 18l17 21q4 4 7 9t5 11q4 12 4 19q2 10 0 18q-2 4 -3 7t-3 7q-6 6 -15 11q-6 2 -10 3t-10 1q-8 2 -23 2q-8 0 -24 -4q-14 0 -27.5 -4t-29.5 -9q-29 -8 -54 -22q-6 -4 -13 -7t-13 -7t-12.5 -8.5t-10.5 -10.5l-9 -9l-9 -9l-9 -21 q-4 -10 0 -16zM317 -115h25v-16q12 18 33 18q8 0 20 -4q6 -4 13 -12q4 -8 4 -21v-71h-29v63q0 12 -2 15q-4 8 -16 8q-8 0 -17 -8q-4 -12 -4 -17v-61h-27v106zM395 57q0 20 6 29q4 14 17 20q8 6 15 7.5t18 1.5q23 0 28 -9q12 -6 19 -22q4 -10 4 -31v-8h-78q0 -6 8 -18 q6 -6 19 -7q4 0 7 1.5t5 1.5q8 8 8 10h31q-6 -12 -10 -21q-4 -4 -8.5 -7t-8.5 -5l-12 -3t-12 -1q-55 0 -56 61zM428 68h45q-4 12 -8 16q-8 8 -14 8q-23 0 -23 -24zM430 -166q0 6 2 12.5t4 12.5q6 14 15 20q8 8 24 8q6 0 19 -4l7 -7t5 -7l2 16h24v-100q0 -10 -4 -27 q-6 -10 -16 -14q-12 -6 -33 -6q-4 0 -9 1t-9 1q-6 2 -19 10q-4 4 -4 8q-2 4 -2 11h27q2 -4 6 -9q2 -2 12 -2q12 0 15 2q8 6 8 9q0 2 1 3t1 3v6v12q-12 -14 -29 -14q-6 0 -11 1t-11 3q-10 8 -17 20q-4 6 -6 13.5t-2 17.5zM461 -168q0 -8 2 -14q0 -4 6 -11q8 -4 12 -4 q25 0 25 29q0 14 -8 23q-4 4 -8.5 7t-8.5 3q-8 0 -14 -10q-6 -6 -6 -23zM498 717q20 0 20 -15v-49q0 -8 10 -22l17 -4q4 -2 18 -2q12 0 25 4q8 4 10 6q8 6 8 22v50l10 8l2 2h9v4h-47v-4h10q2 0 4 -2q12 -4 12 -23v-33q0 -12 -10 -22l-12 -8h-15q-12 0 -18 2q-2 0 -10 8 q-4 4 -4 14v49q0 10 4 11q4 4 14 4h6v4h-63v-4zM510 92v21h16v28h31v-28h16v-21h-16v-61q0 -8 2 -8q0 -2 2 -3h8l2 3h2v-25h-16q-14 0 -20 4q-6 0 -9 8q-2 2 -2 13v69h-16zM510 821q2 -8 10 -12q10 -10 23 -6q14 0 26 6q10 2 17.5 6t15.5 8t15.5 9.5t15.5 13.5l24 20l15 15 q0 2 4 6q0 2 2 4l4 6l16 16l15 21q6 4 10 10t8 10l6 -2l4 -6q0 -2 2 -4v-2q0 -2 -2 -4t-4 -6l-16 -17l-14 -20l-13 -19l-4 -18q-2 -2 -2 -8v-6l4 -8h8q10 0 17 2l16 10q4 4 10.5 8t10.5 10q6 4 10 8.5t8 8.5q2 4 4 6t4 6l8 10l5 4l4 6q4 4 4 5l12 16l21 31q0 -4 1 -7.5 t1 -7.5q4 -12 4 -14l4 -8q-16 -4 -25 -13l-20 -14q-4 -4 -7.5 -9t-5.5 -9q-2 -6 -2 -17q0 -6 11 -10h18q12 0 25 8q16 8 22 17q6 4 9 8t8 8l8 18q6 8 6 19v16q0 6 -4 15l-6 16l-7 6q0 4 -4 8q0 2 -2 4v7v4h-8l-4 -4q-4 -2 -6 -4.5t-6 -4.5l-4 -12l-2 -2l-4 -6l-33 -45l-4 -6 l-6 -11h-3v-2q-2 0 -4 -2l-4 -8l-6 -8l-14 -18l-23 -21q-4 -4 -12 -6q-4 -4 -12 -4v2l8 10l6 10l8 11q4 4 6 8l9 14l10 14l4 15q2 6 2 14q-2 2 -2 8l-2 4q0 4 -2 7v22l6 10q4 6 -4 13q-4 6 -17 0q-10 -2 -16 -9q-6 -2 -10 -12q-4 -4 -4 -10q0 -8 2 -12l4 -2l4 -5l-6 -6 l-6 -6l-23 -31l-20 -22q-4 0 -4 -4v-2l-2 -2q0 -2 -2 -2l-11 -15q-8 -6 -14 -12t-14 -10q-12 -12 -33 -23q-12 -4 -21 -8q-12 -4 -18 -2q-6 0 -6 4q-2 2 -2 6q0 2 4 11l2 8l10 16q4 -2 12 -2h19q10 2 26 12q6 2 11.5 6.5t13.5 8.5l14 16q4 4 7.5 8t3.5 8l8 13q0 12 -4 14 q-4 8 -8 10h-19h-9t-9 -4q-4 -2 -10.5 -4t-10.5 -4q-27 -14 -45 -29q-18 -16 -29 -34q-4 -4 -6 -9.5t-6 -11.5q-6 -8 -8 -18v-17zM545 -115h14v27h29v-27h16v-20h-16v-55q0 -6 2 -9q0 -2 2 -2h6l4 2h2v-22h-6h-6h-4q-12 0 -17 2q-10 4 -10 8q-2 2 -2 12v64h-14v20zM567 870 l15 23l18 20l6 9q4 4 6 5t4 3l11 10l12 4q8 2 14 0v-10l-6 -8q-6 -6 -6 -11q-4 -4 -5 -6t-5 -4q0 -2 -8 -10q-2 -2 -3.5 -4t-5.5 -4q-4 -4 -6 -5t-4 -3l-12 -9q-6 -2 -12 -2q-10 0 -13 2zM610 -115h33l21 -78l20 78h31l-35 -102l-2 -2l-8 -23q-4 -10 -6 -12q-6 -6 -11 -6 q-4 0 -7 -1t-7 -1h-6h-8v22h8h8q2 0 6 4v5q2 2 2 6l-37 102zM639 694q0 -2 4 -10q0 -6 6 -6l13 -6q2 -2 20 -6l8 -2q8 -4 12 -5q4 0 9 -4q2 0 2 -2q6 -4 6 -10l-4 -8q-2 -4 -8 -6h-11q-10 0 -16 2l-16 6l-11 10q-10 10 -10 21h-2v-43h2q0 6 4 6q4 4 8 4q2 0 2 -1t5 -1 q2 0 3 -1t3 -1l14 -4q4 -2 14 -2q4 0 17 4q2 0 12 6q2 2 2 4t4 4v21l-6 6q-2 4 -12 8l-17 6h-10l-2 2q-4 2 -8 2t-6 2q-6 0 -8 2q-2 0 -7 4q-2 0 -2 4v2v9l4 4l9 4q2 0 4 1t6 1q6 0 14 -4q8 0 12 -4q8 -4 11 -8q4 -2 5 -7.5t5 -9.5h2v31h-2q-2 -6 -8 -6h-8q-16 10 -31 10 q-8 0 -21 -4l-12 -8q-2 -4 -3 -7.5t-1 -9.5zM641 92v21h14v8q0 33 35 33h15v-25h-9h-6q-4 0 -4 -4v-12h19v-21h-19v-94h-31v94h-14zM723 37v76h29v-70q0 -20 20 -20h10l11 10q0 2 2 5t2 7v68h26v-115h-26v16q-6 -8 -15 -12q-12 -6 -20 -6q-20 0 -29 12q-10 8 -10 29z M731 -115h25v-16h4q2 0 4 2l8 8q4 4 8 6q2 2 8 2q10 0 17 -4q8 -4 12 -8q8 -8 10 -20q6 -10 7 -23q0 -4 -1.5 -6t-1.5 -6t-2 -6t-4 -7q-4 -16 -12 -22q-10 -8 -25 -8q-10 0 -14 2t-8 6q-2 2 -6 2l-2 4v-51h-27v100v45zM741 627h103v39q-4 -4 -4 -7.5t-2 -5.5l-11 -14 q-6 -6 -8 -6l-10 -2q-4 -2 -12 -2h-15v41h2q8 0 19 -6l4 -7q0 -2 1 -3t1 -3v-8h2v59h-2v-8l-4 -10q-10 -10 -19 -10h-4v43h17q16 0 22 -2l8 -6l5 -11l6 -14h4v37h-103v-4h4q8 0 11 -4q6 0 6 -11v-57q0 -16 -17 -16h-4v-2zM756 -170q0 -14 8 -20q6 -8 16 -9q12 0 19 9 q4 12 4 22t-4 23q-4 4 -8.5 7t-10.5 3q-25 0 -24 -35zM793 868v9l4 10l6 8q8 10 18 18l23 11q0 -4 1 -6.5t1 -4.5q-2 -4 -2 -8v-12l-4 -8q-2 -4 -4 -5t-5 -6l-8 -6q-2 0 -3 -1t-5 -1q-2 -2 -8 -2q-4 -4 -8 0q-2 0 -6 4zM844 -166q0 17 4 25q6 14 16 20q10 8 27 8q23 0 31 -8 q10 -6 16 -22q4 -16 4 -27v-6h-72q0 -12 7 -19q6 -6 16 -6q6 0 14 4q4 4 6 9h27q-4 -16 -8 -21q-4 -4 -8 -6t-9 -4q-12 -4 -22 -4q-49 0 -49 57zM852 -2v156h29v-156h-29zM870 -158h43q0 10 -6 17q-4 2 -7 4t-9 2q-16 0 -21 -23zM903 -2v156h29v-156h-29zM905 674 q0 -14 4 -21q4 -4 6.5 -7t6.5 -7q6 -6 18 -10q6 -2 11 -3t12 -1q16 0 26 6q8 4 13.5 9t9.5 9q6 8 6 25q0 10 -4 16q-4 12 -10 17q-4 6 -19 10q-12 6 -22 6q-20 0 -29 -8q-8 -2 -12 -7.5t-9 -9.5q-8 -10 -8 -24zM915 901q0 -8 5 -8q4 -4 6 -5t4 -3h10h12q8 2 14.5 4t12.5 4 l27 14l22 21l19 16l14 21l10 16l6 18q4 10 0 15q0 6 -6 10q0 4 -10 8q-2 0 -6 1t-8 1q-6 0 -19 -4q-4 0 -6 -1l-6 -3l-12 -4l-25 -16q-6 -4 -11 -9.5t-12 -9.5l-16 -18l-12 -19q-10 -16 -13 -26v-23zM928 674q0 4 1 8t1 8l6 12q2 2 3 5.5t3 5.5t4 2t6 2q4 4 13 4q0 -2 2 -2 h4l6 -4l10 -8q0 -4 2 -7.5t4 -9.5q0 -2 1 -7t1 -9q0 -12 -4 -25q-4 -4 -6 -9t-6 -9q-4 -2 -16 -2q-10 0 -13 2q-8 0 -12 10l-6 12q-4 12 -4 21zM940 895v8v4q4 14 10 21q4 6 7.5 11t7.5 11l10 13l8 10l16 20l9.5 9.5l9.5 9.5l8 8l10 4q4 2 11 2l4 -2q2 -2 2 -8q0 -2 -4 -10 l-5 -9l-6 -10q-4 -8 -6 -10l-8 -12l-12 -19l-17 -18l-20 -21q0 -2 -10 -6q-2 -4 -13 -8h-8q-4 0 -4 2zM948 -115h17v9q0 29 30 28h13v-22h-7h-6l-2 -2l-2 -9v-4h19v-20h-19v-86h-26v86h-17v20zM1010 92v21h14v8q0 33 35 33h12v-25h-6h-6q-2 0 -4 -4v-12h20v-21h-20v-94h-31 v94h-14zM1018 -193q0 17 10 23q10 10 21 10l24 4q8 0 8 6q0 16 -14 17q-10 0 -12 -6q-6 -4 -6 -11h-27q0 14 6 21q6 10 14 12q4 2 11 2q4 2 14 2t16.5 -1t12.5 -3q8 -6 12 -12q2 -4 2 -14v-56q0 -10 2 -12q0 -2 4 -6v-4h-31v2q0 2 -1 2t-1 2v6q-4 -2 -5 -4t-3 -4 q-4 -2 -6 -2t-4 -2q-4 -2 -14 -2q-8 0 -15 2q-4 2 -7 4t-7 6q-4 8 -4 18zM1032 627h49v2q-6 0 -10 2h-8l-4 10q-2 2 -2 12v56l80 -82h4v65q0 8 1 12.5t3 8.5q4 4 16 4v4h-47v-4h8q0 -2 4 -2q6 -4 7 -8q4 -4 4 -15v-39l-66 68h-37v-4q8 0 10 -2q2 0 3.5 -1t3.5 -1q2 -4 2 -11 v-53q0 -6 -2 -10t-7 -8q-4 0 -7 -1t-5 -1v-2zM1047 -190q0 -4 4 -9q6 -6 8 -6q4 0 6 4h4q4 2 5 3t5 3q2 4 2 13v12l-8 -4l-14 -2q-4 0 -8 -4t-4 -10zM1051 905q2 0 3 -1t3 -1q4 0 8 2l8 4q0 2 4 6q2 0 2 1.5t2 1.5l4 6q0 4 5 4l16 22l20 21l17 20l22 21l21 20l8 8q4 2 10 9 l10 8l13 4q2 0 2 -2h-2l-4 -4q-2 -6 -9 -8l-4 -7l-12 -14q-4 -4 -6 -7t-6 -7q-10 -12 -15 -23l-14 -20q-2 -4 -3 -9.5t-3 -9.5q-4 -10 0 -16q2 -6 8 -6h19q4 2 9 5t13 7q12 8 19 14l20 21l2 2q-2 -2 -2 -6q0 -6 4 -15q2 -4 10 -8q6 -2 21 2q12 2 24 13l21 14l7 7l7 7l13 13 v-5q0 -2 -1.5 -3t-1.5 -3v-6q-4 -6 0 -10q0 -2 1.5 -3t1.5 -3q0 -6 6 -6h6h10l6 4l8 6l13 6l32 27l17 16l-4 -12q-4 -6 -4 -19v-6q2 0 4 -2q0 -2 6 -2q4 0 8 4q8 0 12 6l11 6l12 13q2 0 10 8l9 9t10 9l18 21v4q0 2 -2 2q-4 0 -8 -4l-2 -4l-13 -15l-10 -12q-10 -6 -12 -12 l-14 -12l-9 -7l-8 -2l-2 -2q-2 0 -4 2h2l8 15q4 8 8 12l7 12q4 2 8 11l63 92q10 10 13 16l16 16l37 43q10 10 17 20.5t16 20.5l10 19v8q-2 2 -8 2q-2 0 -11 -4q-4 0 -6 -2t-6 -4q-4 0 -10 -6l-8 -6q-6 -4 -11.5 -9.5t-11.5 -9.5l-16 -18q-6 -6 -10.5 -11.5t-8.5 -11.5 q-2 -4 -6 -9t-8 -11q-16 -23 -27 -41l-26 -45l-19 -33l-8 -16h-2l-14 -15q-4 -6 -8.5 -10t-10.5 -10l-18 -17l-10 -8l-7 -4l-4 -2l-4 -4h-6h-4l6 10l6 10q0 2 2 4q4 8 8.5 14.5t10.5 12.5q4 6 8 13.5t8 15.5l15 20l8 13q2 4 3 5t3 5l2 2l2 2q0 2 1 2t1 2q6 4 4 8q0 2 -6 2 l-10 -4l-10 -6l-19 -12q-8 -8 -14 -13q0 6 -2 11q0 2 -6 6q-12 2 -21 0q-16 -4 -22 -8q-8 -4 -13.5 -6.5t-11.5 -6.5q-8 -6 -18 -16q-27 -18 -37 -39q-14 -16 -21 -37h-4q-4 -6 -16 -18q-6 -4 -11.5 -8.5t-11.5 -8.5q-2 -4 -12 -8q-4 -4 -10 -4h-2q-2 2 0 4l6 8l6 11l12 14 l21 27q4 6 9 13t9 15l8 17q4 10 2 16q0 6 -2 6q0 4 -6 4t-8 -2l-12 -4l-13 -8q-4 -2 -10 -8q-4 -4 -6 -5t-4 -4q-8 -8 -12 -8l-21 -22q-4 -4 -9 -9.5t-9 -9.5l-11 -12l-10 -10l2 4l25 35l26 37q0 2 1.5 2t1.5 2q2 2 2 4q2 2 2 6l-7 6q-2 0 -3 1t-3 1t-4 -1t-6 -1l-10 -6 l-4 -4q-4 -2 -4 -4t-2 -4l-5 -7l-77 -133q-2 -2 -2 -4v-2zM1083 55q0 6 1 11.5t3 11.5q2 10 11 18q10 10 20 15q6 4 25 4q16 0 24 -4q4 -4 8.5 -5.5t8.5 -5.5t6 -9t6 -11q4 -12 4 -25q0 -16 -8 -30q-2 -8 -18 -21q-10 -8 -31 -8q-20 0 -35 8q-6 4 -10 10t-8 13q-6 12 -7 28z M1114 55q0 -8 2 -13t4 -9q4 -10 23 -10q16 0 20 10q6 6 6 22q0 14 -6 25q-6 10 -20 10q-16 0 -23 -10q-2 -4 -4 -10.5t-2 -14.5zM1128 -170q1 16 11 41q12 16 39 16q10 0 22 -4q8 -2 17 -14q4 -6 7 -11t3 -12h-31q0 4 -4 13q-6 6 -12 6q-10 0 -17 -10q-8 -6 -8 -21 q0 -6 1 -10t1 -8q4 -4 5 -6.5t3 -4.5q4 -4 13 -4q8 0 12 4q6 2 6 13h27q0 -10 -6 -23q-4 -4 -7.5 -7t-7.5 -5q-12 -6 -24 -6q-23 0 -35 12q-6 2 -10 16q-4 12 -5 25zM1167 627h107v41h-2q-4 -4 -4 -6.5t-2 -6.5q-4 -4 -4 -8q-2 -2 -2 -3t-3 -3q-8 -8 -12 -10q-2 0 -6 -1 t-8 -1h-25v73q0 10 6 11q2 4 13 4h6v4h-64v-4h4q16 0 17 -15v-57q0 -16 -17 -16h-4v-2zM1221 -2v115h28v-17q12 18 35 19q14 0 21 -4l14 -13q4 -12 4 -20v-80h-29v70q0 8 -4 16q-6 6 -16 6q-12 0 -19 -8q-4 -4 -4 -19v-65h-30zM1237 -166q0 9 4 25q6 14 16 20q10 8 29 8 q20 0 29 -8q10 -6 14 -22q6 -12 6 -27v-6h-71q0 -12 6 -19q6 -6 16 -6q6 0 14 4q4 4 7 9h26q-4 -16 -10 -21q-8 -8 -14 -10q-12 -4 -23 -4q-49 0 -49 57zM1264 -158h43q0 10 -7 17q-4 2 -7 4t-9 2q-16 0 -20 -23zM1266 963l2 2q0 2 2 4q4 8 6 10l8 10q2 8 6 12q2 4 8 11 l19 24l26 33l7 8l8 6l8 7q2 2 8 2q4 2 8 2l7 -4q0 -2 1 -3.5t1 -3.5q0 -4 -2 -8q0 -2 -5 -6l-16 -22l-12 -23l-17 -14l-16 -19q-2 -2 -4 -3t-6 -5l-13 -10q-2 -2 -4 -3t-6 -5q-4 0 -5 -2t-5 -2q-8 -4 -10 -3h-2q-2 2 -2 5zM1268 717h2q10 0 14 -2l4 -4t4 -6l29 -39v-21 q0 -10 -2 -12q-8 -4 -14 -4h-7v-2h68v2h-8q-8 0 -12 4t-5 12v23l25 34l4 7q8 4 10 4q0 2 4 2q2 0 3.5 1t3.5 1h2v4h-47v-4h6q8 0 10 -2q4 -2 4 -6t-6 -11l-19 -26l-24 30q-4 8 -4 9v2q0 2 2 2q0 2 6 2h8v4h-61v-4zM1337 92v21h19v28h26v-28h21v-21h-21v-61v-6q0 -2 2 -2 q4 0 5.5 -1.5t5.5 -1.5l4 3h4v-25h-21q-14 0 -16 4q-8 0 -10 8v82h-19zM1352 -190h30v-31h-30v31zM1401 -170q0 16 10 41q12 16 39 16q10 0 23 -4q6 -2 18 -14q8 -10 8 -23h-29l-6 13q-6 6 -12 6q-10 0 -16 -10q-6 -6 -6 -21q0 -6 1 -10t1 -8q4 -8 8 -11q2 -4 10 -4 q10 0 12 4q6 2 6 13h31q-4 -12 -8 -23q-4 -4 -8 -7t-8 -5q-10 -6 -25 -6q-20 0 -35 12q-6 2 -10 16q-4 12 -4 25zM1473 31q0 16 8 24q16 8 24 11l27 4q10 0 10 8q0 14 -18 14q-8 0 -13 -4q-6 -2 -8 -14h-26q0 14 6 24q4 6 16 13q4 4 12 4h13q25 0 32 -4l7.5 -7.5t5.5 -7.5 t2 -14v-72q0 -6 8 -6v-6h-33q-2 0 -2 2v2v2q0 4 -1 5t-1 3l-8 -8q-2 -2 -3 -2t-3 -2t-4 -2q-6 0 -9.5 -1t-7.5 -1t-8 1t-8 1q-4 4 -7 6t-7 6q-4 8 -4 21zM1501 31q0 -8 4 -8q4 -4 11 -5h8l4 2q10 4 10 7q4 8 4 14v14q-6 -6 -12 -6l-14 -4q-6 0 -11 -4q-4 -2 -4 -10z M1511 -168q0 13 2 21q4 12 11 18q6 8 16 12q12 4 25 4q10 0 22 -4l8 -4t9 -6q4 -4 5 -9t5 -9q2 -6 2 -23q0 -16 -6 -29q-4 -14 -17 -20q-12 -6 -28 -6q-20 0 -31 8q-12 6 -18 20q-4 16 -5 27zM1538 -168q0 -14 6 -22q2 -4 8.5 -6.5t12.5 -2.5q16 0 18 9q6 8 6 22q0 13 -6 23 q-4 10 -18 10q-16 0 -21 -10q-6 -10 -6 -23zM1567 1167l28 37l13 23l26 35l2 2q0 4 4 4q0 2 2 2q0 -8 -2 -10l-8 -11l-6 -10q-2 -2 -3 -4t-3 -4l-16 -21l-19 -20l-10 -12q-4 -8 -8 -11zM1585 92v21h14v28h33v-28h19v-21h-19v-61v-8q2 0 4 -1.5t6 -1.5l5 3h4v-25h-19 q-14 0 -20 4q-6 0 -8 8q0 2 -2.5 5t-2.5 8v69h-14zM1636 -115h27v-16q8 18 31 18q8 0 16 -4q6 -4 12 -12q2 8 11 12q8 4 16 4q10 0 23 -4q8 -8 10 -14q4 -8 4 -19v-71h-27v63q0 23 -16 23q-18 0 -19 -23v-63h-26v63v11q0 4 -4 8t-15 4q-16 0 -16 -23v-63h-27v106z" />
<glyph unicode="1" d="M70 -193q0 17 8 23q10 10 20 10l27 4q10 0 10 6q0 16 -16 17q-10 0 -13 -6q-8 -2 -8 -11h-24q0 14 6 21q2 8 12 12q4 2 14 2q4 2 13 2q14 0 26 -4q8 -6 13 -12q2 -4 2 -14v-56q0 -10 2 -12q0 -2 4 -6v-4h-29v2v4q-2 2 -2 6l-8 -8q-4 -2 -6 -2t-4 -2q-4 -2 -13 -2 q-12 0 -18 2q-6 4 -10 10q-6 6 -6 18zM96 -190q0 -4 4 -9q4 -2 6.5 -4t4.5 -2q4 0 6 4h4q8 4 10 6q4 8 4 13v12q-2 0 -10 -4l-12 -2q-4 0 -13 -4q-4 -4 -4 -10zM125 565v494l268 59l-10 37l41 12l-8 39l41 8l-6 46l41 2v41h36l4 36l39 -6l9 41l43 -6l10 39l39 -10l16 37 l39 -17l23 39l34 -18l23 35l37 -25l24 33l35 -27l27 29l26 -25l27 23l27 -29l34 23l23 -37l39 20l18 -35l37 17l17 -41l43 12l12 -39l39 10l8 -43l43 4l2 -26l404 88v-496l-185 -41l4 -2l-24 -26l24 -29l-32 -27l22 -34l-37 -23l23 -37l-35 -20l14 -37l-39 -17l13 -43 l-37 -12l6 -39l-41 -8l2 -43l-39 -4v-39h-35l-6 -37l-39 2l-8 -37l-43 6l-10 -40l-39 12l-14 -39l-44 16l-18 -39l-37 21l-22 -35l-37 23l-25 -33l-30 26l-31 -26l-27 24l-26 -24l-25 31l-35 -23l-24 37l-37 -21l-19 35l-39 -16l-18 41l-39 -13l-12 37l-41 -8l-8 43l-43 -4 l-5 41h-40v35l-35 4l4 41l-41 6l8 43l-41 12l12 37l-28 12zM186 -115h25v-18h2q4 8 6 10t3 4t5 4q2 2 15 2h2h4v-28h-8q-27 0 -27 -25v-55h-27v106zM236 76v16q0 4 2 7t2 7q2 12 14 25q4 6 10 10t12 9q14 6 33 6h6q4 0 8.5 -1t8.5 -1q8 0 14 -7q14 -8 21 -18q4 -4 8 -12 q0 -2 1 -3t1 -3v-5h-33v3q0 2 -4 6q-2 4 -4 5t-6 5q-6 4 -19 4h-8h-6l-14 -12q-10 -6 -11 -15q-4 -8 -4 -28q0 -8 1 -14.5t3 -14.5q2 -10 13 -14q6 -4 10 -6t10 -2h4q12 0 19 4q4 0 7 3l5 5q4 6 6 10t2 10h-37v27h66v-84h-21l-4 20q-6 -8 -14 -14q-4 -4 -9 -5t-10 -3 q-4 0 -9 -1t-9 -1q-12 0 -25 6q-14 6 -20 16q-8 6 -16 27q-4 10 -4 33zM236 702h10l8 5l10 10l8 10l11 10q4 8 8 13l63 86l19 30l20 31q6 8 11.5 15.5t9.5 15.5q4 10 8 17t8 16q2 4 0 6t-4 2q-8 0 -10 -2l-8 -4l-17 -21l-16 -20q-6 -6 -15 -19l-16 -20l-55 -80l-27 -41 q-6 -10 -11 -21.5t-11 -21.5l-4 -6v-4v-4v-3zM262 -78h29v-24h-29v24zM262 -115h29v-106h-29v106zM276 889q2 -4 4.5 -6t6.5 -6l18 -7q14 0 23 2q4 0 4 2q2 2 2 5q0 2 -2 2h-4q-4 0 -4 -2q-14 -2 -29 2q-8 4 -10 8q0 4 -1 5t-1 5q0 6 2 12l6 15l16 18q4 4 10.5 8t12.5 9 q6 4 11 7t13 7l25 12q8 0 14 2t15 6l28 4q16 4 27 5q6 0 22 -5q10 0 15 -6l10 -12v-16q0 -12 -2 -21l-10 -18q-4 -6 -7.5 -11.5t-7.5 -9.5q-4 -6 -9 -10t-11 -10q-4 -6 -21 -19l-22 -14l-25 -10l-14 -6q-2 0 -5 -1t-7 -1h-4q-4 0 -7 -3q-2 0 -2 -2q-4 0 -4 -4q0 -2 2 -2h4 q4 0 7 2h4l26 9l27 12l27 10l26 16l23 17l20 18l17 21q4 4 7 9t5 11q4 12 4 19q2 10 0 18q-2 4 -3 7t-3 7q-6 6 -15 11q-6 2 -10 3t-10 1q-8 2 -23 2q-8 0 -24 -4q-14 0 -27.5 -4t-29.5 -9q-29 -8 -54 -22q-6 -4 -13 -7t-13 -7t-12.5 -8.5t-10.5 -10.5l-9 -9l-9 -9l-9 -21 q-4 -10 0 -16zM317 -115h25v-16q12 18 33 18q8 0 20 -4q6 -4 13 -12q4 -8 4 -21v-71h-29v63q0 12 -2 15q-4 8 -16 8q-8 0 -17 -8q-4 -12 -4 -17v-61h-27v106zM395 57q0 20 6 29q4 14 17 20q8 6 15 7.5t18 1.5q23 0 28 -9q12 -6 19 -22q4 -10 4 -31v-8h-78q0 -6 8 -18 q6 -6 19 -7q4 0 7 1.5t5 1.5q8 8 8 10h31q-6 -12 -10 -21q-4 -4 -8.5 -7t-8.5 -5l-12 -3t-12 -1q-55 0 -56 61zM428 68h45q-4 12 -8 16q-8 8 -14 8q-23 0 -23 -24zM430 -166q0 6 2 12.5t4 12.5q6 14 15 20q8 8 24 8q6 0 19 -4l7 -7t5 -7l2 16h24v-100q0 -10 -4 -27 q-6 -10 -16 -14q-12 -6 -33 -6q-4 0 -9 1t-9 1q-6 2 -19 10q-4 4 -4 8q-2 4 -2 11h27q2 -4 6 -9q2 -2 12 -2q12 0 15 2q8 6 8 9q0 2 1 3t1 3v6v12q-12 -14 -29 -14q-6 0 -11 1t-11 3q-10 8 -17 20q-4 6 -6 13.5t-2 17.5zM461 -168q0 -8 2 -14q0 -4 6 -11q8 -4 12 -4 q25 0 25 29q0 14 -8 23q-4 4 -8.5 7t-8.5 3q-8 0 -14 -10q-6 -6 -6 -23zM498 717q20 0 20 -15v-49q0 -8 10 -22l17 -4q4 -2 18 -2q12 0 25 4q8 4 10 6q8 6 8 22v50l10 8l2 2h9v4h-47v-4h10q2 0 4 -2q12 -4 12 -23v-33q0 -12 -10 -22l-12 -8h-15q-12 0 -18 2q-2 0 -10 8 q-4 4 -4 14v49q0 10 4 11q4 4 14 4h6v4h-63v-4zM510 92v21h16v28h31v-28h16v-21h-16v-61q0 -8 2 -8q0 -2 2 -3h8l2 3h2v-25h-16q-14 0 -20 4q-6 0 -9 8q-2 2 -2 13v69h-16zM510 821q2 -8 10 -12q10 -10 23 -6q14 0 26 6q10 2 17.5 6t15.5 8t15.5 9.5t15.5 13.5l24 20l15 15 q0 2 4 6q0 2 2 4l4 6l16 16l15 21q6 4 10 10t8 10l6 -2l4 -6q0 -2 2 -4v-2q0 -2 -2 -4t-4 -6l-16 -17l-14 -20l-13 -19l-4 -18q-2 -2 -2 -8v-6l4 -8h8q10 0 17 2l16 10q4 4 10.5 8t10.5 10q6 4 10 8.5t8 8.5q2 4 4 6t4 6l8 10l5 4l4 6q4 4 4 5l12 16l21 31q0 -4 1 -7.5 t1 -7.5q4 -12 4 -14l4 -8q-16 -4 -25 -13l-20 -14q-4 -4 -7.5 -9t-5.5 -9q-2 -6 -2 -17q0 -6 11 -10h18q12 0 25 8q16 8 22 17q6 4 9 8t8 8l8 18q6 8 6 19v16q0 6 -4 15l-6 16l-7 6q0 4 -4 8q0 2 -2 4v7v4h-8l-4 -4q-4 -2 -6 -4.5t-6 -4.5l-4 -12l-2 -2l-4 -6l-33 -45l-4 -6 l-6 -11h-3v-2q-2 0 -4 -2l-4 -8l-6 -8l-14 -18l-23 -21q-4 -4 -12 -6q-4 -4 -12 -4v2l8 10l6 10l8 11q4 4 6 8l9 14l10 14l4 15q2 6 2 14q-2 2 -2 8l-2 4q0 4 -2 7v22l6 10q4 6 -4 13q-4 6 -17 0q-10 -2 -16 -9q-6 -2 -10 -12q-4 -4 -4 -10q0 -8 2 -12l4 -2l4 -5l-6 -6 l-6 -6l-23 -31l-20 -22q-4 0 -4 -4v-2l-2 -2q0 -2 -2 -2l-11 -15q-8 -6 -14 -12t-14 -10q-12 -12 -33 -23q-12 -4 -21 -8q-12 -4 -18 -2q-6 0 -6 4q-2 2 -2 6q0 2 4 11l2 8l10 16q4 -2 12 -2h19q10 2 26 12q6 2 11.5 6.5t13.5 8.5l14 16q4 4 7.5 8t3.5 8l8 13q0 12 -4 14 q-4 8 -8 10h-19h-9t-9 -4q-4 -2 -10.5 -4t-10.5 -4q-27 -14 -45 -29q-18 -16 -29 -34q-4 -4 -6 -9.5t-6 -11.5q-6 -8 -8 -18v-17zM545 -115h14v27h29v-27h16v-20h-16v-55q0 -6 2 -9q0 -2 2 -2h6l4 2h2v-22h-6h-6h-4q-12 0 -17 2q-10 4 -10 8q-2 2 -2 12v64h-14v20zM567 870 l15 23l18 20l6 9q4 4 6 5t4 3l11 10l12 4q8 2 14 0v-10l-6 -8q-6 -6 -6 -11q-4 -4 -5 -6t-5 -4q0 -2 -8 -10q-2 -2 -3.5 -4t-5.5 -4q-4 -4 -6 -5t-4 -3l-12 -9q-6 -2 -12 -2q-10 0 -13 2zM610 -115h33l21 -78l20 78h31l-35 -102l-2 -2l-8 -23q-4 -10 -6 -12q-6 -6 -11 -6 q-4 0 -7 -1t-7 -1h-6h-8v22h8h8q2 0 6 4v5q2 2 2 6l-37 102zM639 694q0 -2 4 -10q0 -6 6 -6l13 -6q2 -2 20 -6l8 -2q8 -4 12 -5q4 0 9 -4q2 0 2 -2q6 -4 6 -10l-4 -8q-2 -4 -8 -6h-11q-10 0 -16 2l-16 6l-11 10q-10 10 -10 21h-2v-43h2q0 6 4 6q4 4 8 4q2 0 2 -1t5 -1 q2 0 3 -1t3 -1l14 -4q4 -2 14 -2q4 0 17 4q2 0 12 6q2 2 2 4t4 4v21l-6 6q-2 4 -12 8l-17 6h-10l-2 2q-4 2 -8 2t-6 2q-6 0 -8 2q-2 0 -7 4q-2 0 -2 4v2v9l4 4l9 4q2 0 4 1t6 1q6 0 14 -4q8 0 12 -4q8 -4 11 -8q4 -2 5 -7.5t5 -9.5h2v31h-2q-2 -6 -8 -6h-8q-16 10 -31 10 q-8 0 -21 -4l-12 -8q-2 -4 -3 -7.5t-1 -9.5zM641 92v21h14v8q0 33 35 33h15v-25h-9h-6q-4 0 -4 -4v-12h19v-21h-19v-94h-31v94h-14zM723 37v76h29v-70q0 -20 20 -20h10l11 10q0 2 2 5t2 7v68h26v-115h-26v16q-6 -8 -15 -12q-12 -6 -20 -6q-20 0 -29 12q-10 8 -10 29z M731 -115h25v-16h4q2 0 4 2l8 8q4 4 8 6q2 2 8 2q10 0 17 -4q8 -4 12 -8q8 -8 10 -20q6 -10 7 -23q0 -4 -1.5 -6t-1.5 -6t-2 -6t-4 -7q-4 -16 -12 -22q-10 -8 -25 -8q-10 0 -14 2t-8 6q-2 2 -6 2l-2 4v-51h-27v100v45zM741 627h103v39q-4 -4 -4 -7.5t-2 -5.5l-11 -14 q-6 -6 -8 -6l-10 -2q-4 -2 -12 -2h-15v41h2q8 0 19 -6l4 -7q0 -2 1 -3t1 -3v-8h2v59h-2v-8l-4 -10q-10 -10 -19 -10h-4v43h17q16 0 22 -2l8 -6l5 -11l6 -14h4v37h-103v-4h4q8 0 11 -4q6 0 6 -11v-57q0 -16 -17 -16h-4v-2zM756 -170q0 -14 8 -20q6 -8 16 -9q12 0 19 9 q4 12 4 22t-4 23q-4 4 -8.5 7t-10.5 3q-25 0 -24 -35zM793 868v9l4 10l6 8q8 10 18 18l23 11q0 -4 1 -6.5t1 -4.5q-2 -4 -2 -8v-12l-4 -8q-2 -4 -4 -5t-5 -6l-8 -6q-2 0 -3 -1t-5 -1q-2 -2 -8 -2q-4 -4 -8 0q-2 0 -6 4zM844 -166q0 17 4 25q6 14 16 20q10 8 27 8q23 0 31 -8 q10 -6 16 -22q4 -16 4 -27v-6h-72q0 -12 7 -19q6 -6 16 -6q6 0 14 4q4 4 6 9h27q-4 -16 -8 -21q-4 -4 -8 -6t-9 -4q-12 -4 -22 -4q-49 0 -49 57zM852 -2v156h29v-156h-29zM870 -158h43q0 10 -6 17q-4 2 -7 4t-9 2q-16 0 -21 -23zM903 -2v156h29v-156h-29zM905 674 q0 -14 4 -21q4 -4 6.5 -7t6.5 -7q6 -6 18 -10q6 -2 11 -3t12 -1q16 0 26 6q8 4 13.5 9t9.5 9q6 8 6 25q0 10 -4 16q-4 12 -10 17q-4 6 -19 10q-12 6 -22 6q-20 0 -29 -8q-8 -2 -12 -7.5t-9 -9.5q-8 -10 -8 -24zM915 901q0 -8 5 -8q4 -4 6 -5t4 -3h10h12q8 2 14.5 4t12.5 4 l27 14l22 21l19 16l14 21l10 16l6 18q4 10 0 15q0 6 -6 10q0 4 -10 8q-2 0 -6 1t-8 1q-6 0 -19 -4q-4 0 -6 -1l-6 -3l-12 -4l-25 -16q-6 -4 -11 -9.5t-12 -9.5l-16 -18l-12 -19q-10 -16 -13 -26v-23zM928 674q0 4 1 8t1 8l6 12q2 2 3 5.5t3 5.5t4 2t6 2q4 4 13 4q0 -2 2 -2 h4l6 -4l10 -8q0 -4 2 -7.5t4 -9.5q0 -2 1 -7t1 -9q0 -12 -4 -25q-4 -4 -6 -9t-6 -9q-4 -2 -16 -2q-10 0 -13 2q-8 0 -12 10l-6 12q-4 12 -4 21zM940 895v8v4q4 14 10 21q4 6 7.5 11t7.5 11l10 13l8 10l16 20l9.5 9.5l9.5 9.5l8 8l10 4q4 2 11 2l4 -2q2 -2 2 -8q0 -2 -4 -10 l-5 -9l-6 -10q-4 -8 -6 -10l-8 -12l-12 -19l-17 -18l-20 -21q0 -2 -10 -6q-2 -4 -13 -8h-8q-4 0 -4 2zM948 -115h17v9q0 29 30 28h13v-22h-7h-6l-2 -2l-2 -9v-4h19v-20h-19v-86h-26v86h-17v20zM1010 92v21h14v8q0 33 35 33h12v-25h-6h-6q-2 0 -4 -4v-12h20v-21h-20v-94h-31 v94h-14zM1018 -193q0 17 10 23q10 10 21 10l24 4q8 0 8 6q0 16 -14 17q-10 0 -12 -6q-6 -4 -6 -11h-27q0 14 6 21q6 10 14 12q4 2 11 2q4 2 14 2t16.5 -1t12.5 -3q8 -6 12 -12q2 -4 2 -14v-56q0 -10 2 -12q0 -2 4 -6v-4h-31v2q0 2 -1 2t-1 2v6q-4 -2 -5 -4t-3 -4 q-4 -2 -6 -2t-4 -2q-4 -2 -14 -2q-8 0 -15 2q-4 2 -7 4t-7 6q-4 8 -4 18zM1032 627h49v2q-6 0 -10 2h-8l-4 10q-2 2 -2 12v56l80 -82h4v65q0 8 1 12.5t3 8.5q4 4 16 4v4h-47v-4h8q0 -2 4 -2q6 -4 7 -8q4 -4 4 -15v-39l-66 68h-37v-4q8 0 10 -2q2 0 3.5 -1t3.5 -1q2 -4 2 -11 v-53q0 -6 -2 -10t-7 -8q-4 0 -7 -1t-5 -1v-2zM1047 -190q0 -4 4 -9q6 -6 8 -6q4 0 6 4h4q4 2 5 3t5 3q2 4 2 13v12l-8 -4l-14 -2q-4 0 -8 -4t-4 -10zM1051 905q2 0 3 -1t3 -1q4 0 8 2l8 4q0 2 4 6q2 0 2 1.5t2 1.5l4 6q0 4 5 4l16 22l20 21l17 20l22 21l21 20l8 8q4 2 10 9 l10 8l13 4q2 0 2 -2h-2l-4 -4q-2 -6 -9 -8l-4 -7l-12 -14q-4 -4 -6 -7t-6 -7q-10 -12 -15 -23l-14 -20q-2 -4 -3 -9.5t-3 -9.5q-4 -10 0 -16q2 -6 8 -6h19q4 2 9 5t13 7q12 8 19 14l20 21l2 2q-2 -2 -2 -6q0 -6 4 -15q2 -4 10 -8q6 -2 21 2q12 2 24 13l21 14l7 7l7 7l13 13 v-5q0 -2 -1.5 -3t-1.5 -3v-6q-4 -6 0 -10q0 -2 1.5 -3t1.5 -3q0 -6 6 -6h6h10l6 4l8 6l13 6l32 27l17 16l-4 -12q-4 -6 -4 -19v-6q2 0 4 -2q0 -2 6 -2q4 0 8 4q8 0 12 6l11 6l12 13q2 0 10 8l9 9t10 9l18 21v4q0 2 -2 2q-4 0 -8 -4l-2 -4l-13 -15l-10 -12q-10 -6 -12 -12 l-14 -12l-9 -7l-8 -2l-2 -2q-2 0 -4 2h2l8 15q4 8 8 12l7 12q4 2 8 11l63 92q10 10 13 16l16 16l37 43q10 10 17 20.5t16 20.5l10 19v8q-2 2 -8 2q-2 0 -11 -4q-4 0 -6 -2t-6 -4q-4 0 -10 -6l-8 -6q-6 -4 -11.5 -9.5t-11.5 -9.5l-16 -18q-6 -6 -10.5 -11.5t-8.5 -11.5 q-2 -4 -6 -9t-8 -11q-16 -23 -27 -41l-26 -45l-19 -33l-8 -16h-2l-14 -15q-4 -6 -8.5 -10t-10.5 -10l-18 -17l-10 -8l-7 -4l-4 -2l-4 -4h-6h-4l6 10l6 10q0 2 2 4q4 8 8.5 14.5t10.5 12.5q4 6 8 13.5t8 15.5l15 20l8 13q2 4 3 5t3 5l2 2l2 2q0 2 1 2t1 2q6 4 4 8q0 2 -6 2 l-10 -4l-10 -6l-19 -12q-8 -8 -14 -13q0 6 -2 11q0 2 -6 6q-12 2 -21 0q-16 -4 -22 -8q-8 -4 -13.5 -6.5t-11.5 -6.5q-8 -6 -18 -16q-27 -18 -37 -39q-14 -16 -21 -37h-4q-4 -6 -16 -18q-6 -4 -11.5 -8.5t-11.5 -8.5q-2 -4 -12 -8q-4 -4 -10 -4h-2q-2 2 0 4l6 8l6 11l12 14 l21 27q4 6 9 13t9 15l8 17q4 10 2 16q0 6 -2 6q0 4 -6 4t-8 -2l-12 -4l-13 -8q-4 -2 -10 -8q-4 -4 -6 -5t-4 -4q-8 -8 -12 -8l-21 -22q-4 -4 -9 -9.5t-9 -9.5l-11 -12l-10 -10l2 4l25 35l26 37q0 2 1.5 2t1.5 2q2 2 2 4q2 2 2 6l-7 6q-2 0 -3 1t-3 1t-4 -1t-6 -1l-10 -6 l-4 -4q-4 -2 -4 -4t-2 -4l-5 -7l-77 -133q-2 -2 -2 -4v-2zM1083 55q0 6 1 11.5t3 11.5q2 10 11 18q10 10 20 15q6 4 25 4q16 0 24 -4q4 -4 8.5 -5.5t8.5 -5.5t6 -9t6 -11q4 -12 4 -25q0 -16 -8 -30q-2 -8 -18 -21q-10 -8 -31 -8q-20 0 -35 8q-6 4 -10 10t-8 13q-6 12 -7 28z M1114 55q0 -8 2 -13t4 -9q4 -10 23 -10q16 0 20 10q6 6 6 22q0 14 -6 25q-6 10 -20 10q-16 0 -23 -10q-2 -4 -4 -10.5t-2 -14.5zM1128 -170q1 16 11 41q12 16 39 16q10 0 22 -4q8 -2 17 -14q4 -6 7 -11t3 -12h-31q0 4 -4 13q-6 6 -12 6q-10 0 -17 -10q-8 -6 -8 -21 q0 -6 1 -10t1 -8q4 -4 5 -6.5t3 -4.5q4 -4 13 -4q8 0 12 4q6 2 6 13h27q0 -10 -6 -23q-4 -4 -7.5 -7t-7.5 -5q-12 -6 -24 -6q-23 0 -35 12q-6 2 -10 16q-4 12 -5 25zM1167 627h107v41h-2q-4 -4 -4 -6.5t-2 -6.5q-4 -4 -4 -8q-2 -2 -2 -3t-3 -3q-8 -8 -12 -10q-2 0 -6 -1 t-8 -1h-25v73q0 10 6 11q2 4 13 4h6v4h-64v-4h4q16 0 17 -15v-57q0 -16 -17 -16h-4v-2zM1221 -2v115h28v-17q12 18 35 19q14 0 21 -4l14 -13q4 -12 4 -20v-80h-29v70q0 8 -4 16q-6 6 -16 6q-12 0 -19 -8q-4 -4 -4 -19v-65h-30zM1237 -166q0 9 4 25q6 14 16 20q10 8 29 8 q20 0 29 -8q10 -6 14 -22q6 -12 6 -27v-6h-71q0 -12 6 -19q6 -6 16 -6q6 0 14 4q4 4 7 9h26q-4 -16 -10 -21q-8 -8 -14 -10q-12 -4 -23 -4q-49 0 -49 57zM1264 -158h43q0 10 -7 17q-4 2 -7 4t-9 2q-16 0 -20 -23zM1266 963l2 2q0 2 2 4q4 8 6 10l8 10q2 8 6 12q2 4 8 11 l19 24l26 33l7 8l8 6l8 7q2 2 8 2q4 2 8 2l7 -4q0 -2 1 -3.5t1 -3.5q0 -4 -2 -8q0 -2 -5 -6l-16 -22l-12 -23l-17 -14l-16 -19q-2 -2 -4 -3t-6 -5l-13 -10q-2 -2 -4 -3t-6 -5q-4 0 -5 -2t-5 -2q-8 -4 -10 -3h-2q-2 2 -2 5zM1268 717h2q10 0 14 -2l4 -4t4 -6l29 -39v-21 q0 -10 -2 -12q-8 -4 -14 -4h-7v-2h68v2h-8q-8 0 -12 4t-5 12v23l25 34l4 7q8 4 10 4q0 2 4 2q2 0 3.5 1t3.5 1h2v4h-47v-4h6q8 0 10 -2q4 -2 4 -6t-6 -11l-19 -26l-24 30q-4 8 -4 9v2q0 2 2 2q0 2 6 2h8v4h-61v-4zM1337 92v21h19v28h26v-28h21v-21h-21v-61v-6q0 -2 2 -2 q4 0 5.5 -1.5t5.5 -1.5l4 3h4v-25h-21q-14 0 -16 4q-8 0 -10 8v82h-19zM1352 -190h30v-31h-30v31zM1401 -170q0 16 10 41q12 16 39 16q10 0 23 -4q6 -2 18 -14q8 -10 8 -23h-29l-6 13q-6 6 -12 6q-10 0 -16 -10q-6 -6 -6 -21q0 -6 1 -10t1 -8q4 -8 8 -11q2 -4 10 -4 q10 0 12 4q6 2 6 13h31q-4 -12 -8 -23q-4 -4 -8 -7t-8 -5q-10 -6 -25 -6q-20 0 -35 12q-6 2 -10 16q-4 12 -4 25zM1473 31q0 16 8 24q16 8 24 11l27 4q10 0 10 8q0 14 -18 14q-8 0 -13 -4q-6 -2 -8 -14h-26q0 14 6 24q4 6 16 13q4 4 12 4h13q25 0 32 -4l7.5 -7.5t5.5 -7.5 t2 -14v-72q0 -6 8 -6v-6h-33q-2 0 -2 2v2v2q0 4 -1 5t-1 3l-8 -8q-2 -2 -3 -2t-3 -2t-4 -2q-6 0 -9.5 -1t-7.5 -1t-8 1t-8 1q-4 4 -7 6t-7 6q-4 8 -4 21zM1501 31q0 -8 4 -8q4 -4 11 -5h8l4 2q10 4 10 7q4 8 4 14v14q-6 -6 -12 -6l-14 -4q-6 0 -11 -4q-4 -2 -4 -10z M1511 -168q0 13 2 21q4 12 11 18q6 8 16 12q12 4 25 4q10 0 22 -4l8 -4t9 -6q4 -4 5 -9t5 -9q2 -6 2 -23q0 -16 -6 -29q-4 -14 -17 -20q-12 -6 -28 -6q-20 0 -31 8q-12 6 -18 20q-4 16 -5 27zM1538 -168q0 -14 6 -22q2 -4 8.5 -6.5t12.5 -2.5q16 0 18 9q6 8 6 22q0 13 -6 23 q-4 10 -18 10q-16 0 -21 -10q-6 -10 -6 -23zM1567 1167l28 37l13 23l26 35l2 2q0 4 4 4q0 2 2 2q0 -8 -2 -10l-8 -11l-6 -10q-2 -2 -3 -4t-3 -4l-16 -21l-19 -20l-10 -12q-4 -8 -8 -11zM1585 92v21h14v28h33v-28h19v-21h-19v-61v-8q2 0 4 -1.5t6 -1.5l5 3h4v-25h-19 q-14 0 -20 4q-6 0 -8 8q0 2 -2.5 5t-2.5 8v69h-14zM1636 -115h27v-16q8 18 31 18q8 0 16 -4q6 -4 12 -12q2 8 11 12q8 4 16 4q10 0 23 -4q8 -8 10 -14q4 -8 4 -19v-71h-27v63q0 23 -16 23q-18 0 -19 -23v-63h-26v63v11q0 4 -4 8t-15 4q-16 0 -16 -23v-63h-27v106z" />
<glyph unicode="2" d="M70 -193q0 17 8 23q10 10 20 10l27 4q10 0 10 6q0 16 -16 17q-10 0 -13 -6q-8 -2 -8 -11h-24q0 14 6 21q2 8 12 12q4 2 14 2q4 2 13 2q14 0 26 -4q8 -6 13 -12q2 -4 2 -14v-56q0 -10 2 -12q0 -2 4 -6v-4h-29v2v4q-2 2 -2 6l-8 -8q-4 -2 -6 -2t-4 -2q-4 -2 -13 -2 q-12 0 -18 2q-6 4 -10 10q-6 6 -6 18zM96 -190q0 -4 4 -9q4 -2 6.5 -4t4.5 -2q4 0 6 4h4q8 4 10 6q4 8 4 13v12q-2 0 -10 -4l-12 -2q-4 0 -13 -4q-4 -4 -4 -10zM125 565v494l268 59l-10 37l41 12l-8 39l41 8l-6 46l41 2v41h36l4 36l39 -6l9 41l43 -6l10 39l39 -10l16 37 l39 -17l23 39l34 -18l23 35l37 -25l24 33l35 -27l27 29l26 -25l27 23l27 -29l34 23l23 -37l39 20l18 -35l37 17l17 -41l43 12l12 -39l39 10l8 -43l43 4l2 -26l404 88v-496l-185 -41l4 -2l-24 -26l24 -29l-32 -27l22 -34l-37 -23l23 -37l-35 -20l14 -37l-39 -17l13 -43 l-37 -12l6 -39l-41 -8l2 -43l-39 -4v-39h-35l-6 -37l-39 2l-8 -37l-43 6l-10 -40l-39 12l-14 -39l-44 16l-18 -39l-37 21l-22 -35l-37 23l-25 -33l-30 26l-31 -26l-27 24l-26 -24l-25 31l-35 -23l-24 37l-37 -21l-19 35l-39 -16l-18 41l-39 -13l-12 37l-41 -8l-8 43l-43 -4 l-5 41h-40v35l-35 4l4 41l-41 6l8 43l-41 12l12 37l-28 12zM186 -115h25v-18h2q4 8 6 10t3 4t5 4q2 2 15 2h2h4v-28h-8q-27 0 -27 -25v-55h-27v106zM236 76v16q0 4 2 7t2 7q2 12 14 25q4 6 10 10t12 9q14 6 33 6h6q4 0 8.5 -1t8.5 -1q8 0 14 -7q14 -8 21 -18q4 -4 8 -12 q0 -2 1 -3t1 -3v-5h-33v3q0 2 -4 6q-2 4 -4 5t-6 5q-6 4 -19 4h-8h-6l-14 -12q-10 -6 -11 -15q-4 -8 -4 -28q0 -8 1 -14.5t3 -14.5q2 -10 13 -14q6 -4 10 -6t10 -2h4q12 0 19 4q4 0 7 3l5 5q4 6 6 10t2 10h-37v27h66v-84h-21l-4 20q-6 -8 -14 -14q-4 -4 -9 -5t-10 -3 q-4 0 -9 -1t-9 -1q-12 0 -25 6q-14 6 -20 16q-8 6 -16 27q-4 10 -4 33zM236 702h10l8 5l10 10l8 10l11 10q4 8 8 13l63 86l19 30l20 31q6 8 11.5 15.5t9.5 15.5q4 10 8 17t8 16q2 4 0 6t-4 2q-8 0 -10 -2l-8 -4l-17 -21l-16 -20q-6 -6 -15 -19l-16 -20l-55 -80l-27 -41 q-6 -10 -11 -21.5t-11 -21.5l-4 -6v-4v-4v-3zM262 -78h29v-24h-29v24zM262 -115h29v-106h-29v106zM276 889q2 -4 4.5 -6t6.5 -6l18 -7q14 0 23 2q4 0 4 2q2 2 2 5q0 2 -2 2h-4q-4 0 -4 -2q-14 -2 -29 2q-8 4 -10 8q0 4 -1 5t-1 5q0 6 2 12l6 15l16 18q4 4 10.5 8t12.5 9 q6 4 11 7t13 7l25 12q8 0 14 2t15 6l28 4q16 4 27 5q6 0 22 -5q10 0 15 -6l10 -12v-16q0 -12 -2 -21l-10 -18q-4 -6 -7.5 -11.5t-7.5 -9.5q-4 -6 -9 -10t-11 -10q-4 -6 -21 -19l-22 -14l-25 -10l-14 -6q-2 0 -5 -1t-7 -1h-4q-4 0 -7 -3q-2 0 -2 -2q-4 0 -4 -4q0 -2 2 -2h4 q4 0 7 2h4l26 9l27 12l27 10l26 16l23 17l20 18l17 21q4 4 7 9t5 11q4 12 4 19q2 10 0 18q-2 4 -3 7t-3 7q-6 6 -15 11q-6 2 -10 3t-10 1q-8 2 -23 2q-8 0 -24 -4q-14 0 -27.5 -4t-29.5 -9q-29 -8 -54 -22q-6 -4 -13 -7t-13 -7t-12.5 -8.5t-10.5 -10.5l-9 -9l-9 -9l-9 -21 q-4 -10 0 -16zM317 -115h25v-16q12 18 33 18q8 0 20 -4q6 -4 13 -12q4 -8 4 -21v-71h-29v63q0 12 -2 15q-4 8 -16 8q-8 0 -17 -8q-4 -12 -4 -17v-61h-27v106zM395 57q0 20 6 29q4 14 17 20q8 6 15 7.5t18 1.5q23 0 28 -9q12 -6 19 -22q4 -10 4 -31v-8h-78q0 -6 8 -18 q6 -6 19 -7q4 0 7 1.5t5 1.5q8 8 8 10h31q-6 -12 -10 -21q-4 -4 -8.5 -7t-8.5 -5l-12 -3t-12 -1q-55 0 -56 61zM428 68h45q-4 12 -8 16q-8 8 -14 8q-23 0 -23 -24zM430 -166q0 6 2 12.5t4 12.5q6 14 15 20q8 8 24 8q6 0 19 -4l7 -7t5 -7l2 16h24v-100q0 -10 -4 -27 q-6 -10 -16 -14q-12 -6 -33 -6q-4 0 -9 1t-9 1q-6 2 -19 10q-4 4 -4 8q-2 4 -2 11h27q2 -4 6 -9q2 -2 12 -2q12 0 15 2q8 6 8 9q0 2 1 3t1 3v6v12q-12 -14 -29 -14q-6 0 -11 1t-11 3q-10 8 -17 20q-4 6 -6 13.5t-2 17.5zM461 -168q0 -8 2 -14q0 -4 6 -11q8 -4 12 -4 q25 0 25 29q0 14 -8 23q-4 4 -8.5 7t-8.5 3q-8 0 -14 -10q-6 -6 -6 -23zM498 717q20 0 20 -15v-49q0 -8 10 -22l17 -4q4 -2 18 -2q12 0 25 4q8 4 10 6q8 6 8 22v50l10 8l2 2h9v4h-47v-4h10q2 0 4 -2q12 -4 12 -23v-33q0 -12 -10 -22l-12 -8h-15q-12 0 -18 2q-2 0 -10 8 q-4 4 -4 14v49q0 10 4 11q4 4 14 4h6v4h-63v-4zM510 92v21h16v28h31v-28h16v-21h-16v-61q0 -8 2 -8q0 -2 2 -3h8l2 3h2v-25h-16q-14 0 -20 4q-6 0 -9 8q-2 2 -2 13v69h-16zM510 821q2 -8 10 -12q10 -10 23 -6q14 0 26 6q10 2 17.5 6t15.5 8t15.5 9.5t15.5 13.5l24 20l15 15 q0 2 4 6q0 2 2 4l4 6l16 16l15 21q6 4 10 10t8 10l6 -2l4 -6q0 -2 2 -4v-2q0 -2 -2 -4t-4 -6l-16 -17l-14 -20l-13 -19l-4 -18q-2 -2 -2 -8v-6l4 -8h8q10 0 17 2l16 10q4 4 10.5 8t10.5 10q6 4 10 8.5t8 8.5q2 4 4 6t4 6l8 10l5 4l4 6q4 4 4 5l12 16l21 31q0 -4 1 -7.5 t1 -7.5q4 -12 4 -14l4 -8q-16 -4 -25 -13l-20 -14q-4 -4 -7.5 -9t-5.5 -9q-2 -6 -2 -17q0 -6 11 -10h18q12 0 25 8q16 8 22 17q6 4 9 8t8 8l8 18q6 8 6 19v16q0 6 -4 15l-6 16l-7 6q0 4 -4 8q0 2 -2 4v7v4h-8l-4 -4q-4 -2 -6 -4.5t-6 -4.5l-4 -12l-2 -2l-4 -6l-33 -45l-4 -6 l-6 -11h-3v-2q-2 0 -4 -2l-4 -8l-6 -8l-14 -18l-23 -21q-4 -4 -12 -6q-4 -4 -12 -4v2l8 10l6 10l8 11q4 4 6 8l9 14l10 14l4 15q2 6 2 14q-2 2 -2 8l-2 4q0 4 -2 7v22l6 10q4 6 -4 13q-4 6 -17 0q-10 -2 -16 -9q-6 -2 -10 -12q-4 -4 -4 -10q0 -8 2 -12l4 -2l4 -5l-6 -6 l-6 -6l-23 -31l-20 -22q-4 0 -4 -4v-2l-2 -2q0 -2 -2 -2l-11 -15q-8 -6 -14 -12t-14 -10q-12 -12 -33 -23q-12 -4 -21 -8q-12 -4 -18 -2q-6 0 -6 4q-2 2 -2 6q0 2 4 11l2 8l10 16q4 -2 12 -2h19q10 2 26 12q6 2 11.5 6.5t13.5 8.5l14 16q4 4 7.5 8t3.5 8l8 13q0 12 -4 14 q-4 8 -8 10h-19h-9t-9 -4q-4 -2 -10.5 -4t-10.5 -4q-27 -14 -45 -29q-18 -16 -29 -34q-4 -4 -6 -9.5t-6 -11.5q-6 -8 -8 -18v-17zM545 -115h14v27h29v-27h16v-20h-16v-55q0 -6 2 -9q0 -2 2 -2h6l4 2h2v-22h-6h-6h-4q-12 0 -17 2q-10 4 -10 8q-2 2 -2 12v64h-14v20zM567 870 l15 23l18 20l6 9q4 4 6 5t4 3l11 10l12 4q8 2 14 0v-10l-6 -8q-6 -6 -6 -11q-4 -4 -5 -6t-5 -4q0 -2 -8 -10q-2 -2 -3.5 -4t-5.5 -4q-4 -4 -6 -5t-4 -3l-12 -9q-6 -2 -12 -2q-10 0 -13 2zM610 -115h33l21 -78l20 78h31l-35 -102l-2 -2l-8 -23q-4 -10 -6 -12q-6 -6 -11 -6 q-4 0 -7 -1t-7 -1h-6h-8v22h8h8q2 0 6 4v5q2 2 2 6l-37 102zM639 694q0 -2 4 -10q0 -6 6 -6l13 -6q2 -2 20 -6l8 -2q8 -4 12 -5q4 0 9 -4q2 0 2 -2q6 -4 6 -10l-4 -8q-2 -4 -8 -6h-11q-10 0 -16 2l-16 6l-11 10q-10 10 -10 21h-2v-43h2q0 6 4 6q4 4 8 4q2 0 2 -1t5 -1 q2 0 3 -1t3 -1l14 -4q4 -2 14 -2q4 0 17 4q2 0 12 6q2 2 2 4t4 4v21l-6 6q-2 4 -12 8l-17 6h-10l-2 2q-4 2 -8 2t-6 2q-6 0 -8 2q-2 0 -7 4q-2 0 -2 4v2v9l4 4l9 4q2 0 4 1t6 1q6 0 14 -4q8 0 12 -4q8 -4 11 -8q4 -2 5 -7.5t5 -9.5h2v31h-2q-2 -6 -8 -6h-8q-16 10 -31 10 q-8 0 -21 -4l-12 -8q-2 -4 -3 -7.5t-1 -9.5zM641 92v21h14v8q0 33 35 33h15v-25h-9h-6q-4 0 -4 -4v-12h19v-21h-19v-94h-31v94h-14zM723 37v76h29v-70q0 -20 20 -20h10l11 10q0 2 2 5t2 7v68h26v-115h-26v16q-6 -8 -15 -12q-12 -6 -20 -6q-20 0 -29 12q-10 8 -10 29z M731 -115h25v-16h4q2 0 4 2l8 8q4 4 8 6q2 2 8 2q10 0 17 -4q8 -4 12 -8q8 -8 10 -20q6 -10 7 -23q0 -4 -1.5 -6t-1.5 -6t-2 -6t-4 -7q-4 -16 -12 -22q-10 -8 -25 -8q-10 0 -14 2t-8 6q-2 2 -6 2l-2 4v-51h-27v100v45zM741 627h103v39q-4 -4 -4 -7.5t-2 -5.5l-11 -14 q-6 -6 -8 -6l-10 -2q-4 -2 -12 -2h-15v41h2q8 0 19 -6l4 -7q0 -2 1 -3t1 -3v-8h2v59h-2v-8l-4 -10q-10 -10 -19 -10h-4v43h17q16 0 22 -2l8 -6l5 -11l6 -14h4v37h-103v-4h4q8 0 11 -4q6 0 6 -11v-57q0 -16 -17 -16h-4v-2zM756 -170q0 -14 8 -20q6 -8 16 -9q12 0 19 9 q4 12 4 22t-4 23q-4 4 -8.5 7t-10.5 3q-25 0 -24 -35zM793 868v9l4 10l6 8q8 10 18 18l23 11q0 -4 1 -6.5t1 -4.5q-2 -4 -2 -8v-12l-4 -8q-2 -4 -4 -5t-5 -6l-8 -6q-2 0 -3 -1t-5 -1q-2 -2 -8 -2q-4 -4 -8 0q-2 0 -6 4zM844 -166q0 17 4 25q6 14 16 20q10 8 27 8q23 0 31 -8 q10 -6 16 -22q4 -16 4 -27v-6h-72q0 -12 7 -19q6 -6 16 -6q6 0 14 4q4 4 6 9h27q-4 -16 -8 -21q-4 -4 -8 -6t-9 -4q-12 -4 -22 -4q-49 0 -49 57zM852 -2v156h29v-156h-29zM870 -158h43q0 10 -6 17q-4 2 -7 4t-9 2q-16 0 -21 -23zM903 -2v156h29v-156h-29zM905 674 q0 -14 4 -21q4 -4 6.5 -7t6.5 -7q6 -6 18 -10q6 -2 11 -3t12 -1q16 0 26 6q8 4 13.5 9t9.5 9q6 8 6 25q0 10 -4 16q-4 12 -10 17q-4 6 -19 10q-12 6 -22 6q-20 0 -29 -8q-8 -2 -12 -7.5t-9 -9.5q-8 -10 -8 -24zM915 901q0 -8 5 -8q4 -4 6 -5t4 -3h10h12q8 2 14.5 4t12.5 4 l27 14l22 21l19 16l14 21l10 16l6 18q4 10 0 15q0 6 -6 10q0 4 -10 8q-2 0 -6 1t-8 1q-6 0 -19 -4q-4 0 -6 -1l-6 -3l-12 -4l-25 -16q-6 -4 -11 -9.5t-12 -9.5l-16 -18l-12 -19q-10 -16 -13 -26v-23zM928 674q0 4 1 8t1 8l6 12q2 2 3 5.5t3 5.5t4 2t6 2q4 4 13 4q0 -2 2 -2 h4l6 -4l10 -8q0 -4 2 -7.5t4 -9.5q0 -2 1 -7t1 -9q0 -12 -4 -25q-4 -4 -6 -9t-6 -9q-4 -2 -16 -2q-10 0 -13 2q-8 0 -12 10l-6 12q-4 12 -4 21zM940 895v8v4q4 14 10 21q4 6 7.5 11t7.5 11l10 13l8 10l16 20l9.5 9.5l9.5 9.5l8 8l10 4q4 2 11 2l4 -2q2 -2 2 -8q0 -2 -4 -10 l-5 -9l-6 -10q-4 -8 -6 -10l-8 -12l-12 -19l-17 -18l-20 -21q0 -2 -10 -6q-2 -4 -13 -8h-8q-4 0 -4 2zM948 -115h17v9q0 29 30 28h13v-22h-7h-6l-2 -2l-2 -9v-4h19v-20h-19v-86h-26v86h-17v20zM1010 92v21h14v8q0 33 35 33h12v-25h-6h-6q-2 0 -4 -4v-12h20v-21h-20v-94h-31 v94h-14zM1018 -193q0 17 10 23q10 10 21 10l24 4q8 0 8 6q0 16 -14 17q-10 0 -12 -6q-6 -4 -6 -11h-27q0 14 6 21q6 10 14 12q4 2 11 2q4 2 14 2t16.5 -1t12.5 -3q8 -6 12 -12q2 -4 2 -14v-56q0 -10 2 -12q0 -2 4 -6v-4h-31v2q0 2 -1 2t-1 2v6q-4 -2 -5 -4t-3 -4 q-4 -2 -6 -2t-4 -2q-4 -2 -14 -2q-8 0 -15 2q-4 2 -7 4t-7 6q-4 8 -4 18zM1032 627h49v2q-6 0 -10 2h-8l-4 10q-2 2 -2 12v56l80 -82h4v65q0 8 1 12.5t3 8.5q4 4 16 4v4h-47v-4h8q0 -2 4 -2q6 -4 7 -8q4 -4 4 -15v-39l-66 68h-37v-4q8 0 10 -2q2 0 3.5 -1t3.5 -1q2 -4 2 -11 v-53q0 -6 -2 -10t-7 -8q-4 0 -7 -1t-5 -1v-2zM1047 -190q0 -4 4 -9q6 -6 8 -6q4 0 6 4h4q4 2 5 3t5 3q2 4 2 13v12l-8 -4l-14 -2q-4 0 -8 -4t-4 -10zM1051 905q2 0 3 -1t3 -1q4 0 8 2l8 4q0 2 4 6q2 0 2 1.5t2 1.5l4 6q0 4 5 4l16 22l20 21l17 20l22 21l21 20l8 8q4 2 10 9 l10 8l13 4q2 0 2 -2h-2l-4 -4q-2 -6 -9 -8l-4 -7l-12 -14q-4 -4 -6 -7t-6 -7q-10 -12 -15 -23l-14 -20q-2 -4 -3 -9.5t-3 -9.5q-4 -10 0 -16q2 -6 8 -6h19q4 2 9 5t13 7q12 8 19 14l20 21l2 2q-2 -2 -2 -6q0 -6 4 -15q2 -4 10 -8q6 -2 21 2q12 2 24 13l21 14l7 7l7 7l13 13 v-5q0 -2 -1.5 -3t-1.5 -3v-6q-4 -6 0 -10q0 -2 1.5 -3t1.5 -3q0 -6 6 -6h6h10l6 4l8 6l13 6l32 27l17 16l-4 -12q-4 -6 -4 -19v-6q2 0 4 -2q0 -2 6 -2q4 0 8 4q8 0 12 6l11 6l12 13q2 0 10 8l9 9t10 9l18 21v4q0 2 -2 2q-4 0 -8 -4l-2 -4l-13 -15l-10 -12q-10 -6 -12 -12 l-14 -12l-9 -7l-8 -2l-2 -2q-2 0 -4 2h2l8 15q4 8 8 12l7 12q4 2 8 11l63 92q10 10 13 16l16 16l37 43q10 10 17 20.5t16 20.5l10 19v8q-2 2 -8 2q-2 0 -11 -4q-4 0 -6 -2t-6 -4q-4 0 -10 -6l-8 -6q-6 -4 -11.5 -9.5t-11.5 -9.5l-16 -18q-6 -6 -10.5 -11.5t-8.5 -11.5 q-2 -4 -6 -9t-8 -11q-16 -23 -27 -41l-26 -45l-19 -33l-8 -16h-2l-14 -15q-4 -6 -8.5 -10t-10.5 -10l-18 -17l-10 -8l-7 -4l-4 -2l-4 -4h-6h-4l6 10l6 10q0 2 2 4q4 8 8.5 14.5t10.5 12.5q4 6 8 13.5t8 15.5l15 20l8 13q2 4 3 5t3 5l2 2l2 2q0 2 1 2t1 2q6 4 4 8q0 2 -6 2 l-10 -4l-10 -6l-19 -12q-8 -8 -14 -13q0 6 -2 11q0 2 -6 6q-12 2 -21 0q-16 -4 -22 -8q-8 -4 -13.5 -6.5t-11.5 -6.5q-8 -6 -18 -16q-27 -18 -37 -39q-14 -16 -21 -37h-4q-4 -6 -16 -18q-6 -4 -11.5 -8.5t-11.5 -8.5q-2 -4 -12 -8q-4 -4 -10 -4h-2q-2 2 0 4l6 8l6 11l12 14 l21 27q4 6 9 13t9 15l8 17q4 10 2 16q0 6 -2 6q0 4 -6 4t-8 -2l-12 -4l-13 -8q-4 -2 -10 -8q-4 -4 -6 -5t-4 -4q-8 -8 -12 -8l-21 -22q-4 -4 -9 -9.5t-9 -9.5l-11 -12l-10 -10l2 4l25 35l26 37q0 2 1.5 2t1.5 2q2 2 2 4q2 2 2 6l-7 6q-2 0 -3 1t-3 1t-4 -1t-6 -1l-10 -6 l-4 -4q-4 -2 -4 -4t-2 -4l-5 -7l-77 -133q-2 -2 -2 -4v-2zM1083 55q0 6 1 11.5t3 11.5q2 10 11 18q10 10 20 15q6 4 25 4q16 0 24 -4q4 -4 8.5 -5.5t8.5 -5.5t6 -9t6 -11q4 -12 4 -25q0 -16 -8 -30q-2 -8 -18 -21q-10 -8 -31 -8q-20 0 -35 8q-6 4 -10 10t-8 13q-6 12 -7 28z M1114 55q0 -8 2 -13t4 -9q4 -10 23 -10q16 0 20 10q6 6 6 22q0 14 -6 25q-6 10 -20 10q-16 0 -23 -10q-2 -4 -4 -10.5t-2 -14.5zM1128 -170q1 16 11 41q12 16 39 16q10 0 22 -4q8 -2 17 -14q4 -6 7 -11t3 -12h-31q0 4 -4 13q-6 6 -12 6q-10 0 -17 -10q-8 -6 -8 -21 q0 -6 1 -10t1 -8q4 -4 5 -6.5t3 -4.5q4 -4 13 -4q8 0 12 4q6 2 6 13h27q0 -10 -6 -23q-4 -4 -7.5 -7t-7.5 -5q-12 -6 -24 -6q-23 0 -35 12q-6 2 -10 16q-4 12 -5 25zM1167 627h107v41h-2q-4 -4 -4 -6.5t-2 -6.5q-4 -4 -4 -8q-2 -2 -2 -3t-3 -3q-8 -8 -12 -10q-2 0 -6 -1 t-8 -1h-25v73q0 10 6 11q2 4 13 4h6v4h-64v-4h4q16 0 17 -15v-57q0 -16 -17 -16h-4v-2zM1221 -2v115h28v-17q12 18 35 19q14 0 21 -4l14 -13q4 -12 4 -20v-80h-29v70q0 8 -4 16q-6 6 -16 6q-12 0 -19 -8q-4 -4 -4 -19v-65h-30zM1237 -166q0 9 4 25q6 14 16 20q10 8 29 8 q20 0 29 -8q10 -6 14 -22q6 -12 6 -27v-6h-71q0 -12 6 -19q6 -6 16 -6q6 0 14 4q4 4 7 9h26q-4 -16 -10 -21q-8 -8 -14 -10q-12 -4 -23 -4q-49 0 -49 57zM1264 -158h43q0 10 -7 17q-4 2 -7 4t-9 2q-16 0 -20 -23zM1266 963l2 2q0 2 2 4q4 8 6 10l8 10q2 8 6 12q2 4 8 11 l19 24l26 33l7 8l8 6l8 7q2 2 8 2q4 2 8 2l7 -4q0 -2 1 -3.5t1 -3.5q0 -4 -2 -8q0 -2 -5 -6l-16 -22l-12 -23l-17 -14l-16 -19q-2 -2 -4 -3t-6 -5l-13 -10q-2 -2 -4 -3t-6 -5q-4 0 -5 -2t-5 -2q-8 -4 -10 -3h-2q-2 2 -2 5zM1268 717h2q10 0 14 -2l4 -4t4 -6l29 -39v-21 q0 -10 -2 -12q-8 -4 -14 -4h-7v-2h68v2h-8q-8 0 -12 4t-5 12v23l25 34l4 7q8 4 10 4q0 2 4 2q2 0 3.5 1t3.5 1h2v4h-47v-4h6q8 0 10 -2q4 -2 4 -6t-6 -11l-19 -26l-24 30q-4 8 -4 9v2q0 2 2 2q0 2 6 2h8v4h-61v-4zM1337 92v21h19v28h26v-28h21v-21h-21v-61v-6q0 -2 2 -2 q4 0 5.5 -1.5t5.5 -1.5l4 3h4v-25h-21q-14 0 -16 4q-8 0 -10 8v82h-19zM1352 -190h30v-31h-30v31zM1401 -170q0 16 10 41q12 16 39 16q10 0 23 -4q6 -2 18 -14q8 -10 8 -23h-29l-6 13q-6 6 -12 6q-10 0 -16 -10q-6 -6 -6 -21q0 -6 1 -10t1 -8q4 -8 8 -11q2 -4 10 -4 q10 0 12 4q6 2 6 13h31q-4 -12 -8 -23q-4 -4 -8 -7t-8 -5q-10 -6 -25 -6q-20 0 -35 12q-6 2 -10 16q-4 12 -4 25zM1473 31q0 16 8 24q16 8 24 11l27 4q10 0 10 8q0 14 -18 14q-8 0 -13 -4q-6 -2 -8 -14h-26q0 14 6 24q4 6 16 13q4 4 12 4h13q25 0 32 -4l7.5 -7.5t5.5 -7.5 t2 -14v-72q0 -6 8 -6v-6h-33q-2 0 -2 2v2v2q0 4 -1 5t-1 3l-8 -8q-2 -2 -3 -2t-3 -2t-4 -2q-6 0 -9.5 -1t-7.5 -1t-8 1t-8 1q-4 4 -7 6t-7 6q-4 8 -4 21zM1501 31q0 -8 4 -8q4 -4 11 -5h8l4 2q10 4 10 7q4 8 4 14v14q-6 -6 -12 -6l-14 -4q-6 0 -11 -4q-4 -2 -4 -10z M1511 -168q0 13 2 21q4 12 11 18q6 8 16 12q12 4 25 4q10 0 22 -4l8 -4t9 -6q4 -4 5 -9t5 -9q2 -6 2 -23q0 -16 -6 -29q-4 -14 -17 -20q-12 -6 -28 -6q-20 0 -31 8q-12 6 -18 20q-4 16 -5 27zM1538 -168q0 -14 6 -22q2 -4 8.5 -6.5t12.5 -2.5q16 0 18 9q6 8 6 22q0 13 -6 23 q-4 10 -18 10q-16 0 -21 -10q-6 -10 -6 -23zM1567 1167l28 37l13 23l26 35l2 2q0 4 4 4q0 2 2 2q0 -8 -2 -10l-8 -11l-6 -10q-2 -2 -3 -4t-3 -4l-16 -21l-19 -20l-10 -12q-4 -8 -8 -11zM1585 92v21h14v28h33v-28h19v-21h-19v-61v-8q2 0 4 -1.5t6 -1.5l5 3h4v-25h-19 q-14 0 -20 4q-6 0 -8 8q0 2 -2.5 5t-2.5 8v69h-14zM1636 -115h27v-16q8 18 31 18q8 0 16 -4q6 -4 12 -12q2 8 11 12q8 4 16 4q10 0 23 -4q8 -8 10 -14q4 -8 4 -19v-71h-27v63q0 23 -16 23q-18 0 -19 -23v-63h-26v63v11q0 4 -4 8t-15 4q-16 0 -16 -23v-63h-27v106z" />
<glyph unicode="3" d="M70 -193q0 17 8 23q10 10 20 10l27 4q10 0 10 6q0 16 -16 17q-10 0 -13 -6q-8 -2 -8 -11h-24q0 14 6 21q2 8 12 12q4 2 14 2q4 2 13 2q14 0 26 -4q8 -6 13 -12q2 -4 2 -14v-56q0 -10 2 -12q0 -2 4 -6v-4h-29v2v4q-2 2 -2 6l-8 -8q-4 -2 -6 -2t-4 -2q-4 -2 -13 -2 q-12 0 -18 2q-6 4 -10 10q-6 6 -6 18zM96 -190q0 -4 4 -9q4 -2 6.5 -4t4.5 -2q4 0 6 4h4q8 4 10 6q4 8 4 13v12q-2 0 -10 -4l-12 -2q-4 0 -13 -4q-4 -4 -4 -10zM125 565v494l268 59l-10 37l41 12l-8 39l41 8l-6 46l41 2v41h36l4 36l39 -6l9 41l43 -6l10 39l39 -10l16 37 l39 -17l23 39l34 -18l23 35l37 -25l24 33l35 -27l27 29l26 -25l27 23l27 -29l34 23l23 -37l39 20l18 -35l37 17l17 -41l43 12l12 -39l39 10l8 -43l43 4l2 -26l404 88v-496l-185 -41l4 -2l-24 -26l24 -29l-32 -27l22 -34l-37 -23l23 -37l-35 -20l14 -37l-39 -17l13 -43 l-37 -12l6 -39l-41 -8l2 -43l-39 -4v-39h-35l-6 -37l-39 2l-8 -37l-43 6l-10 -40l-39 12l-14 -39l-44 16l-18 -39l-37 21l-22 -35l-37 23l-25 -33l-30 26l-31 -26l-27 24l-26 -24l-25 31l-35 -23l-24 37l-37 -21l-19 35l-39 -16l-18 41l-39 -13l-12 37l-41 -8l-8 43l-43 -4 l-5 41h-40v35l-35 4l4 41l-41 6l8 43l-41 12l12 37l-28 12zM186 -115h25v-18h2q4 8 6 10t3 4t5 4q2 2 15 2h2h4v-28h-8q-27 0 -27 -25v-55h-27v106zM236 76v16q0 4 2 7t2 7q2 12 14 25q4 6 10 10t12 9q14 6 33 6h6q4 0 8.5 -1t8.5 -1q8 0 14 -7q14 -8 21 -18q4 -4 8 -12 q0 -2 1 -3t1 -3v-5h-33v3q0 2 -4 6q-2 4 -4 5t-6 5q-6 4 -19 4h-8h-6l-14 -12q-10 -6 -11 -15q-4 -8 -4 -28q0 -8 1 -14.5t3 -14.5q2 -10 13 -14q6 -4 10 -6t10 -2h4q12 0 19 4q4 0 7 3l5 5q4 6 6 10t2 10h-37v27h66v-84h-21l-4 20q-6 -8 -14 -14q-4 -4 -9 -5t-10 -3 q-4 0 -9 -1t-9 -1q-12 0 -25 6q-14 6 -20 16q-8 6 -16 27q-4 10 -4 33zM236 702h10l8 5l10 10l8 10l11 10q4 8 8 13l63 86l19 30l20 31q6 8 11.5 15.5t9.5 15.5q4 10 8 17t8 16q2 4 0 6t-4 2q-8 0 -10 -2l-8 -4l-17 -21l-16 -20q-6 -6 -15 -19l-16 -20l-55 -80l-27 -41 q-6 -10 -11 -21.5t-11 -21.5l-4 -6v-4v-4v-3zM262 -78h29v-24h-29v24zM262 -115h29v-106h-29v106zM276 889q2 -4 4.5 -6t6.5 -6l18 -7q14 0 23 2q4 0 4 2q2 2 2 5q0 2 -2 2h-4q-4 0 -4 -2q-14 -2 -29 2q-8 4 -10 8q0 4 -1 5t-1 5q0 6 2 12l6 15l16 18q4 4 10.5 8t12.5 9 q6 4 11 7t13 7l25 12q8 0 14 2t15 6l28 4q16 4 27 5q6 0 22 -5q10 0 15 -6l10 -12v-16q0 -12 -2 -21l-10 -18q-4 -6 -7.5 -11.5t-7.5 -9.5q-4 -6 -9 -10t-11 -10q-4 -6 -21 -19l-22 -14l-25 -10l-14 -6q-2 0 -5 -1t-7 -1h-4q-4 0 -7 -3q-2 0 -2 -2q-4 0 -4 -4q0 -2 2 -2h4 q4 0 7 2h4l26 9l27 12l27 10l26 16l23 17l20 18l17 21q4 4 7 9t5 11q4 12 4 19q2 10 0 18q-2 4 -3 7t-3 7q-6 6 -15 11q-6 2 -10 3t-10 1q-8 2 -23 2q-8 0 -24 -4q-14 0 -27.5 -4t-29.5 -9q-29 -8 -54 -22q-6 -4 -13 -7t-13 -7t-12.5 -8.5t-10.5 -10.5l-9 -9l-9 -9l-9 -21 q-4 -10 0 -16zM317 -115h25v-16q12 18 33 18q8 0 20 -4q6 -4 13 -12q4 -8 4 -21v-71h-29v63q0 12 -2 15q-4 8 -16 8q-8 0 -17 -8q-4 -12 -4 -17v-61h-27v106zM395 57q0 20 6 29q4 14 17 20q8 6 15 7.5t18 1.5q23 0 28 -9q12 -6 19 -22q4 -10 4 -31v-8h-78q0 -6 8 -18 q6 -6 19 -7q4 0 7 1.5t5 1.5q8 8 8 10h31q-6 -12 -10 -21q-4 -4 -8.5 -7t-8.5 -5l-12 -3t-12 -1q-55 0 -56 61zM428 68h45q-4 12 -8 16q-8 8 -14 8q-23 0 -23 -24zM430 -166q0 6 2 12.5t4 12.5q6 14 15 20q8 8 24 8q6 0 19 -4l7 -7t5 -7l2 16h24v-100q0 -10 -4 -27 q-6 -10 -16 -14q-12 -6 -33 -6q-4 0 -9 1t-9 1q-6 2 -19 10q-4 4 -4 8q-2 4 -2 11h27q2 -4 6 -9q2 -2 12 -2q12 0 15 2q8 6 8 9q0 2 1 3t1 3v6v12q-12 -14 -29 -14q-6 0 -11 1t-11 3q-10 8 -17 20q-4 6 -6 13.5t-2 17.5zM461 -168q0 -8 2 -14q0 -4 6 -11q8 -4 12 -4 q25 0 25 29q0 14 -8 23q-4 4 -8.5 7t-8.5 3q-8 0 -14 -10q-6 -6 -6 -23zM498 717q20 0 20 -15v-49q0 -8 10 -22l17 -4q4 -2 18 -2q12 0 25 4q8 4 10 6q8 6 8 22v50l10 8l2 2h9v4h-47v-4h10q2 0 4 -2q12 -4 12 -23v-33q0 -12 -10 -22l-12 -8h-15q-12 0 -18 2q-2 0 -10 8 q-4 4 -4 14v49q0 10 4 11q4 4 14 4h6v4h-63v-4zM510 92v21h16v28h31v-28h16v-21h-16v-61q0 -8 2 -8q0 -2 2 -3h8l2 3h2v-25h-16q-14 0 -20 4q-6 0 -9 8q-2 2 -2 13v69h-16zM510 821q2 -8 10 -12q10 -10 23 -6q14 0 26 6q10 2 17.5 6t15.5 8t15.5 9.5t15.5 13.5l24 20l15 15 q0 2 4 6q0 2 2 4l4 6l16 16l15 21q6 4 10 10t8 10l6 -2l4 -6q0 -2 2 -4v-2q0 -2 -2 -4t-4 -6l-16 -17l-14 -20l-13 -19l-4 -18q-2 -2 -2 -8v-6l4 -8h8q10 0 17 2l16 10q4 4 10.5 8t10.5 10q6 4 10 8.5t8 8.5q2 4 4 6t4 6l8 10l5 4l4 6q4 4 4 5l12 16l21 31q0 -4 1 -7.5 t1 -7.5q4 -12 4 -14l4 -8q-16 -4 -25 -13l-20 -14q-4 -4 -7.5 -9t-5.5 -9q-2 -6 -2 -17q0 -6 11 -10h18q12 0 25 8q16 8 22 17q6 4 9 8t8 8l8 18q6 8 6 19v16q0 6 -4 15l-6 16l-7 6q0 4 -4 8q0 2 -2 4v7v4h-8l-4 -4q-4 -2 -6 -4.5t-6 -4.5l-4 -12l-2 -2l-4 -6l-33 -45l-4 -6 l-6 -11h-3v-2q-2 0 -4 -2l-4 -8l-6 -8l-14 -18l-23 -21q-4 -4 -12 -6q-4 -4 -12 -4v2l8 10l6 10l8 11q4 4 6 8l9 14l10 14l4 15q2 6 2 14q-2 2 -2 8l-2 4q0 4 -2 7v22l6 10q4 6 -4 13q-4 6 -17 0q-10 -2 -16 -9q-6 -2 -10 -12q-4 -4 -4 -10q0 -8 2 -12l4 -2l4 -5l-6 -6 l-6 -6l-23 -31l-20 -22q-4 0 -4 -4v-2l-2 -2q0 -2 -2 -2l-11 -15q-8 -6 -14 -12t-14 -10q-12 -12 -33 -23q-12 -4 -21 -8q-12 -4 -18 -2q-6 0 -6 4q-2 2 -2 6q0 2 4 11l2 8l10 16q4 -2 12 -2h19q10 2 26 12q6 2 11.5 6.5t13.5 8.5l14 16q4 4 7.5 8t3.5 8l8 13q0 12 -4 14 q-4 8 -8 10h-19h-9t-9 -4q-4 -2 -10.5 -4t-10.5 -4q-27 -14 -45 -29q-18 -16 -29 -34q-4 -4 -6 -9.5t-6 -11.5q-6 -8 -8 -18v-17zM545 -115h14v27h29v-27h16v-20h-16v-55q0 -6 2 -9q0 -2 2 -2h6l4 2h2v-22h-6h-6h-4q-12 0 -17 2q-10 4 -10 8q-2 2 -2 12v64h-14v20zM567 870 l15 23l18 20l6 9q4 4 6 5t4 3l11 10l12 4q8 2 14 0v-10l-6 -8q-6 -6 -6 -11q-4 -4 -5 -6t-5 -4q0 -2 -8 -10q-2 -2 -3.5 -4t-5.5 -4q-4 -4 -6 -5t-4 -3l-12 -9q-6 -2 -12 -2q-10 0 -13 2zM610 -115h33l21 -78l20 78h31l-35 -102l-2 -2l-8 -23q-4 -10 -6 -12q-6 -6 -11 -6 q-4 0 -7 -1t-7 -1h-6h-8v22h8h8q2 0 6 4v5q2 2 2 6l-37 102zM639 694q0 -2 4 -10q0 -6 6 -6l13 -6q2 -2 20 -6l8 -2q8 -4 12 -5q4 0 9 -4q2 0 2 -2q6 -4 6 -10l-4 -8q-2 -4 -8 -6h-11q-10 0 -16 2l-16 6l-11 10q-10 10 -10 21h-2v-43h2q0 6 4 6q4 4 8 4q2 0 2 -1t5 -1 q2 0 3 -1t3 -1l14 -4q4 -2 14 -2q4 0 17 4q2 0 12 6q2 2 2 4t4 4v21l-6 6q-2 4 -12 8l-17 6h-10l-2 2q-4 2 -8 2t-6 2q-6 0 -8 2q-2 0 -7 4q-2 0 -2 4v2v9l4 4l9 4q2 0 4 1t6 1q6 0 14 -4q8 0 12 -4q8 -4 11 -8q4 -2 5 -7.5t5 -9.5h2v31h-2q-2 -6 -8 -6h-8q-16 10 -31 10 q-8 0 -21 -4l-12 -8q-2 -4 -3 -7.5t-1 -9.5zM641 92v21h14v8q0 33 35 33h15v-25h-9h-6q-4 0 -4 -4v-12h19v-21h-19v-94h-31v94h-14zM723 37v76h29v-70q0 -20 20 -20h10l11 10q0 2 2 5t2 7v68h26v-115h-26v16q-6 -8 -15 -12q-12 -6 -20 -6q-20 0 -29 12q-10 8 -10 29z M731 -115h25v-16h4q2 0 4 2l8 8q4 4 8 6q2 2 8 2q10 0 17 -4q8 -4 12 -8q8 -8 10 -20q6 -10 7 -23q0 -4 -1.5 -6t-1.5 -6t-2 -6t-4 -7q-4 -16 -12 -22q-10 -8 -25 -8q-10 0 -14 2t-8 6q-2 2 -6 2l-2 4v-51h-27v100v45zM741 627h103v39q-4 -4 -4 -7.5t-2 -5.5l-11 -14 q-6 -6 -8 -6l-10 -2q-4 -2 -12 -2h-15v41h2q8 0 19 -6l4 -7q0 -2 1 -3t1 -3v-8h2v59h-2v-8l-4 -10q-10 -10 -19 -10h-4v43h17q16 0 22 -2l8 -6l5 -11l6 -14h4v37h-103v-4h4q8 0 11 -4q6 0 6 -11v-57q0 -16 -17 -16h-4v-2zM756 -170q0 -14 8 -20q6 -8 16 -9q12 0 19 9 q4 12 4 22t-4 23q-4 4 -8.5 7t-10.5 3q-25 0 -24 -35zM793 868v9l4 10l6 8q8 10 18 18l23 11q0 -4 1 -6.5t1 -4.5q-2 -4 -2 -8v-12l-4 -8q-2 -4 -4 -5t-5 -6l-8 -6q-2 0 -3 -1t-5 -1q-2 -2 -8 -2q-4 -4 -8 0q-2 0 -6 4zM844 -166q0 17 4 25q6 14 16 20q10 8 27 8q23 0 31 -8 q10 -6 16 -22q4 -16 4 -27v-6h-72q0 -12 7 -19q6 -6 16 -6q6 0 14 4q4 4 6 9h27q-4 -16 -8 -21q-4 -4 -8 -6t-9 -4q-12 -4 -22 -4q-49 0 -49 57zM852 -2v156h29v-156h-29zM870 -158h43q0 10 -6 17q-4 2 -7 4t-9 2q-16 0 -21 -23zM903 -2v156h29v-156h-29zM905 674 q0 -14 4 -21q4 -4 6.5 -7t6.5 -7q6 -6 18 -10q6 -2 11 -3t12 -1q16 0 26 6q8 4 13.5 9t9.5 9q6 8 6 25q0 10 -4 16q-4 12 -10 17q-4 6 -19 10q-12 6 -22 6q-20 0 -29 -8q-8 -2 -12 -7.5t-9 -9.5q-8 -10 -8 -24zM915 901q0 -8 5 -8q4 -4 6 -5t4 -3h10h12q8 2 14.5 4t12.5 4 l27 14l22 21l19 16l14 21l10 16l6 18q4 10 0 15q0 6 -6 10q0 4 -10 8q-2 0 -6 1t-8 1q-6 0 -19 -4q-4 0 -6 -1l-6 -3l-12 -4l-25 -16q-6 -4 -11 -9.5t-12 -9.5l-16 -18l-12 -19q-10 -16 -13 -26v-23zM928 674q0 4 1 8t1 8l6 12q2 2 3 5.5t3 5.5t4 2t6 2q4 4 13 4q0 -2 2 -2 h4l6 -4l10 -8q0 -4 2 -7.5t4 -9.5q0 -2 1 -7t1 -9q0 -12 -4 -25q-4 -4 -6 -9t-6 -9q-4 -2 -16 -2q-10 0 -13 2q-8 0 -12 10l-6 12q-4 12 -4 21zM940 895v8v4q4 14 10 21q4 6 7.5 11t7.5 11l10 13l8 10l16 20l9.5 9.5l9.5 9.5l8 8l10 4q4 2 11 2l4 -2q2 -2 2 -8q0 -2 -4 -10 l-5 -9l-6 -10q-4 -8 -6 -10l-8 -12l-12 -19l-17 -18l-20 -21q0 -2 -10 -6q-2 -4 -13 -8h-8q-4 0 -4 2zM948 -115h17v9q0 29 30 28h13v-22h-7h-6l-2 -2l-2 -9v-4h19v-20h-19v-86h-26v86h-17v20zM1010 92v21h14v8q0 33 35 33h12v-25h-6h-6q-2 0 -4 -4v-12h20v-21h-20v-94h-31 v94h-14zM1018 -193q0 17 10 23q10 10 21 10l24 4q8 0 8 6q0 16 -14 17q-10 0 -12 -6q-6 -4 -6 -11h-27q0 14 6 21q6 10 14 12q4 2 11 2q4 2 14 2t16.5 -1t12.5 -3q8 -6 12 -12q2 -4 2 -14v-56q0 -10 2 -12q0 -2 4 -6v-4h-31v2q0 2 -1 2t-1 2v6q-4 -2 -5 -4t-3 -4 q-4 -2 -6 -2t-4 -2q-4 -2 -14 -2q-8 0 -15 2q-4 2 -7 4t-7 6q-4 8 -4 18zM1032 627h49v2q-6 0 -10 2h-8l-4 10q-2 2 -2 12v56l80 -82h4v65q0 8 1 12.5t3 8.5q4 4 16 4v4h-47v-4h8q0 -2 4 -2q6 -4 7 -8q4 -4 4 -15v-39l-66 68h-37v-4q8 0 10 -2q2 0 3.5 -1t3.5 -1q2 -4 2 -11 v-53q0 -6 -2 -10t-7 -8q-4 0 -7 -1t-5 -1v-2zM1047 -190q0 -4 4 -9q6 -6 8 -6q4 0 6 4h4q4 2 5 3t5 3q2 4 2 13v12l-8 -4l-14 -2q-4 0 -8 -4t-4 -10zM1051 905q2 0 3 -1t3 -1q4 0 8 2l8 4q0 2 4 6q2 0 2 1.5t2 1.5l4 6q0 4 5 4l16 22l20 21l17 20l22 21l21 20l8 8q4 2 10 9 l10 8l13 4q2 0 2 -2h-2l-4 -4q-2 -6 -9 -8l-4 -7l-12 -14q-4 -4 -6 -7t-6 -7q-10 -12 -15 -23l-14 -20q-2 -4 -3 -9.5t-3 -9.5q-4 -10 0 -16q2 -6 8 -6h19q4 2 9 5t13 7q12 8 19 14l20 21l2 2q-2 -2 -2 -6q0 -6 4 -15q2 -4 10 -8q6 -2 21 2q12 2 24 13l21 14l7 7l7 7l13 13 v-5q0 -2 -1.5 -3t-1.5 -3v-6q-4 -6 0 -10q0 -2 1.5 -3t1.5 -3q0 -6 6 -6h6h10l6 4l8 6l13 6l32 27l17 16l-4 -12q-4 -6 -4 -19v-6q2 0 4 -2q0 -2 6 -2q4 0 8 4q8 0 12 6l11 6l12 13q2 0 10 8l9 9t10 9l18 21v4q0 2 -2 2q-4 0 -8 -4l-2 -4l-13 -15l-10 -12q-10 -6 -12 -12 l-14 -12l-9 -7l-8 -2l-2 -2q-2 0 -4 2h2l8 15q4 8 8 12l7 12q4 2 8 11l63 92q10 10 13 16l16 16l37 43q10 10 17 20.5t16 20.5l10 19v8q-2 2 -8 2q-2 0 -11 -4q-4 0 -6 -2t-6 -4q-4 0 -10 -6l-8 -6q-6 -4 -11.5 -9.5t-11.5 -9.5l-16 -18q-6 -6 -10.5 -11.5t-8.5 -11.5 q-2 -4 -6 -9t-8 -11q-16 -23 -27 -41l-26 -45l-19 -33l-8 -16h-2l-14 -15q-4 -6 -8.5 -10t-10.5 -10l-18 -17l-10 -8l-7 -4l-4 -2l-4 -4h-6h-4l6 10l6 10q0 2 2 4q4 8 8.5 14.5t10.5 12.5q4 6 8 13.5t8 15.5l15 20l8 13q2 4 3 5t3 5l2 2l2 2q0 2 1 2t1 2q6 4 4 8q0 2 -6 2 l-10 -4l-10 -6l-19 -12q-8 -8 -14 -13q0 6 -2 11q0 2 -6 6q-12 2 -21 0q-16 -4 -22 -8q-8 -4 -13.5 -6.5t-11.5 -6.5q-8 -6 -18 -16q-27 -18 -37 -39q-14 -16 -21 -37h-4q-4 -6 -16 -18q-6 -4 -11.5 -8.5t-11.5 -8.5q-2 -4 -12 -8q-4 -4 -10 -4h-2q-2 2 0 4l6 8l6 11l12 14 l21 27q4 6 9 13t9 15l8 17q4 10 2 16q0 6 -2 6q0 4 -6 4t-8 -2l-12 -4l-13 -8q-4 -2 -10 -8q-4 -4 -6 -5t-4 -4q-8 -8 -12 -8l-21 -22q-4 -4 -9 -9.5t-9 -9.5l-11 -12l-10 -10l2 4l25 35l26 37q0 2 1.5 2t1.5 2q2 2 2 4q2 2 2 6l-7 6q-2 0 -3 1t-3 1t-4 -1t-6 -1l-10 -6 l-4 -4q-4 -2 -4 -4t-2 -4l-5 -7l-77 -133q-2 -2 -2 -4v-2zM1083 55q0 6 1 11.5t3 11.5q2 10 11 18q10 10 20 15q6 4 25 4q16 0 24 -4q4 -4 8.5 -5.5t8.5 -5.5t6 -9t6 -11q4 -12 4 -25q0 -16 -8 -30q-2 -8 -18 -21q-10 -8 -31 -8q-20 0 -35 8q-6 4 -10 10t-8 13q-6 12 -7 28z M1114 55q0 -8 2 -13t4 -9q4 -10 23 -10q16 0 20 10q6 6 6 22q0 14 -6 25q-6 10 -20 10q-16 0 -23 -10q-2 -4 -4 -10.5t-2 -14.5zM1128 -170q1 16 11 41q12 16 39 16q10 0 22 -4q8 -2 17 -14q4 -6 7 -11t3 -12h-31q0 4 -4 13q-6 6 -12 6q-10 0 -17 -10q-8 -6 -8 -21 q0 -6 1 -10t1 -8q4 -4 5 -6.5t3 -4.5q4 -4 13 -4q8 0 12 4q6 2 6 13h27q0 -10 -6 -23q-4 -4 -7.5 -7t-7.5 -5q-12 -6 -24 -6q-23 0 -35 12q-6 2 -10 16q-4 12 -5 25zM1167 627h107v41h-2q-4 -4 -4 -6.5t-2 -6.5q-4 -4 -4 -8q-2 -2 -2 -3t-3 -3q-8 -8 -12 -10q-2 0 -6 -1 t-8 -1h-25v73q0 10 6 11q2 4 13 4h6v4h-64v-4h4q16 0 17 -15v-57q0 -16 -17 -16h-4v-2zM1221 -2v115h28v-17q12 18 35 19q14 0 21 -4l14 -13q4 -12 4 -20v-80h-29v70q0 8 -4 16q-6 6 -16 6q-12 0 -19 -8q-4 -4 -4 -19v-65h-30zM1237 -166q0 9 4 25q6 14 16 20q10 8 29 8 q20 0 29 -8q10 -6 14 -22q6 -12 6 -27v-6h-71q0 -12 6 -19q6 -6 16 -6q6 0 14 4q4 4 7 9h26q-4 -16 -10 -21q-8 -8 -14 -10q-12 -4 -23 -4q-49 0 -49 57zM1264 -158h43q0 10 -7 17q-4 2 -7 4t-9 2q-16 0 -20 -23zM1266 963l2 2q0 2 2 4q4 8 6 10l8 10q2 8 6 12q2 4 8 11 l19 24l26 33l7 8l8 6l8 7q2 2 8 2q4 2 8 2l7 -4q0 -2 1 -3.5t1 -3.5q0 -4 -2 -8q0 -2 -5 -6l-16 -22l-12 -23l-17 -14l-16 -19q-2 -2 -4 -3t-6 -5l-13 -10q-2 -2 -4 -3t-6 -5q-4 0 -5 -2t-5 -2q-8 -4 -10 -3h-2q-2 2 -2 5zM1268 717h2q10 0 14 -2l4 -4t4 -6l29 -39v-21 q0 -10 -2 -12q-8 -4 -14 -4h-7v-2h68v2h-8q-8 0 -12 4t-5 12v23l25 34l4 7q8 4 10 4q0 2 4 2q2 0 3.5 1t3.5 1h2v4h-47v-4h6q8 0 10 -2q4 -2 4 -6t-6 -11l-19 -26l-24 30q-4 8 -4 9v2q0 2 2 2q0 2 6 2h8v4h-61v-4zM1337 92v21h19v28h26v-28h21v-21h-21v-61v-6q0 -2 2 -2 q4 0 5.5 -1.5t5.5 -1.5l4 3h4v-25h-21q-14 0 -16 4q-8 0 -10 8v82h-19zM1352 -190h30v-31h-30v31zM1401 -170q0 16 10 41q12 16 39 16q10 0 23 -4q6 -2 18 -14q8 -10 8 -23h-29l-6 13q-6 6 -12 6q-10 0 -16 -10q-6 -6 -6 -21q0 -6 1 -10t1 -8q4 -8 8 -11q2 -4 10 -4 q10 0 12 4q6 2 6 13h31q-4 -12 -8 -23q-4 -4 -8 -7t-8 -5q-10 -6 -25 -6q-20 0 -35 12q-6 2 -10 16q-4 12 -4 25zM1473 31q0 16 8 24q16 8 24 11l27 4q10 0 10 8q0 14 -18 14q-8 0 -13 -4q-6 -2 -8 -14h-26q0 14 6 24q4 6 16 13q4 4 12 4h13q25 0 32 -4l7.5 -7.5t5.5 -7.5 t2 -14v-72q0 -6 8 -6v-6h-33q-2 0 -2 2v2v2q0 4 -1 5t-1 3l-8 -8q-2 -2 -3 -2t-3 -2t-4 -2q-6 0 -9.5 -1t-7.5 -1t-8 1t-8 1q-4 4 -7 6t-7 6q-4 8 -4 21zM1501 31q0 -8 4 -8q4 -4 11 -5h8l4 2q10 4 10 7q4 8 4 14v14q-6 -6 -12 -6l-14 -4q-6 0 -11 -4q-4 -2 -4 -10z M1511 -168q0 13 2 21q4 12 11 18q6 8 16 12q12 4 25 4q10 0 22 -4l8 -4t9 -6q4 -4 5 -9t5 -9q2 -6 2 -23q0 -16 -6 -29q-4 -14 -17 -20q-12 -6 -28 -6q-20 0 -31 8q-12 6 -18 20q-4 16 -5 27zM1538 -168q0 -14 6 -22q2 -4 8.5 -6.5t12.5 -2.5q16 0 18 9q6 8 6 22q0 13 -6 23 q-4 10 -18 10q-16 0 -21 -10q-6 -10 -6 -23zM1567 1167l28 37l13 23l26 35l2 2q0 4 4 4q0 2 2 2q0 -8 -2 -10l-8 -11l-6 -10q-2 -2 -3 -4t-3 -4l-16 -21l-19 -20l-10 -12q-4 -8 -8 -11zM1585 92v21h14v28h33v-28h19v-21h-19v-61v-8q2 0 4 -1.5t6 -1.5l5 3h4v-25h-19 q-14 0 -20 4q-6 0 -8 8q0 2 -2.5 5t-2.5 8v69h-14zM1636 -115h27v-16q8 18 31 18q8 0 16 -4q6 -4 12 -12q2 8 11 12q8 4 16 4q10 0 23 -4q8 -8 10 -14q4 -8 4 -19v-71h-27v63q0 23 -16 23q-18 0 -19 -23v-63h-26v63v11q0 4 -4 8t-15 4q-16 0 -16 -23v-63h-27v106z" />
<glyph unicode="4" d="M70 -193q0 17 8 23q10 10 20 10l27 4q10 0 10 6q0 16 -16 17q-10 0 -13 -6q-8 -2 -8 -11h-24q0 14 6 21q2 8 12 12q4 2 14 2q4 2 13 2q14 0 26 -4q8 -6 13 -12q2 -4 2 -14v-56q0 -10 2 -12q0 -2 4 -6v-4h-29v2v4q-2 2 -2 6l-8 -8q-4 -2 -6 -2t-4 -2q-4 -2 -13 -2 q-12 0 -18 2q-6 4 -10 10q-6 6 -6 18zM96 -190q0 -4 4 -9q4 -2 6.5 -4t4.5 -2q4 0 6 4h4q8 4 10 6q4 8 4 13v12q-2 0 -10 -4l-12 -2q-4 0 -13 -4q-4 -4 -4 -10zM125 565v494l268 59l-10 37l41 12l-8 39l41 8l-6 46l41 2v41h36l4 36l39 -6l9 41l43 -6l10 39l39 -10l16 37 l39 -17l23 39l34 -18l23 35l37 -25l24 33l35 -27l27 29l26 -25l27 23l27 -29l34 23l23 -37l39 20l18 -35l37 17l17 -41l43 12l12 -39l39 10l8 -43l43 4l2 -26l404 88v-496l-185 -41l4 -2l-24 -26l24 -29l-32 -27l22 -34l-37 -23l23 -37l-35 -20l14 -37l-39 -17l13 -43 l-37 -12l6 -39l-41 -8l2 -43l-39 -4v-39h-35l-6 -37l-39 2l-8 -37l-43 6l-10 -40l-39 12l-14 -39l-44 16l-18 -39l-37 21l-22 -35l-37 23l-25 -33l-30 26l-31 -26l-27 24l-26 -24l-25 31l-35 -23l-24 37l-37 -21l-19 35l-39 -16l-18 41l-39 -13l-12 37l-41 -8l-8 43l-43 -4 l-5 41h-40v35l-35 4l4 41l-41 6l8 43l-41 12l12 37l-28 12zM186 -115h25v-18h2q4 8 6 10t3 4t5 4q2 2 15 2h2h4v-28h-8q-27 0 -27 -25v-55h-27v106zM236 76v16q0 4 2 7t2 7q2 12 14 25q4 6 10 10t12 9q14 6 33 6h6q4 0 8.5 -1t8.5 -1q8 0 14 -7q14 -8 21 -18q4 -4 8 -12 q0 -2 1 -3t1 -3v-5h-33v3q0 2 -4 6q-2 4 -4 5t-6 5q-6 4 -19 4h-8h-6l-14 -12q-10 -6 -11 -15q-4 -8 -4 -28q0 -8 1 -14.5t3 -14.5q2 -10 13 -14q6 -4 10 -6t10 -2h4q12 0 19 4q4 0 7 3l5 5q4 6 6 10t2 10h-37v27h66v-84h-21l-4 20q-6 -8 -14 -14q-4 -4 -9 -5t-10 -3 q-4 0 -9 -1t-9 -1q-12 0 -25 6q-14 6 -20 16q-8 6 -16 27q-4 10 -4 33zM236 702h10l8 5l10 10l8 10l11 10q4 8 8 13l63 86l19 30l20 31q6 8 11.5 15.5t9.5 15.5q4 10 8 17t8 16q2 4 0 6t-4 2q-8 0 -10 -2l-8 -4l-17 -21l-16 -20q-6 -6 -15 -19l-16 -20l-55 -80l-27 -41 q-6 -10 -11 -21.5t-11 -21.5l-4 -6v-4v-4v-3zM262 -78h29v-24h-29v24zM262 -115h29v-106h-29v106zM276 889q2 -4 4.5 -6t6.5 -6l18 -7q14 0 23 2q4 0 4 2q2 2 2 5q0 2 -2 2h-4q-4 0 -4 -2q-14 -2 -29 2q-8 4 -10 8q0 4 -1 5t-1 5q0 6 2 12l6 15l16 18q4 4 10.5 8t12.5 9 q6 4 11 7t13 7l25 12q8 0 14 2t15 6l28 4q16 4 27 5q6 0 22 -5q10 0 15 -6l10 -12v-16q0 -12 -2 -21l-10 -18q-4 -6 -7.5 -11.5t-7.5 -9.5q-4 -6 -9 -10t-11 -10q-4 -6 -21 -19l-22 -14l-25 -10l-14 -6q-2 0 -5 -1t-7 -1h-4q-4 0 -7 -3q-2 0 -2 -2q-4 0 -4 -4q0 -2 2 -2h4 q4 0 7 2h4l26 9l27 12l27 10l26 16l23 17l20 18l17 21q4 4 7 9t5 11q4 12 4 19q2 10 0 18q-2 4 -3 7t-3 7q-6 6 -15 11q-6 2 -10 3t-10 1q-8 2 -23 2q-8 0 -24 -4q-14 0 -27.5 -4t-29.5 -9q-29 -8 -54 -22q-6 -4 -13 -7t-13 -7t-12.5 -8.5t-10.5 -10.5l-9 -9l-9 -9l-9 -21 q-4 -10 0 -16zM317 -115h25v-16q12 18 33 18q8 0 20 -4q6 -4 13 -12q4 -8 4 -21v-71h-29v63q0 12 -2 15q-4 8 -16 8q-8 0 -17 -8q-4 -12 -4 -17v-61h-27v106zM395 57q0 20 6 29q4 14 17 20q8 6 15 7.5t18 1.5q23 0 28 -9q12 -6 19 -22q4 -10 4 -31v-8h-78q0 -6 8 -18 q6 -6 19 -7q4 0 7 1.5t5 1.5q8 8 8 10h31q-6 -12 -10 -21q-4 -4 -8.5 -7t-8.5 -5l-12 -3t-12 -1q-55 0 -56 61zM428 68h45q-4 12 -8 16q-8 8 -14 8q-23 0 -23 -24zM430 -166q0 6 2 12.5t4 12.5q6 14 15 20q8 8 24 8q6 0 19 -4l7 -7t5 -7l2 16h24v-100q0 -10 -4 -27 q-6 -10 -16 -14q-12 -6 -33 -6q-4 0 -9 1t-9 1q-6 2 -19 10q-4 4 -4 8q-2 4 -2 11h27q2 -4 6 -9q2 -2 12 -2q12 0 15 2q8 6 8 9q0 2 1 3t1 3v6v12q-12 -14 -29 -14q-6 0 -11 1t-11 3q-10 8 -17 20q-4 6 -6 13.5t-2 17.5zM461 -168q0 -8 2 -14q0 -4 6 -11q8 -4 12 -4 q25 0 25 29q0 14 -8 23q-4 4 -8.5 7t-8.5 3q-8 0 -14 -10q-6 -6 -6 -23zM498 717q20 0 20 -15v-49q0 -8 10 -22l17 -4q4 -2 18 -2q12 0 25 4q8 4 10 6q8 6 8 22v50l10 8l2 2h9v4h-47v-4h10q2 0 4 -2q12 -4 12 -23v-33q0 -12 -10 -22l-12 -8h-15q-12 0 -18 2q-2 0 -10 8 q-4 4 -4 14v49q0 10 4 11q4 4 14 4h6v4h-63v-4zM510 92v21h16v28h31v-28h16v-21h-16v-61q0 -8 2 -8q0 -2 2 -3h8l2 3h2v-25h-16q-14 0 -20 4q-6 0 -9 8q-2 2 -2 13v69h-16zM510 821q2 -8 10 -12q10 -10 23 -6q14 0 26 6q10 2 17.5 6t15.5 8t15.5 9.5t15.5 13.5l24 20l15 15 q0 2 4 6q0 2 2 4l4 6l16 16l15 21q6 4 10 10t8 10l6 -2l4 -6q0 -2 2 -4v-2q0 -2 -2 -4t-4 -6l-16 -17l-14 -20l-13 -19l-4 -18q-2 -2 -2 -8v-6l4 -8h8q10 0 17 2l16 10q4 4 10.5 8t10.5 10q6 4 10 8.5t8 8.5q2 4 4 6t4 6l8 10l5 4l4 6q4 4 4 5l12 16l21 31q0 -4 1 -7.5 t1 -7.5q4 -12 4 -14l4 -8q-16 -4 -25 -13l-20 -14q-4 -4 -7.5 -9t-5.5 -9q-2 -6 -2 -17q0 -6 11 -10h18q12 0 25 8q16 8 22 17q6 4 9 8t8 8l8 18q6 8 6 19v16q0 6 -4 15l-6 16l-7 6q0 4 -4 8q0 2 -2 4v7v4h-8l-4 -4q-4 -2 -6 -4.5t-6 -4.5l-4 -12l-2 -2l-4 -6l-33 -45l-4 -6 l-6 -11h-3v-2q-2 0 -4 -2l-4 -8l-6 -8l-14 -18l-23 -21q-4 -4 -12 -6q-4 -4 -12 -4v2l8 10l6 10l8 11q4 4 6 8l9 14l10 14l4 15q2 6 2 14q-2 2 -2 8l-2 4q0 4 -2 7v22l6 10q4 6 -4 13q-4 6 -17 0q-10 -2 -16 -9q-6 -2 -10 -12q-4 -4 -4 -10q0 -8 2 -12l4 -2l4 -5l-6 -6 l-6 -6l-23 -31l-20 -22q-4 0 -4 -4v-2l-2 -2q0 -2 -2 -2l-11 -15q-8 -6 -14 -12t-14 -10q-12 -12 -33 -23q-12 -4 -21 -8q-12 -4 -18 -2q-6 0 -6 4q-2 2 -2 6q0 2 4 11l2 8l10 16q4 -2 12 -2h19q10 2 26 12q6 2 11.5 6.5t13.5 8.5l14 16q4 4 7.5 8t3.5 8l8 13q0 12 -4 14 q-4 8 -8 10h-19h-9t-9 -4q-4 -2 -10.5 -4t-10.5 -4q-27 -14 -45 -29q-18 -16 -29 -34q-4 -4 -6 -9.5t-6 -11.5q-6 -8 -8 -18v-17zM545 -115h14v27h29v-27h16v-20h-16v-55q0 -6 2 -9q0 -2 2 -2h6l4 2h2v-22h-6h-6h-4q-12 0 -17 2q-10 4 -10 8q-2 2 -2 12v64h-14v20zM567 870 l15 23l18 20l6 9q4 4 6 5t4 3l11 10l12 4q8 2 14 0v-10l-6 -8q-6 -6 -6 -11q-4 -4 -5 -6t-5 -4q0 -2 -8 -10q-2 -2 -3.5 -4t-5.5 -4q-4 -4 -6 -5t-4 -3l-12 -9q-6 -2 -12 -2q-10 0 -13 2zM610 -115h33l21 -78l20 78h31l-35 -102l-2 -2l-8 -23q-4 -10 -6 -12q-6 -6 -11 -6 q-4 0 -7 -1t-7 -1h-6h-8v22h8h8q2 0 6 4v5q2 2 2 6l-37 102zM639 694q0 -2 4 -10q0 -6 6 -6l13 -6q2 -2 20 -6l8 -2q8 -4 12 -5q4 0 9 -4q2 0 2 -2q6 -4 6 -10l-4 -8q-2 -4 -8 -6h-11q-10 0 -16 2l-16 6l-11 10q-10 10 -10 21h-2v-43h2q0 6 4 6q4 4 8 4q2 0 2 -1t5 -1 q2 0 3 -1t3 -1l14 -4q4 -2 14 -2q4 0 17 4q2 0 12 6q2 2 2 4t4 4v21l-6 6q-2 4 -12 8l-17 6h-10l-2 2q-4 2 -8 2t-6 2q-6 0 -8 2q-2 0 -7 4q-2 0 -2 4v2v9l4 4l9 4q2 0 4 1t6 1q6 0 14 -4q8 0 12 -4q8 -4 11 -8q4 -2 5 -7.5t5 -9.5h2v31h-2q-2 -6 -8 -6h-8q-16 10 -31 10 q-8 0 -21 -4l-12 -8q-2 -4 -3 -7.5t-1 -9.5zM641 92v21h14v8q0 33 35 33h15v-25h-9h-6q-4 0 -4 -4v-12h19v-21h-19v-94h-31v94h-14zM723 37v76h29v-70q0 -20 20 -20h10l11 10q0 2 2 5t2 7v68h26v-115h-26v16q-6 -8 -15 -12q-12 -6 -20 -6q-20 0 -29 12q-10 8 -10 29z M731 -115h25v-16h4q2 0 4 2l8 8q4 4 8 6q2 2 8 2q10 0 17 -4q8 -4 12 -8q8 -8 10 -20q6 -10 7 -23q0 -4 -1.5 -6t-1.5 -6t-2 -6t-4 -7q-4 -16 -12 -22q-10 -8 -25 -8q-10 0 -14 2t-8 6q-2 2 -6 2l-2 4v-51h-27v100v45zM741 627h103v39q-4 -4 -4 -7.5t-2 -5.5l-11 -14 q-6 -6 -8 -6l-10 -2q-4 -2 -12 -2h-15v41h2q8 0 19 -6l4 -7q0 -2 1 -3t1 -3v-8h2v59h-2v-8l-4 -10q-10 -10 -19 -10h-4v43h17q16 0 22 -2l8 -6l5 -11l6 -14h4v37h-103v-4h4q8 0 11 -4q6 0 6 -11v-57q0 -16 -17 -16h-4v-2zM756 -170q0 -14 8 -20q6 -8 16 -9q12 0 19 9 q4 12 4 22t-4 23q-4 4 -8.5 7t-10.5 3q-25 0 -24 -35zM793 868v9l4 10l6 8q8 10 18 18l23 11q0 -4 1 -6.5t1 -4.5q-2 -4 -2 -8v-12l-4 -8q-2 -4 -4 -5t-5 -6l-8 -6q-2 0 -3 -1t-5 -1q-2 -2 -8 -2q-4 -4 -8 0q-2 0 -6 4zM844 -166q0 17 4 25q6 14 16 20q10 8 27 8q23 0 31 -8 q10 -6 16 -22q4 -16 4 -27v-6h-72q0 -12 7 -19q6 -6 16 -6q6 0 14 4q4 4 6 9h27q-4 -16 -8 -21q-4 -4 -8 -6t-9 -4q-12 -4 -22 -4q-49 0 -49 57zM852 -2v156h29v-156h-29zM870 -158h43q0 10 -6 17q-4 2 -7 4t-9 2q-16 0 -21 -23zM903 -2v156h29v-156h-29zM905 674 q0 -14 4 -21q4 -4 6.5 -7t6.5 -7q6 -6 18 -10q6 -2 11 -3t12 -1q16 0 26 6q8 4 13.5 9t9.5 9q6 8 6 25q0 10 -4 16q-4 12 -10 17q-4 6 -19 10q-12 6 -22 6q-20 0 -29 -8q-8 -2 -12 -7.5t-9 -9.5q-8 -10 -8 -24zM915 901q0 -8 5 -8q4 -4 6 -5t4 -3h10h12q8 2 14.5 4t12.5 4 l27 14l22 21l19 16l14 21l10 16l6 18q4 10 0 15q0 6 -6 10q0 4 -10 8q-2 0 -6 1t-8 1q-6 0 -19 -4q-4 0 -6 -1l-6 -3l-12 -4l-25 -16q-6 -4 -11 -9.5t-12 -9.5l-16 -18l-12 -19q-10 -16 -13 -26v-23zM928 674q0 4 1 8t1 8l6 12q2 2 3 5.5t3 5.5t4 2t6 2q4 4 13 4q0 -2 2 -2 h4l6 -4l10 -8q0 -4 2 -7.5t4 -9.5q0 -2 1 -7t1 -9q0 -12 -4 -25q-4 -4 -6 -9t-6 -9q-4 -2 -16 -2q-10 0 -13 2q-8 0 -12 10l-6 12q-4 12 -4 21zM940 895v8v4q4 14 10 21q4 6 7.5 11t7.5 11l10 13l8 10l16 20l9.5 9.5l9.5 9.5l8 8l10 4q4 2 11 2l4 -2q2 -2 2 -8q0 -2 -4 -10 l-5 -9l-6 -10q-4 -8 -6 -10l-8 -12l-12 -19l-17 -18l-20 -21q0 -2 -10 -6q-2 -4 -13 -8h-8q-4 0 -4 2zM948 -115h17v9q0 29 30 28h13v-22h-7h-6l-2 -2l-2 -9v-4h19v-20h-19v-86h-26v86h-17v20zM1010 92v21h14v8q0 33 35 33h12v-25h-6h-6q-2 0 -4 -4v-12h20v-21h-20v-94h-31 v94h-14zM1018 -193q0 17 10 23q10 10 21 10l24 4q8 0 8 6q0 16 -14 17q-10 0 -12 -6q-6 -4 -6 -11h-27q0 14 6 21q6 10 14 12q4 2 11 2q4 2 14 2t16.5 -1t12.5 -3q8 -6 12 -12q2 -4 2 -14v-56q0 -10 2 -12q0 -2 4 -6v-4h-31v2q0 2 -1 2t-1 2v6q-4 -2 -5 -4t-3 -4 q-4 -2 -6 -2t-4 -2q-4 -2 -14 -2q-8 0 -15 2q-4 2 -7 4t-7 6q-4 8 -4 18zM1032 627h49v2q-6 0 -10 2h-8l-4 10q-2 2 -2 12v56l80 -82h4v65q0 8 1 12.5t3 8.5q4 4 16 4v4h-47v-4h8q0 -2 4 -2q6 -4 7 -8q4 -4 4 -15v-39l-66 68h-37v-4q8 0 10 -2q2 0 3.5 -1t3.5 -1q2 -4 2 -11 v-53q0 -6 -2 -10t-7 -8q-4 0 -7 -1t-5 -1v-2zM1047 -190q0 -4 4 -9q6 -6 8 -6q4 0 6 4h4q4 2 5 3t5 3q2 4 2 13v12l-8 -4l-14 -2q-4 0 -8 -4t-4 -10zM1051 905q2 0 3 -1t3 -1q4 0 8 2l8 4q0 2 4 6q2 0 2 1.5t2 1.5l4 6q0 4 5 4l16 22l20 21l17 20l22 21l21 20l8 8q4 2 10 9 l10 8l13 4q2 0 2 -2h-2l-4 -4q-2 -6 -9 -8l-4 -7l-12 -14q-4 -4 -6 -7t-6 -7q-10 -12 -15 -23l-14 -20q-2 -4 -3 -9.5t-3 -9.5q-4 -10 0 -16q2 -6 8 -6h19q4 2 9 5t13 7q12 8 19 14l20 21l2 2q-2 -2 -2 -6q0 -6 4 -15q2 -4 10 -8q6 -2 21 2q12 2 24 13l21 14l7 7l7 7l13 13 v-5q0 -2 -1.5 -3t-1.5 -3v-6q-4 -6 0 -10q0 -2 1.5 -3t1.5 -3q0 -6 6 -6h6h10l6 4l8 6l13 6l32 27l17 16l-4 -12q-4 -6 -4 -19v-6q2 0 4 -2q0 -2 6 -2q4 0 8 4q8 0 12 6l11 6l12 13q2 0 10 8l9 9t10 9l18 21v4q0 2 -2 2q-4 0 -8 -4l-2 -4l-13 -15l-10 -12q-10 -6 -12 -12 l-14 -12l-9 -7l-8 -2l-2 -2q-2 0 -4 2h2l8 15q4 8 8 12l7 12q4 2 8 11l63 92q10 10 13 16l16 16l37 43q10 10 17 20.5t16 20.5l10 19v8q-2 2 -8 2q-2 0 -11 -4q-4 0 -6 -2t-6 -4q-4 0 -10 -6l-8 -6q-6 -4 -11.5 -9.5t-11.5 -9.5l-16 -18q-6 -6 -10.5 -11.5t-8.5 -11.5 q-2 -4 -6 -9t-8 -11q-16 -23 -27 -41l-26 -45l-19 -33l-8 -16h-2l-14 -15q-4 -6 -8.5 -10t-10.5 -10l-18 -17l-10 -8l-7 -4l-4 -2l-4 -4h-6h-4l6 10l6 10q0 2 2 4q4 8 8.5 14.5t10.5 12.5q4 6 8 13.5t8 15.5l15 20l8 13q2 4 3 5t3 5l2 2l2 2q0 2 1 2t1 2q6 4 4 8q0 2 -6 2 l-10 -4l-10 -6l-19 -12q-8 -8 -14 -13q0 6 -2 11q0 2 -6 6q-12 2 -21 0q-16 -4 -22 -8q-8 -4 -13.5 -6.5t-11.5 -6.5q-8 -6 -18 -16q-27 -18 -37 -39q-14 -16 -21 -37h-4q-4 -6 -16 -18q-6 -4 -11.5 -8.5t-11.5 -8.5q-2 -4 -12 -8q-4 -4 -10 -4h-2q-2 2 0 4l6 8l6 11l12 14 l21 27q4 6 9 13t9 15l8 17q4 10 2 16q0 6 -2 6q0 4 -6 4t-8 -2l-12 -4l-13 -8q-4 -2 -10 -8q-4 -4 -6 -5t-4 -4q-8 -8 -12 -8l-21 -22q-4 -4 -9 -9.5t-9 -9.5l-11 -12l-10 -10l2 4l25 35l26 37q0 2 1.5 2t1.5 2q2 2 2 4q2 2 2 6l-7 6q-2 0 -3 1t-3 1t-4 -1t-6 -1l-10 -6 l-4 -4q-4 -2 -4 -4t-2 -4l-5 -7l-77 -133q-2 -2 -2 -4v-2zM1083 55q0 6 1 11.5t3 11.5q2 10 11 18q10 10 20 15q6 4 25 4q16 0 24 -4q4 -4 8.5 -5.5t8.5 -5.5t6 -9t6 -11q4 -12 4 -25q0 -16 -8 -30q-2 -8 -18 -21q-10 -8 -31 -8q-20 0 -35 8q-6 4 -10 10t-8 13q-6 12 -7 28z M1114 55q0 -8 2 -13t4 -9q4 -10 23 -10q16 0 20 10q6 6 6 22q0 14 -6 25q-6 10 -20 10q-16 0 -23 -10q-2 -4 -4 -10.5t-2 -14.5zM1128 -170q1 16 11 41q12 16 39 16q10 0 22 -4q8 -2 17 -14q4 -6 7 -11t3 -12h-31q0 4 -4 13q-6 6 -12 6q-10 0 -17 -10q-8 -6 -8 -21 q0 -6 1 -10t1 -8q4 -4 5 -6.5t3 -4.5q4 -4 13 -4q8 0 12 4q6 2 6 13h27q0 -10 -6 -23q-4 -4 -7.5 -7t-7.5 -5q-12 -6 -24 -6q-23 0 -35 12q-6 2 -10 16q-4 12 -5 25zM1167 627h107v41h-2q-4 -4 -4 -6.5t-2 -6.5q-4 -4 -4 -8q-2 -2 -2 -3t-3 -3q-8 -8 -12 -10q-2 0 -6 -1 t-8 -1h-25v73q0 10 6 11q2 4 13 4h6v4h-64v-4h4q16 0 17 -15v-57q0 -16 -17 -16h-4v-2zM1221 -2v115h28v-17q12 18 35 19q14 0 21 -4l14 -13q4 -12 4 -20v-80h-29v70q0 8 -4 16q-6 6 -16 6q-12 0 -19 -8q-4 -4 -4 -19v-65h-30zM1237 -166q0 9 4 25q6 14 16 20q10 8 29 8 q20 0 29 -8q10 -6 14 -22q6 -12 6 -27v-6h-71q0 -12 6 -19q6 -6 16 -6q6 0 14 4q4 4 7 9h26q-4 -16 -10 -21q-8 -8 -14 -10q-12 -4 -23 -4q-49 0 -49 57zM1264 -158h43q0 10 -7 17q-4 2 -7 4t-9 2q-16 0 -20 -23zM1266 963l2 2q0 2 2 4q4 8 6 10l8 10q2 8 6 12q2 4 8 11 l19 24l26 33l7 8l8 6l8 7q2 2 8 2q4 2 8 2l7 -4q0 -2 1 -3.5t1 -3.5q0 -4 -2 -8q0 -2 -5 -6l-16 -22l-12 -23l-17 -14l-16 -19q-2 -2 -4 -3t-6 -5l-13 -10q-2 -2 -4 -3t-6 -5q-4 0 -5 -2t-5 -2q-8 -4 -10 -3h-2q-2 2 -2 5zM1268 717h2q10 0 14 -2l4 -4t4 -6l29 -39v-21 q0 -10 -2 -12q-8 -4 -14 -4h-7v-2h68v2h-8q-8 0 -12 4t-5 12v23l25 34l4 7q8 4 10 4q0 2 4 2q2 0 3.5 1t3.5 1h2v4h-47v-4h6q8 0 10 -2q4 -2 4 -6t-6 -11l-19 -26l-24 30q-4 8 -4 9v2q0 2 2 2q0 2 6 2h8v4h-61v-4zM1337 92v21h19v28h26v-28h21v-21h-21v-61v-6q0 -2 2 -2 q4 0 5.5 -1.5t5.5 -1.5l4 3h4v-25h-21q-14 0 -16 4q-8 0 -10 8v82h-19zM1352 -190h30v-31h-30v31zM1401 -170q0 16 10 41q12 16 39 16q10 0 23 -4q6 -2 18 -14q8 -10 8 -23h-29l-6 13q-6 6 -12 6q-10 0 -16 -10q-6 -6 -6 -21q0 -6 1 -10t1 -8q4 -8 8 -11q2 -4 10 -4 q10 0 12 4q6 2 6 13h31q-4 -12 -8 -23q-4 -4 -8 -7t-8 -5q-10 -6 -25 -6q-20 0 -35 12q-6 2 -10 16q-4 12 -4 25zM1473 31q0 16 8 24q16 8 24 11l27 4q10 0 10 8q0 14 -18 14q-8 0 -13 -4q-6 -2 -8 -14h-26q0 14 6 24q4 6 16 13q4 4 12 4h13q25 0 32 -4l7.5 -7.5t5.5 -7.5 t2 -14v-72q0 -6 8 -6v-6h-33q-2 0 -2 2v2v2q0 4 -1 5t-1 3l-8 -8q-2 -2 -3 -2t-3 -2t-4 -2q-6 0 -9.5 -1t-7.5 -1t-8 1t-8 1q-4 4 -7 6t-7 6q-4 8 -4 21zM1501 31q0 -8 4 -8q4 -4 11 -5h8l4 2q10 4 10 7q4 8 4 14v14q-6 -6 -12 -6l-14 -4q-6 0 -11 -4q-4 -2 -4 -10z M1511 -168q0 13 2 21q4 12 11 18q6 8 16 12q12 4 25 4q10 0 22 -4l8 -4t9 -6q4 -4 5 -9t5 -9q2 -6 2 -23q0 -16 -6 -29q-4 -14 -17 -20q-12 -6 -28 -6q-20 0 -31 8q-12 6 -18 20q-4 16 -5 27zM1538 -168q0 -14 6 -22q2 -4 8.5 -6.5t12.5 -2.5q16 0 18 9q6 8 6 22q0 13 -6 23 q-4 10 -18 10q-16 0 -21 -10q-6 -10 -6 -23zM1567 1167l28 37l13 23l26 35l2 2q0 4 4 4q0 2 2 2q0 -8 -2 -10l-8 -11l-6 -10q-2 -2 -3 -4t-3 -4l-16 -21l-19 -20l-10 -12q-4 -8 -8 -11zM1585 92v21h14v28h33v-28h19v-21h-19v-61v-8q2 0 4 -1.5t6 -1.5l5 3h4v-25h-19 q-14 0 -20 4q-6 0 -8 8q0 2 -2.5 5t-2.5 8v69h-14zM1636 -115h27v-16q8 18 31 18q8 0 16 -4q6 -4 12 -12q2 8 11 12q8 4 16 4q10 0 23 -4q8 -8 10 -14q4 -8 4 -19v-71h-27v63q0 23 -16 23q-18 0 -19 -23v-63h-26v63v11q0 4 -4 8t-15 4q-16 0 -16 -23v-63h-27v106z" />
<glyph unicode="5" d="M70 -193q0 17 8 23q10 10 20 10l27 4q10 0 10 6q0 16 -16 17q-10 0 -13 -6q-8 -2 -8 -11h-24q0 14 6 21q2 8 12 12q4 2 14 2q4 2 13 2q14 0 26 -4q8 -6 13 -12q2 -4 2 -14v-56q0 -10 2 -12q0 -2 4 -6v-4h-29v2v4q-2 2 -2 6l-8 -8q-4 -2 -6 -2t-4 -2q-4 -2 -13 -2 q-12 0 -18 2q-6 4 -10 10q-6 6 -6 18zM96 -190q0 -4 4 -9q4 -2 6.5 -4t4.5 -2q4 0 6 4h4q8 4 10 6q4 8 4 13v12q-2 0 -10 -4l-12 -2q-4 0 -13 -4q-4 -4 -4 -10zM125 565v494l268 59l-10 37l41 12l-8 39l41 8l-6 46l41 2v41h36l4 36l39 -6l9 41l43 -6l10 39l39 -10l16 37 l39 -17l23 39l34 -18l23 35l37 -25l24 33l35 -27l27 29l26 -25l27 23l27 -29l34 23l23 -37l39 20l18 -35l37 17l17 -41l43 12l12 -39l39 10l8 -43l43 4l2 -26l404 88v-496l-185 -41l4 -2l-24 -26l24 -29l-32 -27l22 -34l-37 -23l23 -37l-35 -20l14 -37l-39 -17l13 -43 l-37 -12l6 -39l-41 -8l2 -43l-39 -4v-39h-35l-6 -37l-39 2l-8 -37l-43 6l-10 -40l-39 12l-14 -39l-44 16l-18 -39l-37 21l-22 -35l-37 23l-25 -33l-30 26l-31 -26l-27 24l-26 -24l-25 31l-35 -23l-24 37l-37 -21l-19 35l-39 -16l-18 41l-39 -13l-12 37l-41 -8l-8 43l-43 -4 l-5 41h-40v35l-35 4l4 41l-41 6l8 43l-41 12l12 37l-28 12zM186 -115h25v-18h2q4 8 6 10t3 4t5 4q2 2 15 2h2h4v-28h-8q-27 0 -27 -25v-55h-27v106zM236 76v16q0 4 2 7t2 7q2 12 14 25q4 6 10 10t12 9q14 6 33 6h6q4 0 8.5 -1t8.5 -1q8 0 14 -7q14 -8 21 -18q4 -4 8 -12 q0 -2 1 -3t1 -3v-5h-33v3q0 2 -4 6q-2 4 -4 5t-6 5q-6 4 -19 4h-8h-6l-14 -12q-10 -6 -11 -15q-4 -8 -4 -28q0 -8 1 -14.5t3 -14.5q2 -10 13 -14q6 -4 10 -6t10 -2h4q12 0 19 4q4 0 7 3l5 5q4 6 6 10t2 10h-37v27h66v-84h-21l-4 20q-6 -8 -14 -14q-4 -4 -9 -5t-10 -3 q-4 0 -9 -1t-9 -1q-12 0 -25 6q-14 6 -20 16q-8 6 -16 27q-4 10 -4 33zM236 702h10l8 5l10 10l8 10l11 10q4 8 8 13l63 86l19 30l20 31q6 8 11.5 15.5t9.5 15.5q4 10 8 17t8 16q2 4 0 6t-4 2q-8 0 -10 -2l-8 -4l-17 -21l-16 -20q-6 -6 -15 -19l-16 -20l-55 -80l-27 -41 q-6 -10 -11 -21.5t-11 -21.5l-4 -6v-4v-4v-3zM262 -78h29v-24h-29v24zM262 -115h29v-106h-29v106zM276 889q2 -4 4.5 -6t6.5 -6l18 -7q14 0 23 2q4 0 4 2q2 2 2 5q0 2 -2 2h-4q-4 0 -4 -2q-14 -2 -29 2q-8 4 -10 8q0 4 -1 5t-1 5q0 6 2 12l6 15l16 18q4 4 10.5 8t12.5 9 q6 4 11 7t13 7l25 12q8 0 14 2t15 6l28 4q16 4 27 5q6 0 22 -5q10 0 15 -6l10 -12v-16q0 -12 -2 -21l-10 -18q-4 -6 -7.5 -11.5t-7.5 -9.5q-4 -6 -9 -10t-11 -10q-4 -6 -21 -19l-22 -14l-25 -10l-14 -6q-2 0 -5 -1t-7 -1h-4q-4 0 -7 -3q-2 0 -2 -2q-4 0 -4 -4q0 -2 2 -2h4 q4 0 7 2h4l26 9l27 12l27 10l26 16l23 17l20 18l17 21q4 4 7 9t5 11q4 12 4 19q2 10 0 18q-2 4 -3 7t-3 7q-6 6 -15 11q-6 2 -10 3t-10 1q-8 2 -23 2q-8 0 -24 -4q-14 0 -27.5 -4t-29.5 -9q-29 -8 -54 -22q-6 -4 -13 -7t-13 -7t-12.5 -8.5t-10.5 -10.5l-9 -9l-9 -9l-9 -21 q-4 -10 0 -16zM317 -115h25v-16q12 18 33 18q8 0 20 -4q6 -4 13 -12q4 -8 4 -21v-71h-29v63q0 12 -2 15q-4 8 -16 8q-8 0 -17 -8q-4 -12 -4 -17v-61h-27v106zM395 57q0 20 6 29q4 14 17 20q8 6 15 7.5t18 1.5q23 0 28 -9q12 -6 19 -22q4 -10 4 -31v-8h-78q0 -6 8 -18 q6 -6 19 -7q4 0 7 1.5t5 1.5q8 8 8 10h31q-6 -12 -10 -21q-4 -4 -8.5 -7t-8.5 -5l-12 -3t-12 -1q-55 0 -56 61zM428 68h45q-4 12 -8 16q-8 8 -14 8q-23 0 -23 -24zM430 -166q0 6 2 12.5t4 12.5q6 14 15 20q8 8 24 8q6 0 19 -4l7 -7t5 -7l2 16h24v-100q0 -10 -4 -27 q-6 -10 -16 -14q-12 -6 -33 -6q-4 0 -9 1t-9 1q-6 2 -19 10q-4 4 -4 8q-2 4 -2 11h27q2 -4 6 -9q2 -2 12 -2q12 0 15 2q8 6 8 9q0 2 1 3t1 3v6v12q-12 -14 -29 -14q-6 0 -11 1t-11 3q-10 8 -17 20q-4 6 -6 13.5t-2 17.5zM461 -168q0 -8 2 -14q0 -4 6 -11q8 -4 12 -4 q25 0 25 29q0 14 -8 23q-4 4 -8.5 7t-8.5 3q-8 0 -14 -10q-6 -6 -6 -23zM498 717q20 0 20 -15v-49q0 -8 10 -22l17 -4q4 -2 18 -2q12 0 25 4q8 4 10 6q8 6 8 22v50l10 8l2 2h9v4h-47v-4h10q2 0 4 -2q12 -4 12 -23v-33q0 -12 -10 -22l-12 -8h-15q-12 0 -18 2q-2 0 -10 8 q-4 4 -4 14v49q0 10 4 11q4 4 14 4h6v4h-63v-4zM510 92v21h16v28h31v-28h16v-21h-16v-61q0 -8 2 -8q0 -2 2 -3h8l2 3h2v-25h-16q-14 0 -20 4q-6 0 -9 8q-2 2 -2 13v69h-16zM510 821q2 -8 10 -12q10 -10 23 -6q14 0 26 6q10 2 17.5 6t15.5 8t15.5 9.5t15.5 13.5l24 20l15 15 q0 2 4 6q0 2 2 4l4 6l16 16l15 21q6 4 10 10t8 10l6 -2l4 -6q0 -2 2 -4v-2q0 -2 -2 -4t-4 -6l-16 -17l-14 -20l-13 -19l-4 -18q-2 -2 -2 -8v-6l4 -8h8q10 0 17 2l16 10q4 4 10.5 8t10.5 10q6 4 10 8.5t8 8.5q2 4 4 6t4 6l8 10l5 4l4 6q4 4 4 5l12 16l21 31q0 -4 1 -7.5 t1 -7.5q4 -12 4 -14l4 -8q-16 -4 -25 -13l-20 -14q-4 -4 -7.5 -9t-5.5 -9q-2 -6 -2 -17q0 -6 11 -10h18q12 0 25 8q16 8 22 17q6 4 9 8t8 8l8 18q6 8 6 19v16q0 6 -4 15l-6 16l-7 6q0 4 -4 8q0 2 -2 4v7v4h-8l-4 -4q-4 -2 -6 -4.5t-6 -4.5l-4 -12l-2 -2l-4 -6l-33 -45l-4 -6 l-6 -11h-3v-2q-2 0 -4 -2l-4 -8l-6 -8l-14 -18l-23 -21q-4 -4 -12 -6q-4 -4 -12 -4v2l8 10l6 10l8 11q4 4 6 8l9 14l10 14l4 15q2 6 2 14q-2 2 -2 8l-2 4q0 4 -2 7v22l6 10q4 6 -4 13q-4 6 -17 0q-10 -2 -16 -9q-6 -2 -10 -12q-4 -4 -4 -10q0 -8 2 -12l4 -2l4 -5l-6 -6 l-6 -6l-23 -31l-20 -22q-4 0 -4 -4v-2l-2 -2q0 -2 -2 -2l-11 -15q-8 -6 -14 -12t-14 -10q-12 -12 -33 -23q-12 -4 -21 -8q-12 -4 -18 -2q-6 0 -6 4q-2 2 -2 6q0 2 4 11l2 8l10 16q4 -2 12 -2h19q10 2 26 12q6 2 11.5 6.5t13.5 8.5l14 16q4 4 7.5 8t3.5 8l8 13q0 12 -4 14 q-4 8 -8 10h-19h-9t-9 -4q-4 -2 -10.5 -4t-10.5 -4q-27 -14 -45 -29q-18 -16 -29 -34q-4 -4 -6 -9.5t-6 -11.5q-6 -8 -8 -18v-17zM545 -115h14v27h29v-27h16v-20h-16v-55q0 -6 2 -9q0 -2 2 -2h6l4 2h2v-22h-6h-6h-4q-12 0 -17 2q-10 4 -10 8q-2 2 -2 12v64h-14v20zM567 870 l15 23l18 20l6 9q4 4 6 5t4 3l11 10l12 4q8 2 14 0v-10l-6 -8q-6 -6 -6 -11q-4 -4 -5 -6t-5 -4q0 -2 -8 -10q-2 -2 -3.5 -4t-5.5 -4q-4 -4 -6 -5t-4 -3l-12 -9q-6 -2 -12 -2q-10 0 -13 2zM610 -115h33l21 -78l20 78h31l-35 -102l-2 -2l-8 -23q-4 -10 -6 -12q-6 -6 -11 -6 q-4 0 -7 -1t-7 -1h-6h-8v22h8h8q2 0 6 4v5q2 2 2 6l-37 102zM639 694q0 -2 4 -10q0 -6 6 -6l13 -6q2 -2 20 -6l8 -2q8 -4 12 -5q4 0 9 -4q2 0 2 -2q6 -4 6 -10l-4 -8q-2 -4 -8 -6h-11q-10 0 -16 2l-16 6l-11 10q-10 10 -10 21h-2v-43h2q0 6 4 6q4 4 8 4q2 0 2 -1t5 -1 q2 0 3 -1t3 -1l14 -4q4 -2 14 -2q4 0 17 4q2 0 12 6q2 2 2 4t4 4v21l-6 6q-2 4 -12 8l-17 6h-10l-2 2q-4 2 -8 2t-6 2q-6 0 -8 2q-2 0 -7 4q-2 0 -2 4v2v9l4 4l9 4q2 0 4 1t6 1q6 0 14 -4q8 0 12 -4q8 -4 11 -8q4 -2 5 -7.5t5 -9.5h2v31h-2q-2 -6 -8 -6h-8q-16 10 -31 10 q-8 0 -21 -4l-12 -8q-2 -4 -3 -7.5t-1 -9.5zM641 92v21h14v8q0 33 35 33h15v-25h-9h-6q-4 0 -4 -4v-12h19v-21h-19v-94h-31v94h-14zM723 37v76h29v-70q0 -20 20 -20h10l11 10q0 2 2 5t2 7v68h26v-115h-26v16q-6 -8 -15 -12q-12 -6 -20 -6q-20 0 -29 12q-10 8 -10 29z M731 -115h25v-16h4q2 0 4 2l8 8q4 4 8 6q2 2 8 2q10 0 17 -4q8 -4 12 -8q8 -8 10 -20q6 -10 7 -23q0 -4 -1.5 -6t-1.5 -6t-2 -6t-4 -7q-4 -16 -12 -22q-10 -8 -25 -8q-10 0 -14 2t-8 6q-2 2 -6 2l-2 4v-51h-27v100v45zM741 627h103v39q-4 -4 -4 -7.5t-2 -5.5l-11 -14 q-6 -6 -8 -6l-10 -2q-4 -2 -12 -2h-15v41h2q8 0 19 -6l4 -7q0 -2 1 -3t1 -3v-8h2v59h-2v-8l-4 -10q-10 -10 -19 -10h-4v43h17q16 0 22 -2l8 -6l5 -11l6 -14h4v37h-103v-4h4q8 0 11 -4q6 0 6 -11v-57q0 -16 -17 -16h-4v-2zM756 -170q0 -14 8 -20q6 -8 16 -9q12 0 19 9 q4 12 4 22t-4 23q-4 4 -8.5 7t-10.5 3q-25 0 -24 -35zM793 868v9l4 10l6 8q8 10 18 18l23 11q0 -4 1 -6.5t1 -4.5q-2 -4 -2 -8v-12l-4 -8q-2 -4 -4 -5t-5 -6l-8 -6q-2 0 -3 -1t-5 -1q-2 -2 -8 -2q-4 -4 -8 0q-2 0 -6 4zM844 -166q0 17 4 25q6 14 16 20q10 8 27 8q23 0 31 -8 q10 -6 16 -22q4 -16 4 -27v-6h-72q0 -12 7 -19q6 -6 16 -6q6 0 14 4q4 4 6 9h27q-4 -16 -8 -21q-4 -4 -8 -6t-9 -4q-12 -4 -22 -4q-49 0 -49 57zM852 -2v156h29v-156h-29zM870 -158h43q0 10 -6 17q-4 2 -7 4t-9 2q-16 0 -21 -23zM903 -2v156h29v-156h-29zM905 674 q0 -14 4 -21q4 -4 6.5 -7t6.5 -7q6 -6 18 -10q6 -2 11 -3t12 -1q16 0 26 6q8 4 13.5 9t9.5 9q6 8 6 25q0 10 -4 16q-4 12 -10 17q-4 6 -19 10q-12 6 -22 6q-20 0 -29 -8q-8 -2 -12 -7.5t-9 -9.5q-8 -10 -8 -24zM915 901q0 -8 5 -8q4 -4 6 -5t4 -3h10h12q8 2 14.5 4t12.5 4 l27 14l22 21l19 16l14 21l10 16l6 18q4 10 0 15q0 6 -6 10q0 4 -10 8q-2 0 -6 1t-8 1q-6 0 -19 -4q-4 0 -6 -1l-6 -3l-12 -4l-25 -16q-6 -4 -11 -9.5t-12 -9.5l-16 -18l-12 -19q-10 -16 -13 -26v-23zM928 674q0 4 1 8t1 8l6 12q2 2 3 5.5t3 5.5t4 2t6 2q4 4 13 4q0 -2 2 -2 h4l6 -4l10 -8q0 -4 2 -7.5t4 -9.5q0 -2 1 -7t1 -9q0 -12 -4 -25q-4 -4 -6 -9t-6 -9q-4 -2 -16 -2q-10 0 -13 2q-8 0 -12 10l-6 12q-4 12 -4 21zM940 895v8v4q4 14 10 21q4 6 7.5 11t7.5 11l10 13l8 10l16 20l9.5 9.5l9.5 9.5l8 8l10 4q4 2 11 2l4 -2q2 -2 2 -8q0 -2 -4 -10 l-5 -9l-6 -10q-4 -8 -6 -10l-8 -12l-12 -19l-17 -18l-20 -21q0 -2 -10 -6q-2 -4 -13 -8h-8q-4 0 -4 2zM948 -115h17v9q0 29 30 28h13v-22h-7h-6l-2 -2l-2 -9v-4h19v-20h-19v-86h-26v86h-17v20zM1010 92v21h14v8q0 33 35 33h12v-25h-6h-6q-2 0 -4 -4v-12h20v-21h-20v-94h-31 v94h-14zM1018 -193q0 17 10 23q10 10 21 10l24 4q8 0 8 6q0 16 -14 17q-10 0 -12 -6q-6 -4 -6 -11h-27q0 14 6 21q6 10 14 12q4 2 11 2q4 2 14 2t16.5 -1t12.5 -3q8 -6 12 -12q2 -4 2 -14v-56q0 -10 2 -12q0 -2 4 -6v-4h-31v2q0 2 -1 2t-1 2v6q-4 -2 -5 -4t-3 -4 q-4 -2 -6 -2t-4 -2q-4 -2 -14 -2q-8 0 -15 2q-4 2 -7 4t-7 6q-4 8 -4 18zM1032 627h49v2q-6 0 -10 2h-8l-4 10q-2 2 -2 12v56l80 -82h4v65q0 8 1 12.5t3 8.5q4 4 16 4v4h-47v-4h8q0 -2 4 -2q6 -4 7 -8q4 -4 4 -15v-39l-66 68h-37v-4q8 0 10 -2q2 0 3.5 -1t3.5 -1q2 -4 2 -11 v-53q0 -6 -2 -10t-7 -8q-4 0 -7 -1t-5 -1v-2zM1047 -190q0 -4 4 -9q6 -6 8 -6q4 0 6 4h4q4 2 5 3t5 3q2 4 2 13v12l-8 -4l-14 -2q-4 0 -8 -4t-4 -10zM1051 905q2 0 3 -1t3 -1q4 0 8 2l8 4q0 2 4 6q2 0 2 1.5t2 1.5l4 6q0 4 5 4l16 22l20 21l17 20l22 21l21 20l8 8q4 2 10 9 l10 8l13 4q2 0 2 -2h-2l-4 -4q-2 -6 -9 -8l-4 -7l-12 -14q-4 -4 -6 -7t-6 -7q-10 -12 -15 -23l-14 -20q-2 -4 -3 -9.5t-3 -9.5q-4 -10 0 -16q2 -6 8 -6h19q4 2 9 5t13 7q12 8 19 14l20 21l2 2q-2 -2 -2 -6q0 -6 4 -15q2 -4 10 -8q6 -2 21 2q12 2 24 13l21 14l7 7l7 7l13 13 v-5q0 -2 -1.5 -3t-1.5 -3v-6q-4 -6 0 -10q0 -2 1.5 -3t1.5 -3q0 -6 6 -6h6h10l6 4l8 6l13 6l32 27l17 16l-4 -12q-4 -6 -4 -19v-6q2 0 4 -2q0 -2 6 -2q4 0 8 4q8 0 12 6l11 6l12 13q2 0 10 8l9 9t10 9l18 21v4q0 2 -2 2q-4 0 -8 -4l-2 -4l-13 -15l-10 -12q-10 -6 -12 -12 l-14 -12l-9 -7l-8 -2l-2 -2q-2 0 -4 2h2l8 15q4 8 8 12l7 12q4 2 8 11l63 92q10 10 13 16l16 16l37 43q10 10 17 20.5t16 20.5l10 19v8q-2 2 -8 2q-2 0 -11 -4q-4 0 -6 -2t-6 -4q-4 0 -10 -6l-8 -6q-6 -4 -11.5 -9.5t-11.5 -9.5l-16 -18q-6 -6 -10.5 -11.5t-8.5 -11.5 q-2 -4 -6 -9t-8 -11q-16 -23 -27 -41l-26 -45l-19 -33l-8 -16h-2l-14 -15q-4 -6 -8.5 -10t-10.5 -10l-18 -17l-10 -8l-7 -4l-4 -2l-4 -4h-6h-4l6 10l6 10q0 2 2 4q4 8 8.5 14.5t10.5 12.5q4 6 8 13.5t8 15.5l15 20l8 13q2 4 3 5t3 5l2 2l2 2q0 2 1 2t1 2q6 4 4 8q0 2 -6 2 l-10 -4l-10 -6l-19 -12q-8 -8 -14 -13q0 6 -2 11q0 2 -6 6q-12 2 -21 0q-16 -4 -22 -8q-8 -4 -13.5 -6.5t-11.5 -6.5q-8 -6 -18 -16q-27 -18 -37 -39q-14 -16 -21 -37h-4q-4 -6 -16 -18q-6 -4 -11.5 -8.5t-11.5 -8.5q-2 -4 -12 -8q-4 -4 -10 -4h-2q-2 2 0 4l6 8l6 11l12 14 l21 27q4 6 9 13t9 15l8 17q4 10 2 16q0 6 -2 6q0 4 -6 4t-8 -2l-12 -4l-13 -8q-4 -2 -10 -8q-4 -4 -6 -5t-4 -4q-8 -8 -12 -8l-21 -22q-4 -4 -9 -9.5t-9 -9.5l-11 -12l-10 -10l2 4l25 35l26 37q0 2 1.5 2t1.5 2q2 2 2 4q2 2 2 6l-7 6q-2 0 -3 1t-3 1t-4 -1t-6 -1l-10 -6 l-4 -4q-4 -2 -4 -4t-2 -4l-5 -7l-77 -133q-2 -2 -2 -4v-2zM1083 55q0 6 1 11.5t3 11.5q2 10 11 18q10 10 20 15q6 4 25 4q16 0 24 -4q4 -4 8.5 -5.5t8.5 -5.5t6 -9t6 -11q4 -12 4 -25q0 -16 -8 -30q-2 -8 -18 -21q-10 -8 -31 -8q-20 0 -35 8q-6 4 -10 10t-8 13q-6 12 -7 28z M1114 55q0 -8 2 -13t4 -9q4 -10 23 -10q16 0 20 10q6 6 6 22q0 14 -6 25q-6 10 -20 10q-16 0 -23 -10q-2 -4 -4 -10.5t-2 -14.5zM1128 -170q1 16 11 41q12 16 39 16q10 0 22 -4q8 -2 17 -14q4 -6 7 -11t3 -12h-31q0 4 -4 13q-6 6 -12 6q-10 0 -17 -10q-8 -6 -8 -21 q0 -6 1 -10t1 -8q4 -4 5 -6.5t3 -4.5q4 -4 13 -4q8 0 12 4q6 2 6 13h27q0 -10 -6 -23q-4 -4 -7.5 -7t-7.5 -5q-12 -6 -24 -6q-23 0 -35 12q-6 2 -10 16q-4 12 -5 25zM1167 627h107v41h-2q-4 -4 -4 -6.5t-2 -6.5q-4 -4 -4 -8q-2 -2 -2 -3t-3 -3q-8 -8 -12 -10q-2 0 -6 -1 t-8 -1h-25v73q0 10 6 11q2 4 13 4h6v4h-64v-4h4q16 0 17 -15v-57q0 -16 -17 -16h-4v-2zM1221 -2v115h28v-17q12 18 35 19q14 0 21 -4l14 -13q4 -12 4 -20v-80h-29v70q0 8 -4 16q-6 6 -16 6q-12 0 -19 -8q-4 -4 -4 -19v-65h-30zM1237 -166q0 9 4 25q6 14 16 20q10 8 29 8 q20 0 29 -8q10 -6 14 -22q6 -12 6 -27v-6h-71q0 -12 6 -19q6 -6 16 -6q6 0 14 4q4 4 7 9h26q-4 -16 -10 -21q-8 -8 -14 -10q-12 -4 -23 -4q-49 0 -49 57zM1264 -158h43q0 10 -7 17q-4 2 -7 4t-9 2q-16 0 -20 -23zM1266 963l2 2q0 2 2 4q4 8 6 10l8 10q2 8 6 12q2 4 8 11 l19 24l26 33l7 8l8 6l8 7q2 2 8 2q4 2 8 2l7 -4q0 -2 1 -3.5t1 -3.5q0 -4 -2 -8q0 -2 -5 -6l-16 -22l-12 -23l-17 -14l-16 -19q-2 -2 -4 -3t-6 -5l-13 -10q-2 -2 -4 -3t-6 -5q-4 0 -5 -2t-5 -2q-8 -4 -10 -3h-2q-2 2 -2 5zM1268 717h2q10 0 14 -2l4 -4t4 -6l29 -39v-21 q0 -10 -2 -12q-8 -4 -14 -4h-7v-2h68v2h-8q-8 0 -12 4t-5 12v23l25 34l4 7q8 4 10 4q0 2 4 2q2 0 3.5 1t3.5 1h2v4h-47v-4h6q8 0 10 -2q4 -2 4 -6t-6 -11l-19 -26l-24 30q-4 8 -4 9v2q0 2 2 2q0 2 6 2h8v4h-61v-4zM1337 92v21h19v28h26v-28h21v-21h-21v-61v-6q0 -2 2 -2 q4 0 5.5 -1.5t5.5 -1.5l4 3h4v-25h-21q-14 0 -16 4q-8 0 -10 8v82h-19zM1352 -190h30v-31h-30v31zM1401 -170q0 16 10 41q12 16 39 16q10 0 23 -4q6 -2 18 -14q8 -10 8 -23h-29l-6 13q-6 6 -12 6q-10 0 -16 -10q-6 -6 -6 -21q0 -6 1 -10t1 -8q4 -8 8 -11q2 -4 10 -4 q10 0 12 4q6 2 6 13h31q-4 -12 -8 -23q-4 -4 -8 -7t-8 -5q-10 -6 -25 -6q-20 0 -35 12q-6 2 -10 16q-4 12 -4 25zM1473 31q0 16 8 24q16 8 24 11l27 4q10 0 10 8q0 14 -18 14q-8 0 -13 -4q-6 -2 -8 -14h-26q0 14 6 24q4 6 16 13q4 4 12 4h13q25 0 32 -4l7.5 -7.5t5.5 -7.5 t2 -14v-72q0 -6 8 -6v-6h-33q-2 0 -2 2v2v2q0 4 -1 5t-1 3l-8 -8q-2 -2 -3 -2t-3 -2t-4 -2q-6 0 -9.5 -1t-7.5 -1t-8 1t-8 1q-4 4 -7 6t-7 6q-4 8 -4 21zM1501 31q0 -8 4 -8q4 -4 11 -5h8l4 2q10 4 10 7q4 8 4 14v14q-6 -6 -12 -6l-14 -4q-6 0 -11 -4q-4 -2 -4 -10z M1511 -168q0 13 2 21q4 12 11 18q6 8 16 12q12 4 25 4q10 0 22 -4l8 -4t9 -6q4 -4 5 -9t5 -9q2 -6 2 -23q0 -16 -6 -29q-4 -14 -17 -20q-12 -6 -28 -6q-20 0 -31 8q-12 6 -18 20q-4 16 -5 27zM1538 -168q0 -14 6 -22q2 -4 8.5 -6.5t12.5 -2.5q16 0 18 9q6 8 6 22q0 13 -6 23 q-4 10 -18 10q-16 0 -21 -10q-6 -10 -6 -23zM1567 1167l28 37l13 23l26 35l2 2q0 4 4 4q0 2 2 2q0 -8 -2 -10l-8 -11l-6 -10q-2 -2 -3 -4t-3 -4l-16 -21l-19 -20l-10 -12q-4 -8 -8 -11zM1585 92v21h14v28h33v-28h19v-21h-19v-61v-8q2 0 4 -1.5t6 -1.5l5 3h4v-25h-19 q-14 0 -20 4q-6 0 -8 8q0 2 -2.5 5t-2.5 8v69h-14zM1636 -115h27v-16q8 18 31 18q8 0 16 -4q6 -4 12 -12q2 8 11 12q8 4 16 4q10 0 23 -4q8 -8 10 -14q4 -8 4 -19v-71h-27v63q0 23 -16 23q-18 0 -19 -23v-63h-26v63v11q0 4 -4 8t-15 4q-16 0 -16 -23v-63h-27v106z" />
<glyph unicode="6" d="M70 -193q0 17 8 23q10 10 20 10l27 4q10 0 10 6q0 16 -16 17q-10 0 -13 -6q-8 -2 -8 -11h-24q0 14 6 21q2 8 12 12q4 2 14 2q4 2 13 2q14 0 26 -4q8 -6 13 -12q2 -4 2 -14v-56q0 -10 2 -12q0 -2 4 -6v-4h-29v2v4q-2 2 -2 6l-8 -8q-4 -2 -6 -2t-4 -2q-4 -2 -13 -2 q-12 0 -18 2q-6 4 -10 10q-6 6 -6 18zM96 -190q0 -4 4 -9q4 -2 6.5 -4t4.5 -2q4 0 6 4h4q8 4 10 6q4 8 4 13v12q-2 0 -10 -4l-12 -2q-4 0 -13 -4q-4 -4 -4 -10zM125 565v494l268 59l-10 37l41 12l-8 39l41 8l-6 46l41 2v41h36l4 36l39 -6l9 41l43 -6l10 39l39 -10l16 37 l39 -17l23 39l34 -18l23 35l37 -25l24 33l35 -27l27 29l26 -25l27 23l27 -29l34 23l23 -37l39 20l18 -35l37 17l17 -41l43 12l12 -39l39 10l8 -43l43 4l2 -26l404 88v-496l-185 -41l4 -2l-24 -26l24 -29l-32 -27l22 -34l-37 -23l23 -37l-35 -20l14 -37l-39 -17l13 -43 l-37 -12l6 -39l-41 -8l2 -43l-39 -4v-39h-35l-6 -37l-39 2l-8 -37l-43 6l-10 -40l-39 12l-14 -39l-44 16l-18 -39l-37 21l-22 -35l-37 23l-25 -33l-30 26l-31 -26l-27 24l-26 -24l-25 31l-35 -23l-24 37l-37 -21l-19 35l-39 -16l-18 41l-39 -13l-12 37l-41 -8l-8 43l-43 -4 l-5 41h-40v35l-35 4l4 41l-41 6l8 43l-41 12l12 37l-28 12zM186 -115h25v-18h2q4 8 6 10t3 4t5 4q2 2 15 2h2h4v-28h-8q-27 0 -27 -25v-55h-27v106zM236 76v16q0 4 2 7t2 7q2 12 14 25q4 6 10 10t12 9q14 6 33 6h6q4 0 8.5 -1t8.5 -1q8 0 14 -7q14 -8 21 -18q4 -4 8 -12 q0 -2 1 -3t1 -3v-5h-33v3q0 2 -4 6q-2 4 -4 5t-6 5q-6 4 -19 4h-8h-6l-14 -12q-10 -6 -11 -15q-4 -8 -4 -28q0 -8 1 -14.5t3 -14.5q2 -10 13 -14q6 -4 10 -6t10 -2h4q12 0 19 4q4 0 7 3l5 5q4 6 6 10t2 10h-37v27h66v-84h-21l-4 20q-6 -8 -14 -14q-4 -4 -9 -5t-10 -3 q-4 0 -9 -1t-9 -1q-12 0 -25 6q-14 6 -20 16q-8 6 -16 27q-4 10 -4 33zM236 702h10l8 5l10 10l8 10l11 10q4 8 8 13l63 86l19 30l20 31q6 8 11.5 15.5t9.5 15.5q4 10 8 17t8 16q2 4 0 6t-4 2q-8 0 -10 -2l-8 -4l-17 -21l-16 -20q-6 -6 -15 -19l-16 -20l-55 -80l-27 -41 q-6 -10 -11 -21.5t-11 -21.5l-4 -6v-4v-4v-3zM262 -78h29v-24h-29v24zM262 -115h29v-106h-29v106zM276 889q2 -4 4.5 -6t6.5 -6l18 -7q14 0 23 2q4 0 4 2q2 2 2 5q0 2 -2 2h-4q-4 0 -4 -2q-14 -2 -29 2q-8 4 -10 8q0 4 -1 5t-1 5q0 6 2 12l6 15l16 18q4 4 10.5 8t12.5 9 q6 4 11 7t13 7l25 12q8 0 14 2t15 6l28 4q16 4 27 5q6 0 22 -5q10 0 15 -6l10 -12v-16q0 -12 -2 -21l-10 -18q-4 -6 -7.5 -11.5t-7.5 -9.5q-4 -6 -9 -10t-11 -10q-4 -6 -21 -19l-22 -14l-25 -10l-14 -6q-2 0 -5 -1t-7 -1h-4q-4 0 -7 -3q-2 0 -2 -2q-4 0 -4 -4q0 -2 2 -2h4 q4 0 7 2h4l26 9l27 12l27 10l26 16l23 17l20 18l17 21q4 4 7 9t5 11q4 12 4 19q2 10 0 18q-2 4 -3 7t-3 7q-6 6 -15 11q-6 2 -10 3t-10 1q-8 2 -23 2q-8 0 -24 -4q-14 0 -27.5 -4t-29.5 -9q-29 -8 -54 -22q-6 -4 -13 -7t-13 -7t-12.5 -8.5t-10.5 -10.5l-9 -9l-9 -9l-9 -21 q-4 -10 0 -16zM317 -115h25v-16q12 18 33 18q8 0 20 -4q6 -4 13 -12q4 -8 4 -21v-71h-29v63q0 12 -2 15q-4 8 -16 8q-8 0 -17 -8q-4 -12 -4 -17v-61h-27v106zM395 57q0 20 6 29q4 14 17 20q8 6 15 7.5t18 1.5q23 0 28 -9q12 -6 19 -22q4 -10 4 -31v-8h-78q0 -6 8 -18 q6 -6 19 -7q4 0 7 1.5t5 1.5q8 8 8 10h31q-6 -12 -10 -21q-4 -4 -8.5 -7t-8.5 -5l-12 -3t-12 -1q-55 0 -56 61zM428 68h45q-4 12 -8 16q-8 8 -14 8q-23 0 -23 -24zM430 -166q0 6 2 12.5t4 12.5q6 14 15 20q8 8 24 8q6 0 19 -4l7 -7t5 -7l2 16h24v-100q0 -10 -4 -27 q-6 -10 -16 -14q-12 -6 -33 -6q-4 0 -9 1t-9 1q-6 2 -19 10q-4 4 -4 8q-2 4 -2 11h27q2 -4 6 -9q2 -2 12 -2q12 0 15 2q8 6 8 9q0 2 1 3t1 3v6v12q-12 -14 -29 -14q-6 0 -11 1t-11 3q-10 8 -17 20q-4 6 -6 13.5t-2 17.5zM461 -168q0 -8 2 -14q0 -4 6 -11q8 -4 12 -4 q25 0 25 29q0 14 -8 23q-4 4 -8.5 7t-8.5 3q-8 0 -14 -10q-6 -6 -6 -23zM498 717q20 0 20 -15v-49q0 -8 10 -22l17 -4q4 -2 18 -2q12 0 25 4q8 4 10 6q8 6 8 22v50l10 8l2 2h9v4h-47v-4h10q2 0 4 -2q12 -4 12 -23v-33q0 -12 -10 -22l-12 -8h-15q-12 0 -18 2q-2 0 -10 8 q-4 4 -4 14v49q0 10 4 11q4 4 14 4h6v4h-63v-4zM510 92v21h16v28h31v-28h16v-21h-16v-61q0 -8 2 -8q0 -2 2 -3h8l2 3h2v-25h-16q-14 0 -20 4q-6 0 -9 8q-2 2 -2 13v69h-16zM510 821q2 -8 10 -12q10 -10 23 -6q14 0 26 6q10 2 17.5 6t15.5 8t15.5 9.5t15.5 13.5l24 20l15 15 q0 2 4 6q0 2 2 4l4 6l16 16l15 21q6 4 10 10t8 10l6 -2l4 -6q0 -2 2 -4v-2q0 -2 -2 -4t-4 -6l-16 -17l-14 -20l-13 -19l-4 -18q-2 -2 -2 -8v-6l4 -8h8q10 0 17 2l16 10q4 4 10.5 8t10.5 10q6 4 10 8.5t8 8.5q2 4 4 6t4 6l8 10l5 4l4 6q4 4 4 5l12 16l21 31q0 -4 1 -7.5 t1 -7.5q4 -12 4 -14l4 -8q-16 -4 -25 -13l-20 -14q-4 -4 -7.5 -9t-5.5 -9q-2 -6 -2 -17q0 -6 11 -10h18q12 0 25 8q16 8 22 17q6 4 9 8t8 8l8 18q6 8 6 19v16q0 6 -4 15l-6 16l-7 6q0 4 -4 8q0 2 -2 4v7v4h-8l-4 -4q-4 -2 -6 -4.5t-6 -4.5l-4 -12l-2 -2l-4 -6l-33 -45l-4 -6 l-6 -11h-3v-2q-2 0 -4 -2l-4 -8l-6 -8l-14 -18l-23 -21q-4 -4 -12 -6q-4 -4 -12 -4v2l8 10l6 10l8 11q4 4 6 8l9 14l10 14l4 15q2 6 2 14q-2 2 -2 8l-2 4q0 4 -2 7v22l6 10q4 6 -4 13q-4 6 -17 0q-10 -2 -16 -9q-6 -2 -10 -12q-4 -4 -4 -10q0 -8 2 -12l4 -2l4 -5l-6 -6 l-6 -6l-23 -31l-20 -22q-4 0 -4 -4v-2l-2 -2q0 -2 -2 -2l-11 -15q-8 -6 -14 -12t-14 -10q-12 -12 -33 -23q-12 -4 -21 -8q-12 -4 -18 -2q-6 0 -6 4q-2 2 -2 6q0 2 4 11l2 8l10 16q4 -2 12 -2h19q10 2 26 12q6 2 11.5 6.5t13.5 8.5l14 16q4 4 7.5 8t3.5 8l8 13q0 12 -4 14 q-4 8 -8 10h-19h-9t-9 -4q-4 -2 -10.5 -4t-10.5 -4q-27 -14 -45 -29q-18 -16 -29 -34q-4 -4 -6 -9.5t-6 -11.5q-6 -8 -8 -18v-17zM545 -115h14v27h29v-27h16v-20h-16v-55q0 -6 2 -9q0 -2 2 -2h6l4 2h2v-22h-6h-6h-4q-12 0 -17 2q-10 4 -10 8q-2 2 -2 12v64h-14v20zM567 870 l15 23l18 20l6 9q4 4 6 5t4 3l11 10l12 4q8 2 14 0v-10l-6 -8q-6 -6 -6 -11q-4 -4 -5 -6t-5 -4q0 -2 -8 -10q-2 -2 -3.5 -4t-5.5 -4q-4 -4 -6 -5t-4 -3l-12 -9q-6 -2 -12 -2q-10 0 -13 2zM610 -115h33l21 -78l20 78h31l-35 -102l-2 -2l-8 -23q-4 -10 -6 -12q-6 -6 -11 -6 q-4 0 -7 -1t-7 -1h-6h-8v22h8h8q2 0 6 4v5q2 2 2 6l-37 102zM639 694q0 -2 4 -10q0 -6 6 -6l13 -6q2 -2 20 -6l8 -2q8 -4 12 -5q4 0 9 -4q2 0 2 -2q6 -4 6 -10l-4 -8q-2 -4 -8 -6h-11q-10 0 -16 2l-16 6l-11 10q-10 10 -10 21h-2v-43h2q0 6 4 6q4 4 8 4q2 0 2 -1t5 -1 q2 0 3 -1t3 -1l14 -4q4 -2 14 -2q4 0 17 4q2 0 12 6q2 2 2 4t4 4v21l-6 6q-2 4 -12 8l-17 6h-10l-2 2q-4 2 -8 2t-6 2q-6 0 -8 2q-2 0 -7 4q-2 0 -2 4v2v9l4 4l9 4q2 0 4 1t6 1q6 0 14 -4q8 0 12 -4q8 -4 11 -8q4 -2 5 -7.5t5 -9.5h2v31h-2q-2 -6 -8 -6h-8q-16 10 -31 10 q-8 0 -21 -4l-12 -8q-2 -4 -3 -7.5t-1 -9.5zM641 92v21h14v8q0 33 35 33h15v-25h-9h-6q-4 0 -4 -4v-12h19v-21h-19v-94h-31v94h-14zM723 37v76h29v-70q0 -20 20 -20h10l11 10q0 2 2 5t2 7v68h26v-115h-26v16q-6 -8 -15 -12q-12 -6 -20 -6q-20 0 -29 12q-10 8 -10 29z M731 -115h25v-16h4q2 0 4 2l8 8q4 4 8 6q2 2 8 2q10 0 17 -4q8 -4 12 -8q8 -8 10 -20q6 -10 7 -23q0 -4 -1.5 -6t-1.5 -6t-2 -6t-4 -7q-4 -16 -12 -22q-10 -8 -25 -8q-10 0 -14 2t-8 6q-2 2 -6 2l-2 4v-51h-27v100v45zM741 627h103v39q-4 -4 -4 -7.5t-2 -5.5l-11 -14 q-6 -6 -8 -6l-10 -2q-4 -2 -12 -2h-15v41h2q8 0 19 -6l4 -7q0 -2 1 -3t1 -3v-8h2v59h-2v-8l-4 -10q-10 -10 -19 -10h-4v43h17q16 0 22 -2l8 -6l5 -11l6 -14h4v37h-103v-4h4q8 0 11 -4q6 0 6 -11v-57q0 -16 -17 -16h-4v-2zM756 -170q0 -14 8 -20q6 -8 16 -9q12 0 19 9 q4 12 4 22t-4 23q-4 4 -8.5 7t-10.5 3q-25 0 -24 -35zM793 868v9l4 10l6 8q8 10 18 18l23 11q0 -4 1 -6.5t1 -4.5q-2 -4 -2 -8v-12l-4 -8q-2 -4 -4 -5t-5 -6l-8 -6q-2 0 -3 -1t-5 -1q-2 -2 -8 -2q-4 -4 -8 0q-2 0 -6 4zM844 -166q0 17 4 25q6 14 16 20q10 8 27 8q23 0 31 -8 q10 -6 16 -22q4 -16 4 -27v-6h-72q0 -12 7 -19q6 -6 16 -6q6 0 14 4q4 4 6 9h27q-4 -16 -8 -21q-4 -4 -8 -6t-9 -4q-12 -4 -22 -4q-49 0 -49 57zM852 -2v156h29v-156h-29zM870 -158h43q0 10 -6 17q-4 2 -7 4t-9 2q-16 0 -21 -23zM903 -2v156h29v-156h-29zM905 674 q0 -14 4 -21q4 -4 6.5 -7t6.5 -7q6 -6 18 -10q6 -2 11 -3t12 -1q16 0 26 6q8 4 13.5 9t9.5 9q6 8 6 25q0 10 -4 16q-4 12 -10 17q-4 6 -19 10q-12 6 -22 6q-20 0 -29 -8q-8 -2 -12 -7.5t-9 -9.5q-8 -10 -8 -24zM915 901q0 -8 5 -8q4 -4 6 -5t4 -3h10h12q8 2 14.5 4t12.5 4 l27 14l22 21l19 16l14 21l10 16l6 18q4 10 0 15q0 6 -6 10q0 4 -10 8q-2 0 -6 1t-8 1q-6 0 -19 -4q-4 0 -6 -1l-6 -3l-12 -4l-25 -16q-6 -4 -11 -9.5t-12 -9.5l-16 -18l-12 -19q-10 -16 -13 -26v-23zM928 674q0 4 1 8t1 8l6 12q2 2 3 5.5t3 5.5t4 2t6 2q4 4 13 4q0 -2 2 -2 h4l6 -4l10 -8q0 -4 2 -7.5t4 -9.5q0 -2 1 -7t1 -9q0 -12 -4 -25q-4 -4 -6 -9t-6 -9q-4 -2 -16 -2q-10 0 -13 2q-8 0 -12 10l-6 12q-4 12 -4 21zM940 895v8v4q4 14 10 21q4 6 7.5 11t7.5 11l10 13l8 10l16 20l9.5 9.5l9.5 9.5l8 8l10 4q4 2 11 2l4 -2q2 -2 2 -8q0 -2 -4 -10 l-5 -9l-6 -10q-4 -8 -6 -10l-8 -12l-12 -19l-17 -18l-20 -21q0 -2 -10 -6q-2 -4 -13 -8h-8q-4 0 -4 2zM948 -115h17v9q0 29 30 28h13v-22h-7h-6l-2 -2l-2 -9v-4h19v-20h-19v-86h-26v86h-17v20zM1010 92v21h14v8q0 33 35 33h12v-25h-6h-6q-2 0 -4 -4v-12h20v-21h-20v-94h-31 v94h-14zM1018 -193q0 17 10 23q10 10 21 10l24 4q8 0 8 6q0 16 -14 17q-10 0 -12 -6q-6 -4 -6 -11h-27q0 14 6 21q6 10 14 12q4 2 11 2q4 2 14 2t16.5 -1t12.5 -3q8 -6 12 -12q2 -4 2 -14v-56q0 -10 2 -12q0 -2 4 -6v-4h-31v2q0 2 -1 2t-1 2v6q-4 -2 -5 -4t-3 -4 q-4 -2 -6 -2t-4 -2q-4 -2 -14 -2q-8 0 -15 2q-4 2 -7 4t-7 6q-4 8 -4 18zM1032 627h49v2q-6 0 -10 2h-8l-4 10q-2 2 -2 12v56l80 -82h4v65q0 8 1 12.5t3 8.5q4 4 16 4v4h-47v-4h8q0 -2 4 -2q6 -4 7 -8q4 -4 4 -15v-39l-66 68h-37v-4q8 0 10 -2q2 0 3.5 -1t3.5 -1q2 -4 2 -11 v-53q0 -6 -2 -10t-7 -8q-4 0 -7 -1t-5 -1v-2zM1047 -190q0 -4 4 -9q6 -6 8 -6q4 0 6 4h4q4 2 5 3t5 3q2 4 2 13v12l-8 -4l-14 -2q-4 0 -8 -4t-4 -10zM1051 905q2 0 3 -1t3 -1q4 0 8 2l8 4q0 2 4 6q2 0 2 1.5t2 1.5l4 6q0 4 5 4l16 22l20 21l17 20l22 21l21 20l8 8q4 2 10 9 l10 8l13 4q2 0 2 -2h-2l-4 -4q-2 -6 -9 -8l-4 -7l-12 -14q-4 -4 -6 -7t-6 -7q-10 -12 -15 -23l-14 -20q-2 -4 -3 -9.5t-3 -9.5q-4 -10 0 -16q2 -6 8 -6h19q4 2 9 5t13 7q12 8 19 14l20 21l2 2q-2 -2 -2 -6q0 -6 4 -15q2 -4 10 -8q6 -2 21 2q12 2 24 13l21 14l7 7l7 7l13 13 v-5q0 -2 -1.5 -3t-1.5 -3v-6q-4 -6 0 -10q0 -2 1.5 -3t1.5 -3q0 -6 6 -6h6h10l6 4l8 6l13 6l32 27l17 16l-4 -12q-4 -6 -4 -19v-6q2 0 4 -2q0 -2 6 -2q4 0 8 4q8 0 12 6l11 6l12 13q2 0 10 8l9 9t10 9l18 21v4q0 2 -2 2q-4 0 -8 -4l-2 -4l-13 -15l-10 -12q-10 -6 -12 -12 l-14 -12l-9 -7l-8 -2l-2 -2q-2 0 -4 2h2l8 15q4 8 8 12l7 12q4 2 8 11l63 92q10 10 13 16l16 16l37 43q10 10 17 20.5t16 20.5l10 19v8q-2 2 -8 2q-2 0 -11 -4q-4 0 -6 -2t-6 -4q-4 0 -10 -6l-8 -6q-6 -4 -11.5 -9.5t-11.5 -9.5l-16 -18q-6 -6 -10.5 -11.5t-8.5 -11.5 q-2 -4 -6 -9t-8 -11q-16 -23 -27 -41l-26 -45l-19 -33l-8 -16h-2l-14 -15q-4 -6 -8.5 -10t-10.5 -10l-18 -17l-10 -8l-7 -4l-4 -2l-4 -4h-6h-4l6 10l6 10q0 2 2 4q4 8 8.5 14.5t10.5 12.5q4 6 8 13.5t8 15.5l15 20l8 13q2 4 3 5t3 5l2 2l2 2q0 2 1 2t1 2q6 4 4 8q0 2 -6 2 l-10 -4l-10 -6l-19 -12q-8 -8 -14 -13q0 6 -2 11q0 2 -6 6q-12 2 -21 0q-16 -4 -22 -8q-8 -4 -13.5 -6.5t-11.5 -6.5q-8 -6 -18 -16q-27 -18 -37 -39q-14 -16 -21 -37h-4q-4 -6 -16 -18q-6 -4 -11.5 -8.5t-11.5 -8.5q-2 -4 -12 -8q-4 -4 -10 -4h-2q-2 2 0 4l6 8l6 11l12 14 l21 27q4 6 9 13t9 15l8 17q4 10 2 16q0 6 -2 6q0 4 -6 4t-8 -2l-12 -4l-13 -8q-4 -2 -10 -8q-4 -4 -6 -5t-4 -4q-8 -8 -12 -8l-21 -22q-4 -4 -9 -9.5t-9 -9.5l-11 -12l-10 -10l2 4l25 35l26 37q0 2 1.5 2t1.5 2q2 2 2 4q2 2 2 6l-7 6q-2 0 -3 1t-3 1t-4 -1t-6 -1l-10 -6 l-4 -4q-4 -2 -4 -4t-2 -4l-5 -7l-77 -133q-2 -2 -2 -4v-2zM1083 55q0 6 1 11.5t3 11.5q2 10 11 18q10 10 20 15q6 4 25 4q16 0 24 -4q4 -4 8.5 -5.5t8.5 -5.5t6 -9t6 -11q4 -12 4 -25q0 -16 -8 -30q-2 -8 -18 -21q-10 -8 -31 -8q-20 0 -35 8q-6 4 -10 10t-8 13q-6 12 -7 28z M1114 55q0 -8 2 -13t4 -9q4 -10 23 -10q16 0 20 10q6 6 6 22q0 14 -6 25q-6 10 -20 10q-16 0 -23 -10q-2 -4 -4 -10.5t-2 -14.5zM1128 -170q1 16 11 41q12 16 39 16q10 0 22 -4q8 -2 17 -14q4 -6 7 -11t3 -12h-31q0 4 -4 13q-6 6 -12 6q-10 0 -17 -10q-8 -6 -8 -21 q0 -6 1 -10t1 -8q4 -4 5 -6.5t3 -4.5q4 -4 13 -4q8 0 12 4q6 2 6 13h27q0 -10 -6 -23q-4 -4 -7.5 -7t-7.5 -5q-12 -6 -24 -6q-23 0 -35 12q-6 2 -10 16q-4 12 -5 25zM1167 627h107v41h-2q-4 -4 -4 -6.5t-2 -6.5q-4 -4 -4 -8q-2 -2 -2 -3t-3 -3q-8 -8 -12 -10q-2 0 -6 -1 t-8 -1h-25v73q0 10 6 11q2 4 13 4h6v4h-64v-4h4q16 0 17 -15v-57q0 -16 -17 -16h-4v-2zM1221 -2v115h28v-17q12 18 35 19q14 0 21 -4l14 -13q4 -12 4 -20v-80h-29v70q0 8 -4 16q-6 6 -16 6q-12 0 -19 -8q-4 -4 -4 -19v-65h-30zM1237 -166q0 9 4 25q6 14 16 20q10 8 29 8 q20 0 29 -8q10 -6 14 -22q6 -12 6 -27v-6h-71q0 -12 6 -19q6 -6 16 -6q6 0 14 4q4 4 7 9h26q-4 -16 -10 -21q-8 -8 -14 -10q-12 -4 -23 -4q-49 0 -49 57zM1264 -158h43q0 10 -7 17q-4 2 -7 4t-9 2q-16 0 -20 -23zM1266 963l2 2q0 2 2 4q4 8 6 10l8 10q2 8 6 12q2 4 8 11 l19 24l26 33l7 8l8 6l8 7q2 2 8 2q4 2 8 2l7 -4q0 -2 1 -3.5t1 -3.5q0 -4 -2 -8q0 -2 -5 -6l-16 -22l-12 -23l-17 -14l-16 -19q-2 -2 -4 -3t-6 -5l-13 -10q-2 -2 -4 -3t-6 -5q-4 0 -5 -2t-5 -2q-8 -4 -10 -3h-2q-2 2 -2 5zM1268 717h2q10 0 14 -2l4 -4t4 -6l29 -39v-21 q0 -10 -2 -12q-8 -4 -14 -4h-7v-2h68v2h-8q-8 0 -12 4t-5 12v23l25 34l4 7q8 4 10 4q0 2 4 2q2 0 3.5 1t3.5 1h2v4h-47v-4h6q8 0 10 -2q4 -2 4 -6t-6 -11l-19 -26l-24 30q-4 8 -4 9v2q0 2 2 2q0 2 6 2h8v4h-61v-4zM1337 92v21h19v28h26v-28h21v-21h-21v-61v-6q0 -2 2 -2 q4 0 5.5 -1.5t5.5 -1.5l4 3h4v-25h-21q-14 0 -16 4q-8 0 -10 8v82h-19zM1352 -190h30v-31h-30v31zM1401 -170q0 16 10 41q12 16 39 16q10 0 23 -4q6 -2 18 -14q8 -10 8 -23h-29l-6 13q-6 6 -12 6q-10 0 -16 -10q-6 -6 -6 -21q0 -6 1 -10t1 -8q4 -8 8 -11q2 -4 10 -4 q10 0 12 4q6 2 6 13h31q-4 -12 -8 -23q-4 -4 -8 -7t-8 -5q-10 -6 -25 -6q-20 0 -35 12q-6 2 -10 16q-4 12 -4 25zM1473 31q0 16 8 24q16 8 24 11l27 4q10 0 10 8q0 14 -18 14q-8 0 -13 -4q-6 -2 -8 -14h-26q0 14 6 24q4 6 16 13q4 4 12 4h13q25 0 32 -4l7.5 -7.5t5.5 -7.5 t2 -14v-72q0 -6 8 -6v-6h-33q-2 0 -2 2v2v2q0 4 -1 5t-1 3l-8 -8q-2 -2 -3 -2t-3 -2t-4 -2q-6 0 -9.5 -1t-7.5 -1t-8 1t-8 1q-4 4 -7 6t-7 6q-4 8 -4 21zM1501 31q0 -8 4 -8q4 -4 11 -5h8l4 2q10 4 10 7q4 8 4 14v14q-6 -6 -12 -6l-14 -4q-6 0 -11 -4q-4 -2 -4 -10z M1511 -168q0 13 2 21q4 12 11 18q6 8 16 12q12 4 25 4q10 0 22 -4l8 -4t9 -6q4 -4 5 -9t5 -9q2 -6 2 -23q0 -16 -6 -29q-4 -14 -17 -20q-12 -6 -28 -6q-20 0 -31 8q-12 6 -18 20q-4 16 -5 27zM1538 -168q0 -14 6 -22q2 -4 8.5 -6.5t12.5 -2.5q16 0 18 9q6 8 6 22q0 13 -6 23 q-4 10 -18 10q-16 0 -21 -10q-6 -10 -6 -23zM1567 1167l28 37l13 23l26 35l2 2q0 4 4 4q0 2 2 2q0 -8 -2 -10l-8 -11l-6 -10q-2 -2 -3 -4t-3 -4l-16 -21l-19 -20l-10 -12q-4 -8 -8 -11zM1585 92v21h14v28h33v-28h19v-21h-19v-61v-8q2 0 4 -1.5t6 -1.5l5 3h4v-25h-19 q-14 0 -20 4q-6 0 -8 8q0 2 -2.5 5t-2.5 8v69h-14zM1636 -115h27v-16q8 18 31 18q8 0 16 -4q6 -4 12 -12q2 8 11 12q8 4 16 4q10 0 23 -4q8 -8 10 -14q4 -8 4 -19v-71h-27v63q0 23 -16 23q-18 0 -19 -23v-63h-26v63v11q0 4 -4 8t-15 4q-16 0 -16 -23v-63h-27v106z" />
<glyph unicode="7" d="M70 -193q0 17 8 23q10 10 20 10l27 4q10 0 10 6q0 16 -16 17q-10 0 -13 -6q-8 -2 -8 -11h-24q0 14 6 21q2 8 12 12q4 2 14 2q4 2 13 2q14 0 26 -4q8 -6 13 -12q2 -4 2 -14v-56q0 -10 2 -12q0 -2 4 -6v-4h-29v2v4q-2 2 -2 6l-8 -8q-4 -2 -6 -2t-4 -2q-4 -2 -13 -2 q-12 0 -18 2q-6 4 -10 10q-6 6 -6 18zM96 -190q0 -4 4 -9q4 -2 6.5 -4t4.5 -2q4 0 6 4h4q8 4 10 6q4 8 4 13v12q-2 0 -10 -4l-12 -2q-4 0 -13 -4q-4 -4 -4 -10zM125 565v494l268 59l-10 37l41 12l-8 39l41 8l-6 46l41 2v41h36l4 36l39 -6l9 41l43 -6l10 39l39 -10l16 37 l39 -17l23 39l34 -18l23 35l37 -25l24 33l35 -27l27 29l26 -25l27 23l27 -29l34 23l23 -37l39 20l18 -35l37 17l17 -41l43 12l12 -39l39 10l8 -43l43 4l2 -26l404 88v-496l-185 -41l4 -2l-24 -26l24 -29l-32 -27l22 -34l-37 -23l23 -37l-35 -20l14 -37l-39 -17l13 -43 l-37 -12l6 -39l-41 -8l2 -43l-39 -4v-39h-35l-6 -37l-39 2l-8 -37l-43 6l-10 -40l-39 12l-14 -39l-44 16l-18 -39l-37 21l-22 -35l-37 23l-25 -33l-30 26l-31 -26l-27 24l-26 -24l-25 31l-35 -23l-24 37l-37 -21l-19 35l-39 -16l-18 41l-39 -13l-12 37l-41 -8l-8 43l-43 -4 l-5 41h-40v35l-35 4l4 41l-41 6l8 43l-41 12l12 37l-28 12zM186 -115h25v-18h2q4 8 6 10t3 4t5 4q2 2 15 2h2h4v-28h-8q-27 0 -27 -25v-55h-27v106zM236 76v16q0 4 2 7t2 7q2 12 14 25q4 6 10 10t12 9q14 6 33 6h6q4 0 8.5 -1t8.5 -1q8 0 14 -7q14 -8 21 -18q4 -4 8 -12 q0 -2 1 -3t1 -3v-5h-33v3q0 2 -4 6q-2 4 -4 5t-6 5q-6 4 -19 4h-8h-6l-14 -12q-10 -6 -11 -15q-4 -8 -4 -28q0 -8 1 -14.5t3 -14.5q2 -10 13 -14q6 -4 10 -6t10 -2h4q12 0 19 4q4 0 7 3l5 5q4 6 6 10t2 10h-37v27h66v-84h-21l-4 20q-6 -8 -14 -14q-4 -4 -9 -5t-10 -3 q-4 0 -9 -1t-9 -1q-12 0 -25 6q-14 6 -20 16q-8 6 -16 27q-4 10 -4 33zM236 702h10l8 5l10 10l8 10l11 10q4 8 8 13l63 86l19 30l20 31q6 8 11.5 15.5t9.5 15.5q4 10 8 17t8 16q2 4 0 6t-4 2q-8 0 -10 -2l-8 -4l-17 -21l-16 -20q-6 -6 -15 -19l-16 -20l-55 -80l-27 -41 q-6 -10 -11 -21.5t-11 -21.5l-4 -6v-4v-4v-3zM262 -78h29v-24h-29v24zM262 -115h29v-106h-29v106zM276 889q2 -4 4.5 -6t6.5 -6l18 -7q14 0 23 2q4 0 4 2q2 2 2 5q0 2 -2 2h-4q-4 0 -4 -2q-14 -2 -29 2q-8 4 -10 8q0 4 -1 5t-1 5q0 6 2 12l6 15l16 18q4 4 10.5 8t12.5 9 q6 4 11 7t13 7l25 12q8 0 14 2t15 6l28 4q16 4 27 5q6 0 22 -5q10 0 15 -6l10 -12v-16q0 -12 -2 -21l-10 -18q-4 -6 -7.5 -11.5t-7.5 -9.5q-4 -6 -9 -10t-11 -10q-4 -6 -21 -19l-22 -14l-25 -10l-14 -6q-2 0 -5 -1t-7 -1h-4q-4 0 -7 -3q-2 0 -2 -2q-4 0 -4 -4q0 -2 2 -2h4 q4 0 7 2h4l26 9l27 12l27 10l26 16l23 17l20 18l17 21q4 4 7 9t5 11q4 12 4 19q2 10 0 18q-2 4 -3 7t-3 7q-6 6 -15 11q-6 2 -10 3t-10 1q-8 2 -23 2q-8 0 -24 -4q-14 0 -27.5 -4t-29.5 -9q-29 -8 -54 -22q-6 -4 -13 -7t-13 -7t-12.5 -8.5t-10.5 -10.5l-9 -9l-9 -9l-9 -21 q-4 -10 0 -16zM317 -115h25v-16q12 18 33 18q8 0 20 -4q6 -4 13 -12q4 -8 4 -21v-71h-29v63q0 12 -2 15q-4 8 -16 8q-8 0 -17 -8q-4 -12 -4 -17v-61h-27v106zM395 57q0 20 6 29q4 14 17 20q8 6 15 7.5t18 1.5q23 0 28 -9q12 -6 19 -22q4 -10 4 -31v-8h-78q0 -6 8 -18 q6 -6 19 -7q4 0 7 1.5t5 1.5q8 8 8 10h31q-6 -12 -10 -21q-4 -4 -8.5 -7t-8.5 -5l-12 -3t-12 -1q-55 0 -56 61zM428 68h45q-4 12 -8 16q-8 8 -14 8q-23 0 -23 -24zM430 -166q0 6 2 12.5t4 12.5q6 14 15 20q8 8 24 8q6 0 19 -4l7 -7t5 -7l2 16h24v-100q0 -10 -4 -27 q-6 -10 -16 -14q-12 -6 -33 -6q-4 0 -9 1t-9 1q-6 2 -19 10q-4 4 -4 8q-2 4 -2 11h27q2 -4 6 -9q2 -2 12 -2q12 0 15 2q8 6 8 9q0 2 1 3t1 3v6v12q-12 -14 -29 -14q-6 0 -11 1t-11 3q-10 8 -17 20q-4 6 -6 13.5t-2 17.5zM461 -168q0 -8 2 -14q0 -4 6 -11q8 -4 12 -4 q25 0 25 29q0 14 -8 23q-4 4 -8.5 7t-8.5 3q-8 0 -14 -10q-6 -6 -6 -23zM498 717q20 0 20 -15v-49q0 -8 10 -22l17 -4q4 -2 18 -2q12 0 25 4q8 4 10 6q8 6 8 22v50l10 8l2 2h9v4h-47v-4h10q2 0 4 -2q12 -4 12 -23v-33q0 -12 -10 -22l-12 -8h-15q-12 0 -18 2q-2 0 -10 8 q-4 4 -4 14v49q0 10 4 11q4 4 14 4h6v4h-63v-4zM510 92v21h16v28h31v-28h16v-21h-16v-61q0 -8 2 -8q0 -2 2 -3h8l2 3h2v-25h-16q-14 0 -20 4q-6 0 -9 8q-2 2 -2 13v69h-16zM510 821q2 -8 10 -12q10 -10 23 -6q14 0 26 6q10 2 17.5 6t15.5 8t15.5 9.5t15.5 13.5l24 20l15 15 q0 2 4 6q0 2 2 4l4 6l16 16l15 21q6 4 10 10t8 10l6 -2l4 -6q0 -2 2 -4v-2q0 -2 -2 -4t-4 -6l-16 -17l-14 -20l-13 -19l-4 -18q-2 -2 -2 -8v-6l4 -8h8q10 0 17 2l16 10q4 4 10.5 8t10.5 10q6 4 10 8.5t8 8.5q2 4 4 6t4 6l8 10l5 4l4 6q4 4 4 5l12 16l21 31q0 -4 1 -7.5 t1 -7.5q4 -12 4 -14l4 -8q-16 -4 -25 -13l-20 -14q-4 -4 -7.5 -9t-5.5 -9q-2 -6 -2 -17q0 -6 11 -10h18q12 0 25 8q16 8 22 17q6 4 9 8t8 8l8 18q6 8 6 19v16q0 6 -4 15l-6 16l-7 6q0 4 -4 8q0 2 -2 4v7v4h-8l-4 -4q-4 -2 -6 -4.5t-6 -4.5l-4 -12l-2 -2l-4 -6l-33 -45l-4 -6 l-6 -11h-3v-2q-2 0 -4 -2l-4 -8l-6 -8l-14 -18l-23 -21q-4 -4 -12 -6q-4 -4 -12 -4v2l8 10l6 10l8 11q4 4 6 8l9 14l10 14l4 15q2 6 2 14q-2 2 -2 8l-2 4q0 4 -2 7v22l6 10q4 6 -4 13q-4 6 -17 0q-10 -2 -16 -9q-6 -2 -10 -12q-4 -4 -4 -10q0 -8 2 -12l4 -2l4 -5l-6 -6 l-6 -6l-23 -31l-20 -22q-4 0 -4 -4v-2l-2 -2q0 -2 -2 -2l-11 -15q-8 -6 -14 -12t-14 -10q-12 -12 -33 -23q-12 -4 -21 -8q-12 -4 -18 -2q-6 0 -6 4q-2 2 -2 6q0 2 4 11l2 8l10 16q4 -2 12 -2h19q10 2 26 12q6 2 11.5 6.5t13.5 8.5l14 16q4 4 7.5 8t3.5 8l8 13q0 12 -4 14 q-4 8 -8 10h-19h-9t-9 -4q-4 -2 -10.5 -4t-10.5 -4q-27 -14 -45 -29q-18 -16 -29 -34q-4 -4 -6 -9.5t-6 -11.5q-6 -8 -8 -18v-17zM545 -115h14v27h29v-27h16v-20h-16v-55q0 -6 2 -9q0 -2 2 -2h6l4 2h2v-22h-6h-6h-4q-12 0 -17 2q-10 4 -10 8q-2 2 -2 12v64h-14v20zM567 870 l15 23l18 20l6 9q4 4 6 5t4 3l11 10l12 4q8 2 14 0v-10l-6 -8q-6 -6 -6 -11q-4 -4 -5 -6t-5 -4q0 -2 -8 -10q-2 -2 -3.5 -4t-5.5 -4q-4 -4 -6 -5t-4 -3l-12 -9q-6 -2 -12 -2q-10 0 -13 2zM610 -115h33l21 -78l20 78h31l-35 -102l-2 -2l-8 -23q-4 -10 -6 -12q-6 -6 -11 -6 q-4 0 -7 -1t-7 -1h-6h-8v22h8h8q2 0 6 4v5q2 2 2 6l-37 102zM639 694q0 -2 4 -10q0 -6 6 -6l13 -6q2 -2 20 -6l8 -2q8 -4 12 -5q4 0 9 -4q2 0 2 -2q6 -4 6 -10l-4 -8q-2 -4 -8 -6h-11q-10 0 -16 2l-16 6l-11 10q-10 10 -10 21h-2v-43h2q0 6 4 6q4 4 8 4q2 0 2 -1t5 -1 q2 0 3 -1t3 -1l14 -4q4 -2 14 -2q4 0 17 4q2 0 12 6q2 2 2 4t4 4v21l-6 6q-2 4 -12 8l-17 6h-10l-2 2q-4 2 -8 2t-6 2q-6 0 -8 2q-2 0 -7 4q-2 0 -2 4v2v9l4 4l9 4q2 0 4 1t6 1q6 0 14 -4q8 0 12 -4q8 -4 11 -8q4 -2 5 -7.5t5 -9.5h2v31h-2q-2 -6 -8 -6h-8q-16 10 -31 10 q-8 0 -21 -4l-12 -8q-2 -4 -3 -7.5t-1 -9.5zM641 92v21h14v8q0 33 35 33h15v-25h-9h-6q-4 0 -4 -4v-12h19v-21h-19v-94h-31v94h-14zM723 37v76h29v-70q0 -20 20 -20h10l11 10q0 2 2 5t2 7v68h26v-115h-26v16q-6 -8 -15 -12q-12 -6 -20 -6q-20 0 -29 12q-10 8 -10 29z M731 -115h25v-16h4q2 0 4 2l8 8q4 4 8 6q2 2 8 2q10 0 17 -4q8 -4 12 -8q8 -8 10 -20q6 -10 7 -23q0 -4 -1.5 -6t-1.5 -6t-2 -6t-4 -7q-4 -16 -12 -22q-10 -8 -25 -8q-10 0 -14 2t-8 6q-2 2 -6 2l-2 4v-51h-27v100v45zM741 627h103v39q-4 -4 -4 -7.5t-2 -5.5l-11 -14 q-6 -6 -8 -6l-10 -2q-4 -2 -12 -2h-15v41h2q8 0 19 -6l4 -7q0 -2 1 -3t1 -3v-8h2v59h-2v-8l-4 -10q-10 -10 -19 -10h-4v43h17q16 0 22 -2l8 -6l5 -11l6 -14h4v37h-103v-4h4q8 0 11 -4q6 0 6 -11v-57q0 -16 -17 -16h-4v-2zM756 -170q0 -14 8 -20q6 -8 16 -9q12 0 19 9 q4 12 4 22t-4 23q-4 4 -8.5 7t-10.5 3q-25 0 -24 -35zM793 868v9l4 10l6 8q8 10 18 18l23 11q0 -4 1 -6.5t1 -4.5q-2 -4 -2 -8v-12l-4 -8q-2 -4 -4 -5t-5 -6l-8 -6q-2 0 -3 -1t-5 -1q-2 -2 -8 -2q-4 -4 -8 0q-2 0 -6 4zM844 -166q0 17 4 25q6 14 16 20q10 8 27 8q23 0 31 -8 q10 -6 16 -22q4 -16 4 -27v-6h-72q0 -12 7 -19q6 -6 16 -6q6 0 14 4q4 4 6 9h27q-4 -16 -8 -21q-4 -4 -8 -6t-9 -4q-12 -4 -22 -4q-49 0 -49 57zM852 -2v156h29v-156h-29zM870 -158h43q0 10 -6 17q-4 2 -7 4t-9 2q-16 0 -21 -23zM903 -2v156h29v-156h-29zM905 674 q0 -14 4 -21q4 -4 6.5 -7t6.5 -7q6 -6 18 -10q6 -2 11 -3t12 -1q16 0 26 6q8 4 13.5 9t9.5 9q6 8 6 25q0 10 -4 16q-4 12 -10 17q-4 6 -19 10q-12 6 -22 6q-20 0 -29 -8q-8 -2 -12 -7.5t-9 -9.5q-8 -10 -8 -24zM915 901q0 -8 5 -8q4 -4 6 -5t4 -3h10h12q8 2 14.5 4t12.5 4 l27 14l22 21l19 16l14 21l10 16l6 18q4 10 0 15q0 6 -6 10q0 4 -10 8q-2 0 -6 1t-8 1q-6 0 -19 -4q-4 0 -6 -1l-6 -3l-12 -4l-25 -16q-6 -4 -11 -9.5t-12 -9.5l-16 -18l-12 -19q-10 -16 -13 -26v-23zM928 674q0 4 1 8t1 8l6 12q2 2 3 5.5t3 5.5t4 2t6 2q4 4 13 4q0 -2 2 -2 h4l6 -4l10 -8q0 -4 2 -7.5t4 -9.5q0 -2 1 -7t1 -9q0 -12 -4 -25q-4 -4 -6 -9t-6 -9q-4 -2 -16 -2q-10 0 -13 2q-8 0 -12 10l-6 12q-4 12 -4 21zM940 895v8v4q4 14 10 21q4 6 7.5 11t7.5 11l10 13l8 10l16 20l9.5 9.5l9.5 9.5l8 8l10 4q4 2 11 2l4 -2q2 -2 2 -8q0 -2 -4 -10 l-5 -9l-6 -10q-4 -8 -6 -10l-8 -12l-12 -19l-17 -18l-20 -21q0 -2 -10 -6q-2 -4 -13 -8h-8q-4 0 -4 2zM948 -115h17v9q0 29 30 28h13v-22h-7h-6l-2 -2l-2 -9v-4h19v-20h-19v-86h-26v86h-17v20zM1010 92v21h14v8q0 33 35 33h12v-25h-6h-6q-2 0 -4 -4v-12h20v-21h-20v-94h-31 v94h-14zM1018 -193q0 17 10 23q10 10 21 10l24 4q8 0 8 6q0 16 -14 17q-10 0 -12 -6q-6 -4 -6 -11h-27q0 14 6 21q6 10 14 12q4 2 11 2q4 2 14 2t16.5 -1t12.5 -3q8 -6 12 -12q2 -4 2 -14v-56q0 -10 2 -12q0 -2 4 -6v-4h-31v2q0 2 -1 2t-1 2v6q-4 -2 -5 -4t-3 -4 q-4 -2 -6 -2t-4 -2q-4 -2 -14 -2q-8 0 -15 2q-4 2 -7 4t-7 6q-4 8 -4 18zM1032 627h49v2q-6 0 -10 2h-8l-4 10q-2 2 -2 12v56l80 -82h4v65q0 8 1 12.5t3 8.5q4 4 16 4v4h-47v-4h8q0 -2 4 -2q6 -4 7 -8q4 -4 4 -15v-39l-66 68h-37v-4q8 0 10 -2q2 0 3.5 -1t3.5 -1q2 -4 2 -11 v-53q0 -6 -2 -10t-7 -8q-4 0 -7 -1t-5 -1v-2zM1047 -190q0 -4 4 -9q6 -6 8 -6q4 0 6 4h4q4 2 5 3t5 3q2 4 2 13v12l-8 -4l-14 -2q-4 0 -8 -4t-4 -10zM1051 905q2 0 3 -1t3 -1q4 0 8 2l8 4q0 2 4 6q2 0 2 1.5t2 1.5l4 6q0 4 5 4l16 22l20 21l17 20l22 21l21 20l8 8q4 2 10 9 l10 8l13 4q2 0 2 -2h-2l-4 -4q-2 -6 -9 -8l-4 -7l-12 -14q-4 -4 -6 -7t-6 -7q-10 -12 -15 -23l-14 -20q-2 -4 -3 -9.5t-3 -9.5q-4 -10 0 -16q2 -6 8 -6h19q4 2 9 5t13 7q12 8 19 14l20 21l2 2q-2 -2 -2 -6q0 -6 4 -15q2 -4 10 -8q6 -2 21 2q12 2 24 13l21 14l7 7l7 7l13 13 v-5q0 -2 -1.5 -3t-1.5 -3v-6q-4 -6 0 -10q0 -2 1.5 -3t1.5 -3q0 -6 6 -6h6h10l6 4l8 6l13 6l32 27l17 16l-4 -12q-4 -6 -4 -19v-6q2 0 4 -2q0 -2 6 -2q4 0 8 4q8 0 12 6l11 6l12 13q2 0 10 8l9 9t10 9l18 21v4q0 2 -2 2q-4 0 -8 -4l-2 -4l-13 -15l-10 -12q-10 -6 -12 -12 l-14 -12l-9 -7l-8 -2l-2 -2q-2 0 -4 2h2l8 15q4 8 8 12l7 12q4 2 8 11l63 92q10 10 13 16l16 16l37 43q10 10 17 20.5t16 20.5l10 19v8q-2 2 -8 2q-2 0 -11 -4q-4 0 -6 -2t-6 -4q-4 0 -10 -6l-8 -6q-6 -4 -11.5 -9.5t-11.5 -9.5l-16 -18q-6 -6 -10.5 -11.5t-8.5 -11.5 q-2 -4 -6 -9t-8 -11q-16 -23 -27 -41l-26 -45l-19 -33l-8 -16h-2l-14 -15q-4 -6 -8.5 -10t-10.5 -10l-18 -17l-10 -8l-7 -4l-4 -2l-4 -4h-6h-4l6 10l6 10q0 2 2 4q4 8 8.5 14.5t10.5 12.5q4 6 8 13.5t8 15.5l15 20l8 13q2 4 3 5t3 5l2 2l2 2q0 2 1 2t1 2q6 4 4 8q0 2 -6 2 l-10 -4l-10 -6l-19 -12q-8 -8 -14 -13q0 6 -2 11q0 2 -6 6q-12 2 -21 0q-16 -4 -22 -8q-8 -4 -13.5 -6.5t-11.5 -6.5q-8 -6 -18 -16q-27 -18 -37 -39q-14 -16 -21 -37h-4q-4 -6 -16 -18q-6 -4 -11.5 -8.5t-11.5 -8.5q-2 -4 -12 -8q-4 -4 -10 -4h-2q-2 2 0 4l6 8l6 11l12 14 l21 27q4 6 9 13t9 15l8 17q4 10 2 16q0 6 -2 6q0 4 -6 4t-8 -2l-12 -4l-13 -8q-4 -2 -10 -8q-4 -4 -6 -5t-4 -4q-8 -8 -12 -8l-21 -22q-4 -4 -9 -9.5t-9 -9.5l-11 -12l-10 -10l2 4l25 35l26 37q0 2 1.5 2t1.5 2q2 2 2 4q2 2 2 6l-7 6q-2 0 -3 1t-3 1t-4 -1t-6 -1l-10 -6 l-4 -4q-4 -2 -4 -4t-2 -4l-5 -7l-77 -133q-2 -2 -2 -4v-2zM1083 55q0 6 1 11.5t3 11.5q2 10 11 18q10 10 20 15q6 4 25 4q16 0 24 -4q4 -4 8.5 -5.5t8.5 -5.5t6 -9t6 -11q4 -12 4 -25q0 -16 -8 -30q-2 -8 -18 -21q-10 -8 -31 -8q-20 0 -35 8q-6 4 -10 10t-8 13q-6 12 -7 28z M1114 55q0 -8 2 -13t4 -9q4 -10 23 -10q16 0 20 10q6 6 6 22q0 14 -6 25q-6 10 -20 10q-16 0 -23 -10q-2 -4 -4 -10.5t-2 -14.5zM1128 -170q1 16 11 41q12 16 39 16q10 0 22 -4q8 -2 17 -14q4 -6 7 -11t3 -12h-31q0 4 -4 13q-6 6 -12 6q-10 0 -17 -10q-8 -6 -8 -21 q0 -6 1 -10t1 -8q4 -4 5 -6.5t3 -4.5q4 -4 13 -4q8 0 12 4q6 2 6 13h27q0 -10 -6 -23q-4 -4 -7.5 -7t-7.5 -5q-12 -6 -24 -6q-23 0 -35 12q-6 2 -10 16q-4 12 -5 25zM1167 627h107v41h-2q-4 -4 -4 -6.5t-2 -6.5q-4 -4 -4 -8q-2 -2 -2 -3t-3 -3q-8 -8 -12 -10q-2 0 -6 -1 t-8 -1h-25v73q0 10 6 11q2 4 13 4h6v4h-64v-4h4q16 0 17 -15v-57q0 -16 -17 -16h-4v-2zM1221 -2v115h28v-17q12 18 35 19q14 0 21 -4l14 -13q4 -12 4 -20v-80h-29v70q0 8 -4 16q-6 6 -16 6q-12 0 -19 -8q-4 -4 -4 -19v-65h-30zM1237 -166q0 9 4 25q6 14 16 20q10 8 29 8 q20 0 29 -8q10 -6 14 -22q6 -12 6 -27v-6h-71q0 -12 6 -19q6 -6 16 -6q6 0 14 4q4 4 7 9h26q-4 -16 -10 -21q-8 -8 -14 -10q-12 -4 -23 -4q-49 0 -49 57zM1264 -158h43q0 10 -7 17q-4 2 -7 4t-9 2q-16 0 -20 -23zM1266 963l2 2q0 2 2 4q4 8 6 10l8 10q2 8 6 12q2 4 8 11 l19 24l26 33l7 8l8 6l8 7q2 2 8 2q4 2 8 2l7 -4q0 -2 1 -3.5t1 -3.5q0 -4 -2 -8q0 -2 -5 -6l-16 -22l-12 -23l-17 -14l-16 -19q-2 -2 -4 -3t-6 -5l-13 -10q-2 -2 -4 -3t-6 -5q-4 0 -5 -2t-5 -2q-8 -4 -10 -3h-2q-2 2 -2 5zM1268 717h2q10 0 14 -2l4 -4t4 -6l29 -39v-21 q0 -10 -2 -12q-8 -4 -14 -4h-7v-2h68v2h-8q-8 0 -12 4t-5 12v23l25 34l4 7q8 4 10 4q0 2 4 2q2 0 3.5 1t3.5 1h2v4h-47v-4h6q8 0 10 -2q4 -2 4 -6t-6 -11l-19 -26l-24 30q-4 8 -4 9v2q0 2 2 2q0 2 6 2h8v4h-61v-4zM1337 92v21h19v28h26v-28h21v-21h-21v-61v-6q0 -2 2 -2 q4 0 5.5 -1.5t5.5 -1.5l4 3h4v-25h-21q-14 0 -16 4q-8 0 -10 8v82h-19zM1352 -190h30v-31h-30v31zM1401 -170q0 16 10 41q12 16 39 16q10 0 23 -4q6 -2 18 -14q8 -10 8 -23h-29l-6 13q-6 6 -12 6q-10 0 -16 -10q-6 -6 -6 -21q0 -6 1 -10t1 -8q4 -8 8 -11q2 -4 10 -4 q10 0 12 4q6 2 6 13h31q-4 -12 -8 -23q-4 -4 -8 -7t-8 -5q-10 -6 -25 -6q-20 0 -35 12q-6 2 -10 16q-4 12 -4 25zM1473 31q0 16 8 24q16 8 24 11l27 4q10 0 10 8q0 14 -18 14q-8 0 -13 -4q-6 -2 -8 -14h-26q0 14 6 24q4 6 16 13q4 4 12 4h13q25 0 32 -4l7.5 -7.5t5.5 -7.5 t2 -14v-72q0 -6 8 -6v-6h-33q-2 0 -2 2v2v2q0 4 -1 5t-1 3l-8 -8q-2 -2 -3 -2t-3 -2t-4 -2q-6 0 -9.5 -1t-7.5 -1t-8 1t-8 1q-4 4 -7 6t-7 6q-4 8 -4 21zM1501 31q0 -8 4 -8q4 -4 11 -5h8l4 2q10 4 10 7q4 8 4 14v14q-6 -6 -12 -6l-14 -4q-6 0 -11 -4q-4 -2 -4 -10z M1511 -168q0 13 2 21q4 12 11 18q6 8 16 12q12 4 25 4q10 0 22 -4l8 -4t9 -6q4 -4 5 -9t5 -9q2 -6 2 -23q0 -16 -6 -29q-4 -14 -17 -20q-12 -6 -28 -6q-20 0 -31 8q-12 6 -18 20q-4 16 -5 27zM1538 -168q0 -14 6 -22q2 -4 8.5 -6.5t12.5 -2.5q16 0 18 9q6 8 6 22q0 13 -6 23 q-4 10 -18 10q-16 0 -21 -10q-6 -10 -6 -23zM1567 1167l28 37l13 23l26 35l2 2q0 4 4 4q0 2 2 2q0 -8 -2 -10l-8 -11l-6 -10q-2 -2 -3 -4t-3 -4l-16 -21l-19 -20l-10 -12q-4 -8 -8 -11zM1585 92v21h14v28h33v-28h19v-21h-19v-61v-8q2 0 4 -1.5t6 -1.5l5 3h4v-25h-19 q-14 0 -20 4q-6 0 -8 8q0 2 -2.5 5t-2.5 8v69h-14zM1636 -115h27v-16q8 18 31 18q8 0 16 -4q6 -4 12 -12q2 8 11 12q8 4 16 4q10 0 23 -4q8 -8 10 -14q4 -8 4 -19v-71h-27v63q0 23 -16 23q-18 0 -19 -23v-63h-26v63v11q0 4 -4 8t-15 4q-16 0 -16 -23v-63h-27v106z" />
<glyph unicode="8" d="M70 -193q0 17 8 23q10 10 20 10l27 4q10 0 10 6q0 16 -16 17q-10 0 -13 -6q-8 -2 -8 -11h-24q0 14 6 21q2 8 12 12q4 2 14 2q4 2 13 2q14 0 26 -4q8 -6 13 -12q2 -4 2 -14v-56q0 -10 2 -12q0 -2 4 -6v-4h-29v2v4q-2 2 -2 6l-8 -8q-4 -2 -6 -2t-4 -2q-4 -2 -13 -2 q-12 0 -18 2q-6 4 -10 10q-6 6 -6 18zM96 -190q0 -4 4 -9q4 -2 6.5 -4t4.5 -2q4 0 6 4h4q8 4 10 6q4 8 4 13v12q-2 0 -10 -4l-12 -2q-4 0 -13 -4q-4 -4 -4 -10zM125 565v494l268 59l-10 37l41 12l-8 39l41 8l-6 46l41 2v41h36l4 36l39 -6l9 41l43 -6l10 39l39 -10l16 37 l39 -17l23 39l34 -18l23 35l37 -25l24 33l35 -27l27 29l26 -25l27 23l27 -29l34 23l23 -37l39 20l18 -35l37 17l17 -41l43 12l12 -39l39 10l8 -43l43 4l2 -26l404 88v-496l-185 -41l4 -2l-24 -26l24 -29l-32 -27l22 -34l-37 -23l23 -37l-35 -20l14 -37l-39 -17l13 -43 l-37 -12l6 -39l-41 -8l2 -43l-39 -4v-39h-35l-6 -37l-39 2l-8 -37l-43 6l-10 -40l-39 12l-14 -39l-44 16l-18 -39l-37 21l-22 -35l-37 23l-25 -33l-30 26l-31 -26l-27 24l-26 -24l-25 31l-35 -23l-24 37l-37 -21l-19 35l-39 -16l-18 41l-39 -13l-12 37l-41 -8l-8 43l-43 -4 l-5 41h-40v35l-35 4l4 41l-41 6l8 43l-41 12l12 37l-28 12zM186 -115h25v-18h2q4 8 6 10t3 4t5 4q2 2 15 2h2h4v-28h-8q-27 0 -27 -25v-55h-27v106zM236 76v16q0 4 2 7t2 7q2 12 14 25q4 6 10 10t12 9q14 6 33 6h6q4 0 8.5 -1t8.5 -1q8 0 14 -7q14 -8 21 -18q4 -4 8 -12 q0 -2 1 -3t1 -3v-5h-33v3q0 2 -4 6q-2 4 -4 5t-6 5q-6 4 -19 4h-8h-6l-14 -12q-10 -6 -11 -15q-4 -8 -4 -28q0 -8 1 -14.5t3 -14.5q2 -10 13 -14q6 -4 10 -6t10 -2h4q12 0 19 4q4 0 7 3l5 5q4 6 6 10t2 10h-37v27h66v-84h-21l-4 20q-6 -8 -14 -14q-4 -4 -9 -5t-10 -3 q-4 0 -9 -1t-9 -1q-12 0 -25 6q-14 6 -20 16q-8 6 -16 27q-4 10 -4 33zM236 702h10l8 5l10 10l8 10l11 10q4 8 8 13l63 86l19 30l20 31q6 8 11.5 15.5t9.5 15.5q4 10 8 17t8 16q2 4 0 6t-4 2q-8 0 -10 -2l-8 -4l-17 -21l-16 -20q-6 -6 -15 -19l-16 -20l-55 -80l-27 -41 q-6 -10 -11 -21.5t-11 -21.5l-4 -6v-4v-4v-3zM262 -78h29v-24h-29v24zM262 -115h29v-106h-29v106zM276 889q2 -4 4.5 -6t6.5 -6l18 -7q14 0 23 2q4 0 4 2q2 2 2 5q0 2 -2 2h-4q-4 0 -4 -2q-14 -2 -29 2q-8 4 -10 8q0 4 -1 5t-1 5q0 6 2 12l6 15l16 18q4 4 10.5 8t12.5 9 q6 4 11 7t13 7l25 12q8 0 14 2t15 6l28 4q16 4 27 5q6 0 22 -5q10 0 15 -6l10 -12v-16q0 -12 -2 -21l-10 -18q-4 -6 -7.5 -11.5t-7.5 -9.5q-4 -6 -9 -10t-11 -10q-4 -6 -21 -19l-22 -14l-25 -10l-14 -6q-2 0 -5 -1t-7 -1h-4q-4 0 -7 -3q-2 0 -2 -2q-4 0 -4 -4q0 -2 2 -2h4 q4 0 7 2h4l26 9l27 12l27 10l26 16l23 17l20 18l17 21q4 4 7 9t5 11q4 12 4 19q2 10 0 18q-2 4 -3 7t-3 7q-6 6 -15 11q-6 2 -10 3t-10 1q-8 2 -23 2q-8 0 -24 -4q-14 0 -27.5 -4t-29.5 -9q-29 -8 -54 -22q-6 -4 -13 -7t-13 -7t-12.5 -8.5t-10.5 -10.5l-9 -9l-9 -9l-9 -21 q-4 -10 0 -16zM317 -115h25v-16q12 18 33 18q8 0 20 -4q6 -4 13 -12q4 -8 4 -21v-71h-29v63q0 12 -2 15q-4 8 -16 8q-8 0 -17 -8q-4 -12 -4 -17v-61h-27v106zM395 57q0 20 6 29q4 14 17 20q8 6 15 7.5t18 1.5q23 0 28 -9q12 -6 19 -22q4 -10 4 -31v-8h-78q0 -6 8 -18 q6 -6 19 -7q4 0 7 1.5t5 1.5q8 8 8 10h31q-6 -12 -10 -21q-4 -4 -8.5 -7t-8.5 -5l-12 -3t-12 -1q-55 0 -56 61zM428 68h45q-4 12 -8 16q-8 8 -14 8q-23 0 -23 -24zM430 -166q0 6 2 12.5t4 12.5q6 14 15 20q8 8 24 8q6 0 19 -4l7 -7t5 -7l2 16h24v-100q0 -10 -4 -27 q-6 -10 -16 -14q-12 -6 -33 -6q-4 0 -9 1t-9 1q-6 2 -19 10q-4 4 -4 8q-2 4 -2 11h27q2 -4 6 -9q2 -2 12 -2q12 0 15 2q8 6 8 9q0 2 1 3t1 3v6v12q-12 -14 -29 -14q-6 0 -11 1t-11 3q-10 8 -17 20q-4 6 -6 13.5t-2 17.5zM461 -168q0 -8 2 -14q0 -4 6 -11q8 -4 12 -4 q25 0 25 29q0 14 -8 23q-4 4 -8.5 7t-8.5 3q-8 0 -14 -10q-6 -6 -6 -23zM498 717q20 0 20 -15v-49q0 -8 10 -22l17 -4q4 -2 18 -2q12 0 25 4q8 4 10 6q8 6 8 22v50l10 8l2 2h9v4h-47v-4h10q2 0 4 -2q12 -4 12 -23v-33q0 -12 -10 -22l-12 -8h-15q-12 0 -18 2q-2 0 -10 8 q-4 4 -4 14v49q0 10 4 11q4 4 14 4h6v4h-63v-4zM510 92v21h16v28h31v-28h16v-21h-16v-61q0 -8 2 -8q0 -2 2 -3h8l2 3h2v-25h-16q-14 0 -20 4q-6 0 -9 8q-2 2 -2 13v69h-16zM510 821q2 -8 10 -12q10 -10 23 -6q14 0 26 6q10 2 17.5 6t15.5 8t15.5 9.5t15.5 13.5l24 20l15 15 q0 2 4 6q0 2 2 4l4 6l16 16l15 21q6 4 10 10t8 10l6 -2l4 -6q0 -2 2 -4v-2q0 -2 -2 -4t-4 -6l-16 -17l-14 -20l-13 -19l-4 -18q-2 -2 -2 -8v-6l4 -8h8q10 0 17 2l16 10q4 4 10.5 8t10.5 10q6 4 10 8.5t8 8.5q2 4 4 6t4 6l8 10l5 4l4 6q4 4 4 5l12 16l21 31q0 -4 1 -7.5 t1 -7.5q4 -12 4 -14l4 -8q-16 -4 -25 -13l-20 -14q-4 -4 -7.5 -9t-5.5 -9q-2 -6 -2 -17q0 -6 11 -10h18q12 0 25 8q16 8 22 17q6 4 9 8t8 8l8 18q6 8 6 19v16q0 6 -4 15l-6 16l-7 6q0 4 -4 8q0 2 -2 4v7v4h-8l-4 -4q-4 -2 -6 -4.5t-6 -4.5l-4 -12l-2 -2l-4 -6l-33 -45l-4 -6 l-6 -11h-3v-2q-2 0 -4 -2l-4 -8l-6 -8l-14 -18l-23 -21q-4 -4 -12 -6q-4 -4 -12 -4v2l8 10l6 10l8 11q4 4 6 8l9 14l10 14l4 15q2 6 2 14q-2 2 -2 8l-2 4q0 4 -2 7v22l6 10q4 6 -4 13q-4 6 -17 0q-10 -2 -16 -9q-6 -2 -10 -12q-4 -4 -4 -10q0 -8 2 -12l4 -2l4 -5l-6 -6 l-6 -6l-23 -31l-20 -22q-4 0 -4 -4v-2l-2 -2q0 -2 -2 -2l-11 -15q-8 -6 -14 -12t-14 -10q-12 -12 -33 -23q-12 -4 -21 -8q-12 -4 -18 -2q-6 0 -6 4q-2 2 -2 6q0 2 4 11l2 8l10 16q4 -2 12 -2h19q10 2 26 12q6 2 11.5 6.5t13.5 8.5l14 16q4 4 7.5 8t3.5 8l8 13q0 12 -4 14 q-4 8 -8 10h-19h-9t-9 -4q-4 -2 -10.5 -4t-10.5 -4q-27 -14 -45 -29q-18 -16 -29 -34q-4 -4 -6 -9.5t-6 -11.5q-6 -8 -8 -18v-17zM545 -115h14v27h29v-27h16v-20h-16v-55q0 -6 2 -9q0 -2 2 -2h6l4 2h2v-22h-6h-6h-4q-12 0 -17 2q-10 4 -10 8q-2 2 -2 12v64h-14v20zM567 870 l15 23l18 20l6 9q4 4 6 5t4 3l11 10l12 4q8 2 14 0v-10l-6 -8q-6 -6 -6 -11q-4 -4 -5 -6t-5 -4q0 -2 -8 -10q-2 -2 -3.5 -4t-5.5 -4q-4 -4 -6 -5t-4 -3l-12 -9q-6 -2 -12 -2q-10 0 -13 2zM610 -115h33l21 -78l20 78h31l-35 -102l-2 -2l-8 -23q-4 -10 -6 -12q-6 -6 -11 -6 q-4 0 -7 -1t-7 -1h-6h-8v22h8h8q2 0 6 4v5q2 2 2 6l-37 102zM639 694q0 -2 4 -10q0 -6 6 -6l13 -6q2 -2 20 -6l8 -2q8 -4 12 -5q4 0 9 -4q2 0 2 -2q6 -4 6 -10l-4 -8q-2 -4 -8 -6h-11q-10 0 -16 2l-16 6l-11 10q-10 10 -10 21h-2v-43h2q0 6 4 6q4 4 8 4q2 0 2 -1t5 -1 q2 0 3 -1t3 -1l14 -4q4 -2 14 -2q4 0 17 4q2 0 12 6q2 2 2 4t4 4v21l-6 6q-2 4 -12 8l-17 6h-10l-2 2q-4 2 -8 2t-6 2q-6 0 -8 2q-2 0 -7 4q-2 0 -2 4v2v9l4 4l9 4q2 0 4 1t6 1q6 0 14 -4q8 0 12 -4q8 -4 11 -8q4 -2 5 -7.5t5 -9.5h2v31h-2q-2 -6 -8 -6h-8q-16 10 -31 10 q-8 0 -21 -4l-12 -8q-2 -4 -3 -7.5t-1 -9.5zM641 92v21h14v8q0 33 35 33h15v-25h-9h-6q-4 0 -4 -4v-12h19v-21h-19v-94h-31v94h-14zM723 37v76h29v-70q0 -20 20 -20h10l11 10q0 2 2 5t2 7v68h26v-115h-26v16q-6 -8 -15 -12q-12 -6 -20 -6q-20 0 -29 12q-10 8 -10 29z M731 -115h25v-16h4q2 0 4 2l8 8q4 4 8 6q2 2 8 2q10 0 17 -4q8 -4 12 -8q8 -8 10 -20q6 -10 7 -23q0 -4 -1.5 -6t-1.5 -6t-2 -6t-4 -7q-4 -16 -12 -22q-10 -8 -25 -8q-10 0 -14 2t-8 6q-2 2 -6 2l-2 4v-51h-27v100v45zM741 627h103v39q-4 -4 -4 -7.5t-2 -5.5l-11 -14 q-6 -6 -8 -6l-10 -2q-4 -2 -12 -2h-15v41h2q8 0 19 -6l4 -7q0 -2 1 -3t1 -3v-8h2v59h-2v-8l-4 -10q-10 -10 -19 -10h-4v43h17q16 0 22 -2l8 -6l5 -11l6 -14h4v37h-103v-4h4q8 0 11 -4q6 0 6 -11v-57q0 -16 -17 -16h-4v-2zM756 -170q0 -14 8 -20q6 -8 16 -9q12 0 19 9 q4 12 4 22t-4 23q-4 4 -8.5 7t-10.5 3q-25 0 -24 -35zM793 868v9l4 10l6 8q8 10 18 18l23 11q0 -4 1 -6.5t1 -4.5q-2 -4 -2 -8v-12l-4 -8q-2 -4 -4 -5t-5 -6l-8 -6q-2 0 -3 -1t-5 -1q-2 -2 -8 -2q-4 -4 -8 0q-2 0 -6 4zM844 -166q0 17 4 25q6 14 16 20q10 8 27 8q23 0 31 -8 q10 -6 16 -22q4 -16 4 -27v-6h-72q0 -12 7 -19q6 -6 16 -6q6 0 14 4q4 4 6 9h27q-4 -16 -8 -21q-4 -4 -8 -6t-9 -4q-12 -4 -22 -4q-49 0 -49 57zM852 -2v156h29v-156h-29zM870 -158h43q0 10 -6 17q-4 2 -7 4t-9 2q-16 0 -21 -23zM903 -2v156h29v-156h-29zM905 674 q0 -14 4 -21q4 -4 6.5 -7t6.5 -7q6 -6 18 -10q6 -2 11 -3t12 -1q16 0 26 6q8 4 13.5 9t9.5 9q6 8 6 25q0 10 -4 16q-4 12 -10 17q-4 6 -19 10q-12 6 -22 6q-20 0 -29 -8q-8 -2 -12 -7.5t-9 -9.5q-8 -10 -8 -24zM915 901q0 -8 5 -8q4 -4 6 -5t4 -3h10h12q8 2 14.5 4t12.5 4 l27 14l22 21l19 16l14 21l10 16l6 18q4 10 0 15q0 6 -6 10q0 4 -10 8q-2 0 -6 1t-8 1q-6 0 -19 -4q-4 0 -6 -1l-6 -3l-12 -4l-25 -16q-6 -4 -11 -9.5t-12 -9.5l-16 -18l-12 -19q-10 -16 -13 -26v-23zM928 674q0 4 1 8t1 8l6 12q2 2 3 5.5t3 5.5t4 2t6 2q4 4 13 4q0 -2 2 -2 h4l6 -4l10 -8q0 -4 2 -7.5t4 -9.5q0 -2 1 -7t1 -9q0 -12 -4 -25q-4 -4 -6 -9t-6 -9q-4 -2 -16 -2q-10 0 -13 2q-8 0 -12 10l-6 12q-4 12 -4 21zM940 895v8v4q4 14 10 21q4 6 7.5 11t7.5 11l10 13l8 10l16 20l9.5 9.5l9.5 9.5l8 8l10 4q4 2 11 2l4 -2q2 -2 2 -8q0 -2 -4 -10 l-5 -9l-6 -10q-4 -8 -6 -10l-8 -12l-12 -19l-17 -18l-20 -21q0 -2 -10 -6q-2 -4 -13 -8h-8q-4 0 -4 2zM948 -115h17v9q0 29 30 28h13v-22h-7h-6l-2 -2l-2 -9v-4h19v-20h-19v-86h-26v86h-17v20zM1010 92v21h14v8q0 33 35 33h12v-25h-6h-6q-2 0 -4 -4v-12h20v-21h-20v-94h-31 v94h-14zM1018 -193q0 17 10 23q10 10 21 10l24 4q8 0 8 6q0 16 -14 17q-10 0 -12 -6q-6 -4 -6 -11h-27q0 14 6 21q6 10 14 12q4 2 11 2q4 2 14 2t16.5 -1t12.5 -3q8 -6 12 -12q2 -4 2 -14v-56q0 -10 2 -12q0 -2 4 -6v-4h-31v2q0 2 -1 2t-1 2v6q-4 -2 -5 -4t-3 -4 q-4 -2 -6 -2t-4 -2q-4 -2 -14 -2q-8 0 -15 2q-4 2 -7 4t-7 6q-4 8 -4 18zM1032 627h49v2q-6 0 -10 2h-8l-4 10q-2 2 -2 12v56l80 -82h4v65q0 8 1 12.5t3 8.5q4 4 16 4v4h-47v-4h8q0 -2 4 -2q6 -4 7 -8q4 -4 4 -15v-39l-66 68h-37v-4q8 0 10 -2q2 0 3.5 -1t3.5 -1q2 -4 2 -11 v-53q0 -6 -2 -10t-7 -8q-4 0 -7 -1t-5 -1v-2zM1047 -190q0 -4 4 -9q6 -6 8 -6q4 0 6 4h4q4 2 5 3t5 3q2 4 2 13v12l-8 -4l-14 -2q-4 0 -8 -4t-4 -10zM1051 905q2 0 3 -1t3 -1q4 0 8 2l8 4q0 2 4 6q2 0 2 1.5t2 1.5l4 6q0 4 5 4l16 22l20 21l17 20l22 21l21 20l8 8q4 2 10 9 l10 8l13 4q2 0 2 -2h-2l-4 -4q-2 -6 -9 -8l-4 -7l-12 -14q-4 -4 -6 -7t-6 -7q-10 -12 -15 -23l-14 -20q-2 -4 -3 -9.5t-3 -9.5q-4 -10 0 -16q2 -6 8 -6h19q4 2 9 5t13 7q12 8 19 14l20 21l2 2q-2 -2 -2 -6q0 -6 4 -15q2 -4 10 -8q6 -2 21 2q12 2 24 13l21 14l7 7l7 7l13 13 v-5q0 -2 -1.5 -3t-1.5 -3v-6q-4 -6 0 -10q0 -2 1.5 -3t1.5 -3q0 -6 6 -6h6h10l6 4l8 6l13 6l32 27l17 16l-4 -12q-4 -6 -4 -19v-6q2 0 4 -2q0 -2 6 -2q4 0 8 4q8 0 12 6l11 6l12 13q2 0 10 8l9 9t10 9l18 21v4q0 2 -2 2q-4 0 -8 -4l-2 -4l-13 -15l-10 -12q-10 -6 -12 -12 l-14 -12l-9 -7l-8 -2l-2 -2q-2 0 -4 2h2l8 15q4 8 8 12l7 12q4 2 8 11l63 92q10 10 13 16l16 16l37 43q10 10 17 20.5t16 20.5l10 19v8q-2 2 -8 2q-2 0 -11 -4q-4 0 -6 -2t-6 -4q-4 0 -10 -6l-8 -6q-6 -4 -11.5 -9.5t-11.5 -9.5l-16 -18q-6 -6 -10.5 -11.5t-8.5 -11.5 q-2 -4 -6 -9t-8 -11q-16 -23 -27 -41l-26 -45l-19 -33l-8 -16h-2l-14 -15q-4 -6 -8.5 -10t-10.5 -10l-18 -17l-10 -8l-7 -4l-4 -2l-4 -4h-6h-4l6 10l6 10q0 2 2 4q4 8 8.5 14.5t10.5 12.5q4 6 8 13.5t8 15.5l15 20l8 13q2 4 3 5t3 5l2 2l2 2q0 2 1 2t1 2q6 4 4 8q0 2 -6 2 l-10 -4l-10 -6l-19 -12q-8 -8 -14 -13q0 6 -2 11q0 2 -6 6q-12 2 -21 0q-16 -4 -22 -8q-8 -4 -13.5 -6.5t-11.5 -6.5q-8 -6 -18 -16q-27 -18 -37 -39q-14 -16 -21 -37h-4q-4 -6 -16 -18q-6 -4 -11.5 -8.5t-11.5 -8.5q-2 -4 -12 -8q-4 -4 -10 -4h-2q-2 2 0 4l6 8l6 11l12 14 l21 27q4 6 9 13t9 15l8 17q4 10 2 16q0 6 -2 6q0 4 -6 4t-8 -2l-12 -4l-13 -8q-4 -2 -10 -8q-4 -4 -6 -5t-4 -4q-8 -8 -12 -8l-21 -22q-4 -4 -9 -9.5t-9 -9.5l-11 -12l-10 -10l2 4l25 35l26 37q0 2 1.5 2t1.5 2q2 2 2 4q2 2 2 6l-7 6q-2 0 -3 1t-3 1t-4 -1t-6 -1l-10 -6 l-4 -4q-4 -2 -4 -4t-2 -4l-5 -7l-77 -133q-2 -2 -2 -4v-2zM1083 55q0 6 1 11.5t3 11.5q2 10 11 18q10 10 20 15q6 4 25 4q16 0 24 -4q4 -4 8.5 -5.5t8.5 -5.5t6 -9t6 -11q4 -12 4 -25q0 -16 -8 -30q-2 -8 -18 -21q-10 -8 -31 -8q-20 0 -35 8q-6 4 -10 10t-8 13q-6 12 -7 28z M1114 55q0 -8 2 -13t4 -9q4 -10 23 -10q16 0 20 10q6 6 6 22q0 14 -6 25q-6 10 -20 10q-16 0 -23 -10q-2 -4 -4 -10.5t-2 -14.5zM1128 -170q1 16 11 41q12 16 39 16q10 0 22 -4q8 -2 17 -14q4 -6 7 -11t3 -12h-31q0 4 -4 13q-6 6 -12 6q-10 0 -17 -10q-8 -6 -8 -21 q0 -6 1 -10t1 -8q4 -4 5 -6.5t3 -4.5q4 -4 13 -4q8 0 12 4q6 2 6 13h27q0 -10 -6 -23q-4 -4 -7.5 -7t-7.5 -5q-12 -6 -24 -6q-23 0 -35 12q-6 2 -10 16q-4 12 -5 25zM1167 627h107v41h-2q-4 -4 -4 -6.5t-2 -6.5q-4 -4 -4 -8q-2 -2 -2 -3t-3 -3q-8 -8 -12 -10q-2 0 -6 -1 t-8 -1h-25v73q0 10 6 11q2 4 13 4h6v4h-64v-4h4q16 0 17 -15v-57q0 -16 -17 -16h-4v-2zM1221 -2v115h28v-17q12 18 35 19q14 0 21 -4l14 -13q4 -12 4 -20v-80h-29v70q0 8 -4 16q-6 6 -16 6q-12 0 -19 -8q-4 -4 -4 -19v-65h-30zM1237 -166q0 9 4 25q6 14 16 20q10 8 29 8 q20 0 29 -8q10 -6 14 -22q6 -12 6 -27v-6h-71q0 -12 6 -19q6 -6 16 -6q6 0 14 4q4 4 7 9h26q-4 -16 -10 -21q-8 -8 -14 -10q-12 -4 -23 -4q-49 0 -49 57zM1264 -158h43q0 10 -7 17q-4 2 -7 4t-9 2q-16 0 -20 -23zM1266 963l2 2q0 2 2 4q4 8 6 10l8 10q2 8 6 12q2 4 8 11 l19 24l26 33l7 8l8 6l8 7q2 2 8 2q4 2 8 2l7 -4q0 -2 1 -3.5t1 -3.5q0 -4 -2 -8q0 -2 -5 -6l-16 -22l-12 -23l-17 -14l-16 -19q-2 -2 -4 -3t-6 -5l-13 -10q-2 -2 -4 -3t-6 -5q-4 0 -5 -2t-5 -2q-8 -4 -10 -3h-2q-2 2 -2 5zM1268 717h2q10 0 14 -2l4 -4t4 -6l29 -39v-21 q0 -10 -2 -12q-8 -4 -14 -4h-7v-2h68v2h-8q-8 0 -12 4t-5 12v23l25 34l4 7q8 4 10 4q0 2 4 2q2 0 3.5 1t3.5 1h2v4h-47v-4h6q8 0 10 -2q4 -2 4 -6t-6 -11l-19 -26l-24 30q-4 8 -4 9v2q0 2 2 2q0 2 6 2h8v4h-61v-4zM1337 92v21h19v28h26v-28h21v-21h-21v-61v-6q0 -2 2 -2 q4 0 5.5 -1.5t5.5 -1.5l4 3h4v-25h-21q-14 0 -16 4q-8 0 -10 8v82h-19zM1352 -190h30v-31h-30v31zM1401 -170q0 16 10 41q12 16 39 16q10 0 23 -4q6 -2 18 -14q8 -10 8 -23h-29l-6 13q-6 6 -12 6q-10 0 -16 -10q-6 -6 -6 -21q0 -6 1 -10t1 -8q4 -8 8 -11q2 -4 10 -4 q10 0 12 4q6 2 6 13h31q-4 -12 -8 -23q-4 -4 -8 -7t-8 -5q-10 -6 -25 -6q-20 0 -35 12q-6 2 -10 16q-4 12 -4 25zM1473 31q0 16 8 24q16 8 24 11l27 4q10 0 10 8q0 14 -18 14q-8 0 -13 -4q-6 -2 -8 -14h-26q0 14 6 24q4 6 16 13q4 4 12 4h13q25 0 32 -4l7.5 -7.5t5.5 -7.5 t2 -14v-72q0 -6 8 -6v-6h-33q-2 0 -2 2v2v2q0 4 -1 5t-1 3l-8 -8q-2 -2 -3 -2t-3 -2t-4 -2q-6 0 -9.5 -1t-7.5 -1t-8 1t-8 1q-4 4 -7 6t-7 6q-4 8 -4 21zM1501 31q0 -8 4 -8q4 -4 11 -5h8l4 2q10 4 10 7q4 8 4 14v14q-6 -6 -12 -6l-14 -4q-6 0 -11 -4q-4 -2 -4 -10z M1511 -168q0 13 2 21q4 12 11 18q6 8 16 12q12 4 25 4q10 0 22 -4l8 -4t9 -6q4 -4 5 -9t5 -9q2 -6 2 -23q0 -16 -6 -29q-4 -14 -17 -20q-12 -6 -28 -6q-20 0 -31 8q-12 6 -18 20q-4 16 -5 27zM1538 -168q0 -14 6 -22q2 -4 8.5 -6.5t12.5 -2.5q16 0 18 9q6 8 6 22q0 13 -6 23 q-4 10 -18 10q-16 0 -21 -10q-6 -10 -6 -23zM1567 1167l28 37l13 23l26 35l2 2q0 4 4 4q0 2 2 2q0 -8 -2 -10l-8 -11l-6 -10q-2 -2 -3 -4t-3 -4l-16 -21l-19 -20l-10 -12q-4 -8 -8 -11zM1585 92v21h14v28h33v-28h19v-21h-19v-61v-8q2 0 4 -1.5t6 -1.5l5 3h4v-25h-19 q-14 0 -20 4q-6 0 -8 8q0 2 -2.5 5t-2.5 8v69h-14zM1636 -115h27v-16q8 18 31 18q8 0 16 -4q6 -4 12 -12q2 8 11 12q8 4 16 4q10 0 23 -4q8 -8 10 -14q4 -8 4 -19v-71h-27v63q0 23 -16 23q-18 0 -19 -23v-63h-26v63v11q0 4 -4 8t-15 4q-16 0 -16 -23v-63h-27v106z" />
<glyph unicode="9" d="M70 -193q0 17 8 23q10 10 20 10l27 4q10 0 10 6q0 16 -16 17q-10 0 -13 -6q-8 -2 -8 -11h-24q0 14 6 21q2 8 12 12q4 2 14 2q4 2 13 2q14 0 26 -4q8 -6 13 -12q2 -4 2 -14v-56q0 -10 2 -12q0 -2 4 -6v-4h-29v2v4q-2 2 -2 6l-8 -8q-4 -2 -6 -2t-4 -2q-4 -2 -13 -2 q-12 0 -18 2q-6 4 -10 10q-6 6 -6 18zM96 -190q0 -4 4 -9q4 -2 6.5 -4t4.5 -2q4 0 6 4h4q8 4 10 6q4 8 4 13v12q-2 0 -10 -4l-12 -2q-4 0 -13 -4q-4 -4 -4 -10zM125 565v494l268 59l-10 37l41 12l-8 39l41 8l-6 46l41 2v41h36l4 36l39 -6l9 41l43 -6l10 39l39 -10l16 37 l39 -17l23 39l34 -18l23 35l37 -25l24 33l35 -27l27 29l26 -25l27 23l27 -29l34 23l23 -37l39 20l18 -35l37 17l17 -41l43 12l12 -39l39 10l8 -43l43 4l2 -26l404 88v-496l-185 -41l4 -2l-24 -26l24 -29l-32 -27l22 -34l-37 -23l23 -37l-35 -20l14 -37l-39 -17l13 -43 l-37 -12l6 -39l-41 -8l2 -43l-39 -4v-39h-35l-6 -37l-39 2l-8 -37l-43 6l-10 -40l-39 12l-14 -39l-44 16l-18 -39l-37 21l-22 -35l-37 23l-25 -33l-30 26l-31 -26l-27 24l-26 -24l-25 31l-35 -23l-24 37l-37 -21l-19 35l-39 -16l-18 41l-39 -13l-12 37l-41 -8l-8 43l-43 -4 l-5 41h-40v35l-35 4l4 41l-41 6l8 43l-41 12l12 37l-28 12zM186 -115h25v-18h2q4 8 6 10t3 4t5 4q2 2 15 2h2h4v-28h-8q-27 0 -27 -25v-55h-27v106zM236 76v16q0 4 2 7t2 7q2 12 14 25q4 6 10 10t12 9q14 6 33 6h6q4 0 8.5 -1t8.5 -1q8 0 14 -7q14 -8 21 -18q4 -4 8 -12 q0 -2 1 -3t1 -3v-5h-33v3q0 2 -4 6q-2 4 -4 5t-6 5q-6 4 -19 4h-8h-6l-14 -12q-10 -6 -11 -15q-4 -8 -4 -28q0 -8 1 -14.5t3 -14.5q2 -10 13 -14q6 -4 10 -6t10 -2h4q12 0 19 4q4 0 7 3l5 5q4 6 6 10t2 10h-37v27h66v-84h-21l-4 20q-6 -8 -14 -14q-4 -4 -9 -5t-10 -3 q-4 0 -9 -1t-9 -1q-12 0 -25 6q-14 6 -20 16q-8 6 -16 27q-4 10 -4 33zM236 702h10l8 5l10 10l8 10l11 10q4 8 8 13l63 86l19 30l20 31q6 8 11.5 15.5t9.5 15.5q4 10 8 17t8 16q2 4 0 6t-4 2q-8 0 -10 -2l-8 -4l-17 -21l-16 -20q-6 -6 -15 -19l-16 -20l-55 -80l-27 -41 q-6 -10 -11 -21.5t-11 -21.5l-4 -6v-4v-4v-3zM262 -78h29v-24h-29v24zM262 -115h29v-106h-29v106zM276 889q2 -4 4.5 -6t6.5 -6l18 -7q14 0 23 2q4 0 4 2q2 2 2 5q0 2 -2 2h-4q-4 0 -4 -2q-14 -2 -29 2q-8 4 -10 8q0 4 -1 5t-1 5q0 6 2 12l6 15l16 18q4 4 10.5 8t12.5 9 q6 4 11 7t13 7l25 12q8 0 14 2t15 6l28 4q16 4 27 5q6 0 22 -5q10 0 15 -6l10 -12v-16q0 -12 -2 -21l-10 -18q-4 -6 -7.5 -11.5t-7.5 -9.5q-4 -6 -9 -10t-11 -10q-4 -6 -21 -19l-22 -14l-25 -10l-14 -6q-2 0 -5 -1t-7 -1h-4q-4 0 -7 -3q-2 0 -2 -2q-4 0 -4 -4q0 -2 2 -2h4 q4 0 7 2h4l26 9l27 12l27 10l26 16l23 17l20 18l17 21q4 4 7 9t5 11q4 12 4 19q2 10 0 18q-2 4 -3 7t-3 7q-6 6 -15 11q-6 2 -10 3t-10 1q-8 2 -23 2q-8 0 -24 -4q-14 0 -27.5 -4t-29.5 -9q-29 -8 -54 -22q-6 -4 -13 -7t-13 -7t-12.5 -8.5t-10.5 -10.5l-9 -9l-9 -9l-9 -21 q-4 -10 0 -16zM317 -115h25v-16q12 18 33 18q8 0 20 -4q6 -4 13 -12q4 -8 4 -21v-71h-29v63q0 12 -2 15q-4 8 -16 8q-8 0 -17 -8q-4 -12 -4 -17v-61h-27v106zM395 57q0 20 6 29q4 14 17 20q8 6 15 7.5t18 1.5q23 0 28 -9q12 -6 19 -22q4 -10 4 -31v-8h-78q0 -6 8 -18 q6 -6 19 -7q4 0 7 1.5t5 1.5q8 8 8 10h31q-6 -12 -10 -21q-4 -4 -8.5 -7t-8.5 -5l-12 -3t-12 -1q-55 0 -56 61zM428 68h45q-4 12 -8 16q-8 8 -14 8q-23 0 -23 -24zM430 -166q0 6 2 12.5t4 12.5q6 14 15 20q8 8 24 8q6 0 19 -4l7 -7t5 -7l2 16h24v-100q0 -10 -4 -27 q-6 -10 -16 -14q-12 -6 -33 -6q-4 0 -9 1t-9 1q-6 2 -19 10q-4 4 -4 8q-2 4 -2 11h27q2 -4 6 -9q2 -2 12 -2q12 0 15 2q8 6 8 9q0 2 1 3t1 3v6v12q-12 -14 -29 -14q-6 0 -11 1t-11 3q-10 8 -17 20q-4 6 -6 13.5t-2 17.5zM461 -168q0 -8 2 -14q0 -4 6 -11q8 -4 12 -4 q25 0 25 29q0 14 -8 23q-4 4 -8.5 7t-8.5 3q-8 0 -14 -10q-6 -6 -6 -23zM498 717q20 0 20 -15v-49q0 -8 10 -22l17 -4q4 -2 18 -2q12 0 25 4q8 4 10 6q8 6 8 22v50l10 8l2 2h9v4h-47v-4h10q2 0 4 -2q12 -4 12 -23v-33q0 -12 -10 -22l-12 -8h-15q-12 0 -18 2q-2 0 -10 8 q-4 4 -4 14v49q0 10 4 11q4 4 14 4h6v4h-63v-4zM510 92v21h16v28h31v-28h16v-21h-16v-61q0 -8 2 -8q0 -2 2 -3h8l2 3h2v-25h-16q-14 0 -20 4q-6 0 -9 8q-2 2 -2 13v69h-16zM510 821q2 -8 10 -12q10 -10 23 -6q14 0 26 6q10 2 17.5 6t15.5 8t15.5 9.5t15.5 13.5l24 20l15 15 q0 2 4 6q0 2 2 4l4 6l16 16l15 21q6 4 10 10t8 10l6 -2l4 -6q0 -2 2 -4v-2q0 -2 -2 -4t-4 -6l-16 -17l-14 -20l-13 -19l-4 -18q-2 -2 -2 -8v-6l4 -8h8q10 0 17 2l16 10q4 4 10.5 8t10.5 10q6 4 10 8.5t8 8.5q2 4 4 6t4 6l8 10l5 4l4 6q4 4 4 5l12 16l21 31q0 -4 1 -7.5 t1 -7.5q4 -12 4 -14l4 -8q-16 -4 -25 -13l-20 -14q-4 -4 -7.5 -9t-5.5 -9q-2 -6 -2 -17q0 -6 11 -10h18q12 0 25 8q16 8 22 17q6 4 9 8t8 8l8 18q6 8 6 19v16q0 6 -4 15l-6 16l-7 6q0 4 -4 8q0 2 -2 4v7v4h-8l-4 -4q-4 -2 -6 -4.5t-6 -4.5l-4 -12l-2 -2l-4 -6l-33 -45l-4 -6 l-6 -11h-3v-2q-2 0 -4 -2l-4 -8l-6 -8l-14 -18l-23 -21q-4 -4 -12 -6q-4 -4 -12 -4v2l8 10l6 10l8 11q4 4 6 8l9 14l10 14l4 15q2 6 2 14q-2 2 -2 8l-2 4q0 4 -2 7v22l6 10q4 6 -4 13q-4 6 -17 0q-10 -2 -16 -9q-6 -2 -10 -12q-4 -4 -4 -10q0 -8 2 -12l4 -2l4 -5l-6 -6 l-6 -6l-23 -31l-20 -22q-4 0 -4 -4v-2l-2 -2q0 -2 -2 -2l-11 -15q-8 -6 -14 -12t-14 -10q-12 -12 -33 -23q-12 -4 -21 -8q-12 -4 -18 -2q-6 0 -6 4q-2 2 -2 6q0 2 4 11l2 8l10 16q4 -2 12 -2h19q10 2 26 12q6 2 11.5 6.5t13.5 8.5l14 16q4 4 7.5 8t3.5 8l8 13q0 12 -4 14 q-4 8 -8 10h-19h-9t-9 -4q-4 -2 -10.5 -4t-10.5 -4q-27 -14 -45 -29q-18 -16 -29 -34q-4 -4 -6 -9.5t-6 -11.5q-6 -8 -8 -18v-17zM545 -115h14v27h29v-27h16v-20h-16v-55q0 -6 2 -9q0 -2 2 -2h6l4 2h2v-22h-6h-6h-4q-12 0 -17 2q-10 4 -10 8q-2 2 -2 12v64h-14v20zM567 870 l15 23l18 20l6 9q4 4 6 5t4 3l11 10l12 4q8 2 14 0v-10l-6 -8q-6 -6 -6 -11q-4 -4 -5 -6t-5 -4q0 -2 -8 -10q-2 -2 -3.5 -4t-5.5 -4q-4 -4 -6 -5t-4 -3l-12 -9q-6 -2 -12 -2q-10 0 -13 2zM610 -115h33l21 -78l20 78h31l-35 -102l-2 -2l-8 -23q-4 -10 -6 -12q-6 -6 -11 -6 q-4 0 -7 -1t-7 -1h-6h-8v22h8h8q2 0 6 4v5q2 2 2 6l-37 102zM639 694q0 -2 4 -10q0 -6 6 -6l13 -6q2 -2 20 -6l8 -2q8 -4 12 -5q4 0 9 -4q2 0 2 -2q6 -4 6 -10l-4 -8q-2 -4 -8 -6h-11q-10 0 -16 2l-16 6l-11 10q-10 10 -10 21h-2v-43h2q0 6 4 6q4 4 8 4q2 0 2 -1t5 -1 q2 0 3 -1t3 -1l14 -4q4 -2 14 -2q4 0 17 4q2 0 12 6q2 2 2 4t4 4v21l-6 6q-2 4 -12 8l-17 6h-10l-2 2q-4 2 -8 2t-6 2q-6 0 -8 2q-2 0 -7 4q-2 0 -2 4v2v9l4 4l9 4q2 0 4 1t6 1q6 0 14 -4q8 0 12 -4q8 -4 11 -8q4 -2 5 -7.5t5 -9.5h2v31h-2q-2 -6 -8 -6h-8q-16 10 -31 10 q-8 0 -21 -4l-12 -8q-2 -4 -3 -7.5t-1 -9.5zM641 92v21h14v8q0 33 35 33h15v-25h-9h-6q-4 0 -4 -4v-12h19v-21h-19v-94h-31v94h-14zM723 37v76h29v-70q0 -20 20 -20h10l11 10q0 2 2 5t2 7v68h26v-115h-26v16q-6 -8 -15 -12q-12 -6 -20 -6q-20 0 -29 12q-10 8 -10 29z M731 -115h25v-16h4q2 0 4 2l8 8q4 4 8 6q2 2 8 2q10 0 17 -4q8 -4 12 -8q8 -8 10 -20q6 -10 7 -23q0 -4 -1.5 -6t-1.5 -6t-2 -6t-4 -7q-4 -16 -12 -22q-10 -8 -25 -8q-10 0 -14 2t-8 6q-2 2 -6 2l-2 4v-51h-27v100v45zM741 627h103v39q-4 -4 -4 -7.5t-2 -5.5l-11 -14 q-6 -6 -8 -6l-10 -2q-4 -2 -12 -2h-15v41h2q8 0 19 -6l4 -7q0 -2 1 -3t1 -3v-8h2v59h-2v-8l-4 -10q-10 -10 -19 -10h-4v43h17q16 0 22 -2l8 -6l5 -11l6 -14h4v37h-103v-4h4q8 0 11 -4q6 0 6 -11v-57q0 -16 -17 -16h-4v-2zM756 -170q0 -14 8 -20q6 -8 16 -9q12 0 19 9 q4 12 4 22t-4 23q-4 4 -8.5 7t-10.5 3q-25 0 -24 -35zM793 868v9l4 10l6 8q8 10 18 18l23 11q0 -4 1 -6.5t1 -4.5q-2 -4 -2 -8v-12l-4 -8q-2 -4 -4 -5t-5 -6l-8 -6q-2 0 -3 -1t-5 -1q-2 -2 -8 -2q-4 -4 -8 0q-2 0 -6 4zM844 -166q0 17 4 25q6 14 16 20q10 8 27 8q23 0 31 -8 q10 -6 16 -22q4 -16 4 -27v-6h-72q0 -12 7 -19q6 -6 16 -6q6 0 14 4q4 4 6 9h27q-4 -16 -8 -21q-4 -4 -8 -6t-9 -4q-12 -4 -22 -4q-49 0 -49 57zM852 -2v156h29v-156h-29zM870 -158h43q0 10 -6 17q-4 2 -7 4t-9 2q-16 0 -21 -23zM903 -2v156h29v-156h-29zM905 674 q0 -14 4 -21q4 -4 6.5 -7t6.5 -7q6 -6 18 -10q6 -2 11 -3t12 -1q16 0 26 6q8 4 13.5 9t9.5 9q6 8 6 25q0 10 -4 16q-4 12 -10 17q-4 6 -19 10q-12 6 -22 6q-20 0 -29 -8q-8 -2 -12 -7.5t-9 -9.5q-8 -10 -8 -24zM915 901q0 -8 5 -8q4 -4 6 -5t4 -3h10h12q8 2 14.5 4t12.5 4 l27 14l22 21l19 16l14 21l10 16l6 18q4 10 0 15q0 6 -6 10q0 4 -10 8q-2 0 -6 1t-8 1q-6 0 -19 -4q-4 0 -6 -1l-6 -3l-12 -4l-25 -16q-6 -4 -11 -9.5t-12 -9.5l-16 -18l-12 -19q-10 -16 -13 -26v-23zM928 674q0 4 1 8t1 8l6 12q2 2 3 5.5t3 5.5t4 2t6 2q4 4 13 4q0 -2 2 -2 h4l6 -4l10 -8q0 -4 2 -7.5t4 -9.5q0 -2 1 -7t1 -9q0 -12 -4 -25q-4 -4 -6 -9t-6 -9q-4 -2 -16 -2q-10 0 -13 2q-8 0 -12 10l-6 12q-4 12 -4 21zM940 895v8v4q4 14 10 21q4 6 7.5 11t7.5 11l10 13l8 10l16 20l9.5 9.5l9.5 9.5l8 8l10 4q4 2 11 2l4 -2q2 -2 2 -8q0 -2 -4 -10 l-5 -9l-6 -10q-4 -8 -6 -10l-8 -12l-12 -19l-17 -18l-20 -21q0 -2 -10 -6q-2 -4 -13 -8h-8q-4 0 -4 2zM948 -115h17v9q0 29 30 28h13v-22h-7h-6l-2 -2l-2 -9v-4h19v-20h-19v-86h-26v86h-17v20zM1010 92v21h14v8q0 33 35 33h12v-25h-6h-6q-2 0 -4 -4v-12h20v-21h-20v-94h-31 v94h-14zM1018 -193q0 17 10 23q10 10 21 10l24 4q8 0 8 6q0 16 -14 17q-10 0 -12 -6q-6 -4 -6 -11h-27q0 14 6 21q6 10 14 12q4 2 11 2q4 2 14 2t16.5 -1t12.5 -3q8 -6 12 -12q2 -4 2 -14v-56q0 -10 2 -12q0 -2 4 -6v-4h-31v2q0 2 -1 2t-1 2v6q-4 -2 -5 -4t-3 -4 q-4 -2 -6 -2t-4 -2q-4 -2 -14 -2q-8 0 -15 2q-4 2 -7 4t-7 6q-4 8 -4 18zM1032 627h49v2q-6 0 -10 2h-8l-4 10q-2 2 -2 12v56l80 -82h4v65q0 8 1 12.5t3 8.5q4 4 16 4v4h-47v-4h8q0 -2 4 -2q6 -4 7 -8q4 -4 4 -15v-39l-66 68h-37v-4q8 0 10 -2q2 0 3.5 -1t3.5 -1q2 -4 2 -11 v-53q0 -6 -2 -10t-7 -8q-4 0 -7 -1t-5 -1v-2zM1047 -190q0 -4 4 -9q6 -6 8 -6q4 0 6 4h4q4 2 5 3t5 3q2 4 2 13v12l-8 -4l-14 -2q-4 0 -8 -4t-4 -10zM1051 905q2 0 3 -1t3 -1q4 0 8 2l8 4q0 2 4 6q2 0 2 1.5t2 1.5l4 6q0 4 5 4l16 22l20 21l17 20l22 21l21 20l8 8q4 2 10 9 l10 8l13 4q2 0 2 -2h-2l-4 -4q-2 -6 -9 -8l-4 -7l-12 -14q-4 -4 -6 -7t-6 -7q-10 -12 -15 -23l-14 -20q-2 -4 -3 -9.5t-3 -9.5q-4 -10 0 -16q2 -6 8 -6h19q4 2 9 5t13 7q12 8 19 14l20 21l2 2q-2 -2 -2 -6q0 -6 4 -15q2 -4 10 -8q6 -2 21 2q12 2 24 13l21 14l7 7l7 7l13 13 v-5q0 -2 -1.5 -3t-1.5 -3v-6q-4 -6 0 -10q0 -2 1.5 -3t1.5 -3q0 -6 6 -6h6h10l6 4l8 6l13 6l32 27l17 16l-4 -12q-4 -6 -4 -19v-6q2 0 4 -2q0 -2 6 -2q4 0 8 4q8 0 12 6l11 6l12 13q2 0 10 8l9 9t10 9l18 21v4q0 2 -2 2q-4 0 -8 -4l-2 -4l-13 -15l-10 -12q-10 -6 -12 -12 l-14 -12l-9 -7l-8 -2l-2 -2q-2 0 -4 2h2l8 15q4 8 8 12l7 12q4 2 8 11l63 92q10 10 13 16l16 16l37 43q10 10 17 20.5t16 20.5l10 19v8q-2 2 -8 2q-2 0 -11 -4q-4 0 -6 -2t-6 -4q-4 0 -10 -6l-8 -6q-6 -4 -11.5 -9.5t-11.5 -9.5l-16 -18q-6 -6 -10.5 -11.5t-8.5 -11.5 q-2 -4 -6 -9t-8 -11q-16 -23 -27 -41l-26 -45l-19 -33l-8 -16h-2l-14 -15q-4 -6 -8.5 -10t-10.5 -10l-18 -17l-10 -8l-7 -4l-4 -2l-4 -4h-6h-4l6 10l6 10q0 2 2 4q4 8 8.5 14.5t10.5 12.5q4 6 8 13.5t8 15.5l15 20l8 13q2 4 3 5t3 5l2 2l2 2q0 2 1 2t1 2q6 4 4 8q0 2 -6 2 l-10 -4l-10 -6l-19 -12q-8 -8 -14 -13q0 6 -2 11q0 2 -6 6q-12 2 -21 0q-16 -4 -22 -8q-8 -4 -13.5 -6.5t-11.5 -6.5q-8 -6 -18 -16q-27 -18 -37 -39q-14 -16 -21 -37h-4q-4 -6 -16 -18q-6 -4 -11.5 -8.5t-11.5 -8.5q-2 -4 -12 -8q-4 -4 -10 -4h-2q-2 2 0 4l6 8l6 11l12 14 l21 27q4 6 9 13t9 15l8 17q4 10 2 16q0 6 -2 6q0 4 -6 4t-8 -2l-12 -4l-13 -8q-4 -2 -10 -8q-4 -4 -6 -5t-4 -4q-8 -8 -12 -8l-21 -22q-4 -4 -9 -9.5t-9 -9.5l-11 -12l-10 -10l2 4l25 35l26 37q0 2 1.5 2t1.5 2q2 2 2 4q2 2 2 6l-7 6q-2 0 -3 1t-3 1t-4 -1t-6 -1l-10 -6 l-4 -4q-4 -2 -4 -4t-2 -4l-5 -7l-77 -133q-2 -2 -2 -4v-2zM1083 55q0 6 1 11.5t3 11.5q2 10 11 18q10 10 20 15q6 4 25 4q16 0 24 -4q4 -4 8.5 -5.5t8.5 -5.5t6 -9t6 -11q4 -12 4 -25q0 -16 -8 -30q-2 -8 -18 -21q-10 -8 -31 -8q-20 0 -35 8q-6 4 -10 10t-8 13q-6 12 -7 28z M1114 55q0 -8 2 -13t4 -9q4 -10 23 -10q16 0 20 10q6 6 6 22q0 14 -6 25q-6 10 -20 10q-16 0 -23 -10q-2 -4 -4 -10.5t-2 -14.5zM1128 -170q1 16 11 41q12 16 39 16q10 0 22 -4q8 -2 17 -14q4 -6 7 -11t3 -12h-31q0 4 -4 13q-6 6 -12 6q-10 0 -17 -10q-8 -6 -8 -21 q0 -6 1 -10t1 -8q4 -4 5 -6.5t3 -4.5q4 -4 13 -4q8 0 12 4q6 2 6 13h27q0 -10 -6 -23q-4 -4 -7.5 -7t-7.5 -5q-12 -6 -24 -6q-23 0 -35 12q-6 2 -10 16q-4 12 -5 25zM1167 627h107v41h-2q-4 -4 -4 -6.5t-2 -6.5q-4 -4 -4 -8q-2 -2 -2 -3t-3 -3q-8 -8 -12 -10q-2 0 -6 -1 t-8 -1h-25v73q0 10 6 11q2 4 13 4h6v4h-64v-4h4q16 0 17 -15v-57q0 -16 -17 -16h-4v-2zM1221 -2v115h28v-17q12 18 35 19q14 0 21 -4l14 -13q4 -12 4 -20v-80h-29v70q0 8 -4 16q-6 6 -16 6q-12 0 -19 -8q-4 -4 -4 -19v-65h-30zM1237 -166q0 9 4 25q6 14 16 20q10 8 29 8 q20 0 29 -8q10 -6 14 -22q6 -12 6 -27v-6h-71q0 -12 6 -19q6 -6 16 -6q6 0 14 4q4 4 7 9h26q-4 -16 -10 -21q-8 -8 -14 -10q-12 -4 -23 -4q-49 0 -49 57zM1264 -158h43q0 10 -7 17q-4 2 -7 4t-9 2q-16 0 -20 -23zM1266 963l2 2q0 2 2 4q4 8 6 10l8 10q2 8 6 12q2 4 8 11 l19 24l26 33l7 8l8 6l8 7q2 2 8 2q4 2 8 2l7 -4q0 -2 1 -3.5t1 -3.5q0 -4 -2 -8q0 -2 -5 -6l-16 -22l-12 -23l-17 -14l-16 -19q-2 -2 -4 -3t-6 -5l-13 -10q-2 -2 -4 -3t-6 -5q-4 0 -5 -2t-5 -2q-8 -4 -10 -3h-2q-2 2 -2 5zM1268 717h2q10 0 14 -2l4 -4t4 -6l29 -39v-21 q0 -10 -2 -12q-8 -4 -14 -4h-7v-2h68v2h-8q-8 0 -12 4t-5 12v23l25 34l4 7q8 4 10 4q0 2 4 2q2 0 3.5 1t3.5 1h2v4h-47v-4h6q8 0 10 -2q4 -2 4 -6t-6 -11l-19 -26l-24 30q-4 8 -4 9v2q0 2 2 2q0 2 6 2h8v4h-61v-4zM1337 92v21h19v28h26v-28h21v-21h-21v-61v-6q0 -2 2 -2 q4 0 5.5 -1.5t5.5 -1.5l4 3h4v-25h-21q-14 0 -16 4q-8 0 -10 8v82h-19zM1352 -190h30v-31h-30v31zM1401 -170q0 16 10 41q12 16 39 16q10 0 23 -4q6 -2 18 -14q8 -10 8 -23h-29l-6 13q-6 6 -12 6q-10 0 -16 -10q-6 -6 -6 -21q0 -6 1 -10t1 -8q4 -8 8 -11q2 -4 10 -4 q10 0 12 4q6 2 6 13h31q-4 -12 -8 -23q-4 -4 -8 -7t-8 -5q-10 -6 -25 -6q-20 0 -35 12q-6 2 -10 16q-4 12 -4 25zM1473 31q0 16 8 24q16 8 24 11l27 4q10 0 10 8q0 14 -18 14q-8 0 -13 -4q-6 -2 -8 -14h-26q0 14 6 24q4 6 16 13q4 4 12 4h13q25 0 32 -4l7.5 -7.5t5.5 -7.5 t2 -14v-72q0 -6 8 -6v-6h-33q-2 0 -2 2v2v2q0 4 -1 5t-1 3l-8 -8q-2 -2 -3 -2t-3 -2t-4 -2q-6 0 -9.5 -1t-7.5 -1t-8 1t-8 1q-4 4 -7 6t-7 6q-4 8 -4 21zM1501 31q0 -8 4 -8q4 -4 11 -5h8l4 2q10 4 10 7q4 8 4 14v14q-6 -6 -12 -6l-14 -4q-6 0 -11 -4q-4 -2 -4 -10z M1511 -168q0 13 2 21q4 12 11 18q6 8 16 12q12 4 25 4q10 0 22 -4l8 -4t9 -6q4 -4 5 -9t5 -9q2 -6 2 -23q0 -16 -6 -29q-4 -14 -17 -20q-12 -6 -28 -6q-20 0 -31 8q-12 6 -18 20q-4 16 -5 27zM1538 -168q0 -14 6 -22q2 -4 8.5 -6.5t12.5 -2.5q16 0 18 9q6 8 6 22q0 13 -6 23 q-4 10 -18 10q-16 0 -21 -10q-6 -10 -6 -23zM1567 1167l28 37l13 23l26 35l2 2q0 4 4 4q0 2 2 2q0 -8 -2 -10l-8 -11l-6 -10q-2 -2 -3 -4t-3 -4l-16 -21l-19 -20l-10 -12q-4 -8 -8 -11zM1585 92v21h14v28h33v-28h19v-21h-19v-61v-8q2 0 4 -1.5t6 -1.5l5 3h4v-25h-19 q-14 0 -20 4q-6 0 -8 8q0 2 -2.5 5t-2.5 8v69h-14zM1636 -115h27v-16q8 18 31 18q8 0 16 -4q6 -4 12 -12q2 8 11 12q8 4 16 4q10 0 23 -4q8 -8 10 -14q4 -8 4 -19v-71h-27v63q0 23 -16 23q-18 0 -19 -23v-63h-26v63v11q0 4 -4 8t-15 4q-16 0 -16 -23v-63h-27v106z" />
<glyph unicode=":" horiz-adv-x="387" d="M-63 96q0 41 27.5 69t68.5 28t68.5 -28t27.5 -69t-27.5 -68.5t-68.5 -27.5t-68.5 27.5t-27.5 68.5zM346 829q0 41 27.5 69t68.5 28t69 -28t28 -69t-28 -68.5t-69 -27.5t-68.5 27.5t-27.5 68.5z" />
<glyph unicode=";" horiz-adv-x="387" d="M-229 -165q12 11 35.5 29.5t52 45.5t53.5 63q23 33 37 72t25.5 72t22.5 55.5t28 24.5q20 2 44.5 -3.5t45 -17.5t30.5 -28.5t2 -32.5q-8 -14 -35.5 -44t-66.5 -66t-82 -71.5t-82 -63.5t-69.5 -43t-40.5 -9q-12 6 0 17zM346 829q0 41 27.5 69t68.5 28t69 -28t28 -69 t-28 -68.5t-69 -27.5t-68.5 27.5t-27.5 68.5z" />
<glyph unicode="&#x3c;" horiz-adv-x="782" d="M106 465q-6 31 14.5 56.5t51.5 29.5q16 0 56 17.5t91.5 45t106.5 58t104.5 58.5t85 45.5t48.5 17.5q18 0 12 -29t-24.5 -63.5t-43 -64.5t-43.5 -32q-16 0 -71.5 -14.5t-120 -32.5t-126 -35.5t-91.5 -23.5q12 -18 40.5 -45t58.5 -54.5t54.5 -54.5t28.5 -45t-4 -37.5 t-20.5 -33t-25 -14.5t-16.5 17q-6 16 -29.5 46t-52 64t-53 66.5t-31.5 57.5z" />
<glyph unicode="=" horiz-adv-x="653" d="M61.5 393q-2.5 8 4 18.5t19.5 18.5t30 8h348q18 0 22 -8t-2 -18.5t-20 -18.5t-33 -8h-350q-16 0 -18.5 8zM184.5 557q-2.5 8 4 18.5t19.5 18.5t30 8h348q18 0 22 -8t-2 -18.5t-20.5 -18.5t-32.5 -8h-350q-16 0 -18.5 8z" />
<glyph unicode="&#x3e;" horiz-adv-x="776" d="M84 213q6 29 24.5 63.5t43 64.5t43.5 32q16 0 71.5 14t120 32.5t125.5 36t92 23.5q-12 18 -40.5 45t-58.5 54.5t-54.5 54t-28.5 45.5q-4 18 4 37.5t20.5 33t24.5 14.5t16 -18q6 -16 30 -45.5t52.5 -63.5t53 -66.5t30.5 -57.5q6 -31 -14 -56.5t-51 -29.5q-16 0 -56 -17.5 t-91.5 -45t-106.5 -58.5t-104.5 -58.5t-85 -45t-48.5 -17.5q-18 0 -12 29z" />
<glyph unicode="?" horiz-adv-x="786" d="M-68 96q0 41 28 69t69 28t68.5 -28t27.5 -69t-27.5 -68.5t-68.5 -27.5t-69 27.5t-28 68.5zM387 474q0 11 6 20q45 49 121 107t169 120.5t194.5 127t194.5 129t171 127t124 119t53 105.5t-42 86q-41 31 -100 32t-123.5 -23.5t-127 -70.5t-110 -105.5t-72 -130 t-14.5 -144.5q2 -23 -21.5 -46.5t-56 -33.5t-64.5 -2t-44 49q-16 55 13.5 129t90 147.5t145.5 139t178 101.5t186.5 32.5t173.5 -62.5q92 -70 103 -140t-34 -139t-136 -136.5t-201.5 -132t-230.5 -124t-224.5 -112.5t-182 -100t-102.5 -84q-8 -12 -16.5 -11t-14.5 8t-6 18z " />
<glyph unicode="@" horiz-adv-x="1515" d="M-180 -11q4 132 71.5 287.5t187.5 321.5t267 313q150 150 312.5 248t314 142.5t280.5 29t213 -93.5q70 -66 78 -162t-29.5 -205.5t-112.5 -226.5t-168 -224.5t-196.5 -198.5t-200 -149.5t-176 -77t-126.5 20.5q-39 29 -26 86.5t56 128.5q-104 -102 -194 -164.5 t-162 -62.5q-90 0 -112.5 57.5t7 147.5t103.5 199.5t175 213t221 189.5t242 128t239.5 27.5t211.5 -108.5q18 -18 0 -39.5t-52 -39t-67.5 -25t-46.5 5.5q-14 115 -70 144.5t-136 0.5t-174.5 -103.5t-186.5 -169.5t-173 -197.5t-132 -188.5t-65.5 -141.5t26.5 -55.5t94.5 32 t120 90t148.5 138t182 178q37 39 70.5 75t60.5 61.5t45 42t25 20.5q14 8 41.5 9t55.5 -2t48 -11t20 -21q0 -8 -45 -52t-111.5 -106.5t-142 -134t-137 -136t-96.5 -114.5t-20 -67q25 -31 89 -12.5t148 74t181.5 139.5t187.5 184.5t163.5 209t114.5 210.5t38 192.5t-66 155.5 q-74 74 -194 85t-262 -33t-296 -141t-297 -239q-94 -94 -178 -195t-151.5 -203.5t-113.5 -201t-64.5 -185.5t-6.5 -159.5t61 -122.5q82 -82 213 -87.5t291 53.5q20 6 33.5 3t16.5 -11.5t-6 -19.5t-36 -19q-170 -59 -313 -50t-231 99q-84 82 -80 214z" />
<glyph unicode="A" horiz-adv-x="1611" d="M3 27q-2 15 -2 30q0 25 5 47q8 38 33 48q129 51 308 166.5t374 263.5q-135 -6 -208 -13.5t-91 -7.5q-16 0 -15 13.5t11 31t26.5 30.5t32.5 13h43t74 -1t96 -2t111 -1q147 115 288.5 233.5t258 224t200.5 193t119 136.5q4 12 34 19q26 6 54 6h9q32 -1 56 -13 q21 -10 22 -32q0 -3 -1 -7q-4 -23 -47 -87.5t-109.5 -155.5t-147.5 -201.5t-161 -224t-152.5 -224.5t-121.5 -204q-48 -94 -66 -162q-7 -26 -7 -45q0 -33 18 -50q18 -18 57 -6t89 44t108.5 79t116 100.5t107.5 108.5t87 102q18 23 35.5 11.5t3.5 -29.5q-31 -41 -81 -97.5 t-109.5 -113.5t-124 -110.5t-126.5 -89.5q-60 -36 -114 -48q-18 -4 -34 -4q-31 0 -54 16q-46 34 -56 92q-3 20 -4 41q0 43 12 93q18 76 61.5 167t98.5 187l-272 -6q-129 -111 -252 -215.5t-228.5 -189.5t-185.5 -146.5t-119 -85.5q-9 -6 -17 -6q-13 1 -23 17q-15 26 -20 65z M909 643q72 -2 134.5 -3t103.5 -1q86 141 183 281.5t177 255.5q-117 -109 -272.5 -247t-325.5 -286z" />
<glyph unicode="B" horiz-adv-x="1542" d="M1 236v5q-1 48 15 91q16 45 43 71q32 32 59 32q6 0 12 -2q32 -9 53.5 -37.5t30.5 -62.5t1 -42q-4 -6 -17 -33q-12 -28 -19 -62q-4 -22 -4 -46q0 -14 1 -28q4 -40 32 -73t86 -54.5t161 -21.5q129 0 247.5 49.5t213 122t158.5 158.5q66 86 86 159q8 29 8 54q0 38 -19 68 q-31 49 -125 49h-72q-82 -76 -162.5 -150.5t-151.5 -141.5t-127 -122t-91 -92q-28 -31 -43 -31q-5 0 -9 6q-4 5 -5 13q0 18 22 49q43 61 125 155.5t180 202t201.5 220t190.5 210t146.5 169t67.5 100.5q4 16 40 26q33 9 69 9h7q40 -1 69.5 -15t23.5 -47q-4 -18 -47 -67.5 t-113.5 -120t-160.5 -155.5t-187 -175h39q104 0 208 47t192 121t154 163t94 171q18 51 17 95q-1 27 -7 51q-18 64 -95 91q-82 27 -170 27t-173 -20.5t-160.5 -57.5t-129.5 -82t-84 -94q-23 -39 -23 -75q0 -10 1 -19q4 -23 -32 -52q-34 -30 -82 -50q-45 -19 -88 -18h-4 q-44 1 -56 42q-3 11 -3 22q-1 32 23 74q32 57 100 117.5t165.5 116t216.5 91.5t254 44q25 1 51 1q111 0 227 -28q144 -36 198 -106q45 -59 45 -128q0 -14 -2 -28q-11 -86 -76.5 -179t-164 -171t-216.5 -131.5t-234 -61.5q104 -35 140 -101q22 -40 22 -85q0 -29 -8 -59 q-22 -80 -98.5 -163t-192 -152t-267 -112t-325.5 -43q-127 0 -213 28t-139.5 71t-76 97t-23.5 106z" />
<glyph unicode="C" horiz-adv-x="960" d="M16 366q28 118 104.5 252t187 263t246.5 244.5t284 198.5t298 126q106 30 205 31q42 0 82 -6q61 -8 79 -35q10 -15 10 -34q0 -15 -6 -33q-14 -40 -52.5 -92t-89.5 -108.5t-108.5 -115t-109.5 -114.5t-92 -106.5t-57 -88.5q-16 -44 -51 -46h-8q-32 0 -60 16 q-32 18 -55.5 45.5t-19.5 41.5q23 53 93.5 118.5t157.5 132t175 130t145.5 116t68.5 86.5q2 5 2 8q0 26 -59 34q-15 2 -31 2q-75 0 -165 -38q-110 -46 -227 -130t-237 -197t-226.5 -235.5t-191.5 -247.5t-134 -232.5t-55 -188.5q-1 -8 -1 -16q0 -69 48 -102q32 -22 77 -22 q13 -1 29 1q64 8 139.5 41t157.5 84.5t157 108.5t136.5 115.5t98.5 105.5q18 23 36.5 11.5t1.5 -29.5q-39 -51 -102 -113.5t-140 -122t-162 -112t-167 -85t-154 -42.5q-19 -2 -37 -2q-49 0 -87 20q-102 52 -132 148q-16 50 -16 106q1 51 14 108z" />
<glyph unicode="D" horiz-adv-x="1769" d="M2 236v11q0 45 14 85q16 45 43 71q32 32 59 32q6 0 13 -2q33 -9 54.5 -37.5t30.5 -62.5t1 -42q-4 -6 -17 -33q-12 -28 -19 -62q-4 -22 -4 -46q0 -14 1 -28q4 -40 32 -73t86 -54.5t161 -21.5q115 0 248 53.5t268 142.5t263 206t233.5 241.5t178.5 250.5q72 127 98 235 q12 49 12 92q0 54 -18 99q-32 83 -138 122q-80 31 -168 31t-173 -20.5t-161 -58.5t-132 -83q-54 -45 -84 -95q-23 -39 -23 -76q0 -10 1 -19q2 -14 -14.5 -34t-43 -37t-58 -30.5t-61.5 -17.5t-53.5 4t-31.5 37q-3 11 -3 22q-1 32 23 74q32 57 99 117.5t165.5 116t217.5 91.5 t254 44q25 1 51 1q111 0 227 -28q147 -35 214 -119q65 -82 65 -191v-6q-2 -114 -62.5 -247t-165 -267.5t-245 -258t-302 -220t-336.5 -154t-347 -57.5q-127 0 -213 28t-139.5 71t-76 97t-24.5 106zM370 102q-4 5 -5 13q0 18 22 49q33 45 87 110.5t122 142.5t144.5 159.5 t152.5 165.5t146.5 160t125 141.5t90 111t41.5 66.5q6 16 42 26q33 9 69 9h7q40 -1 70 -15q25 -12 24 -36q0 -5 -1 -11q-4 -25 -71.5 -96.5t-171 -171t-228.5 -215t-244.5 -226t-219 -206t-152.5 -152.5q-26 -31 -41 -31q-5 1 -9 6z" />
<glyph unicode="E" horiz-adv-x="1007" d="M8 254q-8 36 -7 72q-1 42 9 84q18 80 73.5 147.5t149 115.5t228.5 64q-7 34 -7 67q0 68 28 136q42 100 124 185t193.5 156t230.5 117q118 46 234 68q74 14 138 13q36 0 68 -4q61 -8 79 -35q10 -15 10 -34q-1 -15 -7 -33q-14 -40 -52 -92t-89 -108.5t-108.5 -115 t-109.5 -114.5t-92 -106.5t-57 -88.5q-16 -44 -51 -46h-8q-31 0 -59 16q-32 18 -56 45.5t-20 41.5q16 41 61 88t104.5 96t128 99.5t132 97.5t115 89t78 74.5t21.5 53t-56 27.5q-18 2 -38 2q-53 0 -117 -16q-87 -22 -176 -65.5t-172 -108t-145 -141.5q-64 -77 -94 -164 q-21 -60 -21 -120q0 -28 5 -55q6 -29 -25 -29q-102 -6 -186 -52t-147.5 -112.5t-103.5 -145.5t-54 -153q-8 -39 -8 -75q0 -31 6 -59q12 -62 55 -91q32 -22 77 -23q12 0 28 2q64 8 140.5 41t158 84.5t156.5 108.5t136.5 115.5t98.5 105.5q18 23 35.5 11.5t3.5 -29.5 q-39 -51 -102.5 -113.5t-140.5 -122t-163 -113t-167 -86.5q-82 -32 -154 -42q-18 -2 -34 -2q-51 0 -89 22q-76 41 -124.5 107.5t-64.5 142.5z" />
<glyph unicode="F" horiz-adv-x="1019" d="M5 7.5q-4 5.5 -4 12.5q0 18 22 50q23 33 61.5 81t89.5 106t110.5 126t125.5 139h-86q-16 0 -21.5 7.5t-2.5 14.5t13.5 14t26.5 7h109q113 123 226 248t203 227q89 102 143 172q49 63 49 81q0 2 -1 3q-6 14 -37 24.5t-67.5 19t-68.5 14.5t-40 10q-8 8 -8 10q-6 10 4 21.5 t33 17.5q49 12 144 19.5t209 10.5t234.5 6t224 6t176.5 10.5t91 19.5q8 5 13 5q9 0 9 -15q0 -17 -14 -47q-16 -32 -46 -67.5t-71 -53.5q-26 -10 -95 -10q-14 1 -31 1q-95 2 -217.5 13.5t-256 26t-237.5 22.5q121 -29 170 -68q37 -29 37 -64q0 -11 -4 -24q-6 -25 -62.5 -87 t-142.5 -150t-193.5 -191.5t-218.5 -210.5h285q35 0 27.5 -21.5t-44.5 -21.5h-313q-80 -78 -156.5 -150.5t-142 -136t-119 -115.5t-84.5 -87q-28 -31 -42 -31q-6 0 -10 5.5z" />
<glyph unicode="G" horiz-adv-x="1085" d="M6 163q-3 23 -3 47q0 71 31 156q42 115 133 247t213 260t266.5 244t292.5 201t293 129q105 32 200 32q34 0 67 -4q80 -10 86 -53q1 -6 1 -12q0 -40 -35 -96q-40 -65 -111.5 -141.5t-145 -153.5t-136 -148.5t-83.5 -122.5q-18 -43 -52 -46h-8q-30 0 -59 16q-34 19 -58 46 t-17 41q16 41 61 88t104.5 96t128 99.5t132 97.5t115 89t78 73.5t21.5 53t-57 28.5q-10 1 -20 1q-63 0 -153 -41q-105 -49 -227 -134t-253 -198.5t-252 -235.5t-222 -244.5t-163.5 -226t-79.5 -178.5q-4 -18 -4 -34q0 -48 39 -69q16 -8 36 -8q18 0 40 7q45 15 98 53 t112.5 92t114.5 114q74 98 144.5 176t116.5 106q37 23 83 25h16q36 0 64 -7q35 -10 50.5 -26.5t-9.5 -28.5q-18 -8 -61 -43.5t-102.5 -90t-128 -121t-137 -136t-132 -137.5t-110.5 -123q-12 -16 -26 -24q-11 -5 -19 -5q-3 0 -5 1q-10 2 -11 13t9 32q16 35 47 84t68 104 q-78 -63 -151 -94q-38 -17 -71 -17q-29 0 -54 13q-90 45 -105 134z" />
<glyph unicode="H" horiz-adv-x="1402" d="M16 368q14 28 36 51t44 27q59 8 138 23.5t167 38.5q84 96 175.5 197.5t178.5 198.5t165.5 186.5t139 161t97.5 122t43 68.5q4 16 44 26q37 10 77 10h8q45 -1 80 -15.5t29 -47.5q-2 -14 -39 -58t-97.5 -107.5t-141.5 -145.5t-173 -172t-190.5 -185.5t-194.5 -187.5 q162 45 306.5 88t228.5 70q104 119 214.5 235.5t203 215t153.5 171t72 103.5q4 16 40 26q32 10 68 10h7q40 -2 70 -16q25 -12 25 -37q0 -5 -1 -10q-4 -23 -62.5 -88t-149.5 -156.5t-204 -203t-227.5 -226t-219 -226.5t-178.5 -206q-74 -95 -106 -163q-17 -36 -17 -60 q0 -22 13 -35q16 -18 55 -6t90 44t109.5 79t116 100.5t107.5 108.5t87 102q8 12 18.5 14.5t17.5 -2t8 -13.5t-7 -17q-31 -41 -80 -97.5t-109.5 -113.5t-125 -110.5t-125 -89.5t-113.5 -48q-18 -4 -33 -4q-31 0 -55 16q-47 32 -47 90v10q4 64 47 150t117.5 186.5t164.5 204.5 q-162 -49 -304 -94t-263 -86q-78 -74 -147.5 -141.5t-128 -124.5t-103.5 -102.5t-72 -73.5q-37 -43 -50 -25q-4 5 -4 12q0 18 22 50q35 49 108.5 138t171.5 200q-123 -41 -198.5 -69t-92.5 -32q-19 -6 -19 12q-1 20 15 49z" />
<glyph unicode="I" horiz-adv-x="729" d="M1 114q5 66 50 152t121 186.5t168 206t191.5 211t189.5 200.5t165 175t115 133q-41 -23 -92 -52.5t-104 -68t-104.5 -85t-92.5 -101.5q-16 -23 -29.5 -10.5t-16.5 45.5q-1 7 -1 14q-1 28 9 63q12 44 44 85q29 37 86.5 60.5t123 43t129 40t102.5 48.5h2q18 12 53 18 q24 4 47 5q11 0 21 -1q34 -2 58 -18q20 -13 20 -34q0 -4 -1 -9q-4 -25 -63 -90t-151.5 -157.5t-207 -203t-231.5 -226t-223.5 -228.5t-180.5 -207q-75 -95 -109 -163q-18 -37 -18 -61q0 -21 13 -34q12 -12 33 -12q12 0 28 4q43 10 101.5 41t126 76t133 98t124 110.5 t101.5 110.5q18 23 36.5 11.5t4.5 -29.5q-31 -41 -87 -97.5t-124.5 -113.5t-143.5 -110.5t-145 -89.5t-130 -48q-20 -4 -37 -4q-34 0 -58 16q-46 32 -46 89v11z" />
<glyph unicode="J" horiz-adv-x="1079" d="M3 264q7 74 39 149.5t80 138t104.5 104.5t113.5 46q11 1 22 1q39 0 61 -18q28 -23 37 -53t4 -56.5t-18 -28.5q-45 -4 -99 -33t-105.5 -72t-92 -96t-61.5 -106q-15 -40 -15 -77q0 -11 1 -21q6 -46 51 -76q41 -27 86 -27q40 0 82 21q90 46 188.5 155t204 260.5t214 311 t217 310t212.5 255.5q-86 -35 -184 -79t-190.5 -94.5t-169 -105.5t-119.5 -110q-16 -23 -30.5 -9.5t-17.5 44.5q-1 8 -1 16q0 26 9 60q11 44 44 85q18 25 75.5 50.5t135 52t166 52t168 50.5t141 47.5t88.5 40.5q4 4 8 4q10 4 38 9t60 7h31.5h32.5q33 -2 54 -7q22 -6 22 -18 q0 -10 -23 -26q-94 -61 -191.5 -165.5t-196.5 -229.5t-200.5 -262t-202 -264t-201 -235.5t-197.5 -178.5t-190 -89q-26 -5 -51 -5q-67 0 -131 37q-63 37 -86 99q-19 48 -19 103q0 16 2 33z" />
<glyph unicode="K" horiz-adv-x="1351" d="M5 7.5q-4 5.5 -4 12.5q0 18 22 50q33 45 98 123.5t151 177t186.5 211t201 224.5t194.5 217t167 191t120 146.5t53 81.5q4 16 44 26q37 10 77 10h8q45 -1 80 -15.5t29 -47.5q-4 -16 -51.5 -71.5t-126 -137.5t-181 -182t-215.5 -209q39 0 98.5 27.5t133 75t157.5 107.5 t169 122.5t170 123t161 107.5t139.5 76t106.5 29q14 0 20 -32q3 -14 3 -29q0 -20 -5 -42q-8 -39 -32.5 -73.5t-71.5 -38.5q-37 -2 -106.5 -37t-159 -86t-189.5 -110.5t-199.5 -113t-189.5 -92t-156 -49.5q93 -38 113 -102q10 -31 10 -65q0 -35 -12 -75q-22 -76 -68.5 -156.5 t-91.5 -149t-72 -118.5q-15 -27 -15 -43q0 -14 11 -20q18 -12 58.5 2.5t91.5 46t109.5 76.5t115.5 97.5t108.5 105.5t86.5 100q18 23 36.5 11.5t2.5 -29.5q-31 -41 -82.5 -96.5t-111.5 -113.5t-126.5 -111.5t-128.5 -89.5t-114 -48q-18 -4 -32 -4q-31 0 -53 16 q-32 25 -32 73q1 5 1 11q4 56 25 128.5t52.5 153.5t51 156.5t19.5 140t-39 101.5q-119 -115 -237.5 -229.5t-223 -215t-184.5 -179t-119 -121.5q-28 -31 -42 -31q-6 0 -10 5.5z" />
<glyph unicode="L" horiz-adv-x="1218" d="M1 14q-1 3 -1 6q0 19 23 50q31 45 97 123.5t152 177t186.5 211t201 224.5t193.5 217t167 191t120 146.5t52 81.5q4 16 44 26q37 10 77 10h8q45 -2 80 -16q30 -12 30 -38q0 -4 -1 -9q-4 -16 -48.5 -67.5t-118 -128t-170 -172t-203 -199t-217 -210t-212 -204.5t-188.5 -183 t-146 -147l446 232q3 0 7 4q14 8 41.5 9t55.5 -2t48 -11t20 -21q0 -8 -16 -27.5t-38.5 -45t-48.5 -54t-43 -55.5t-22 -48.5t11 -33.5q10 -9 28 -9q14 0 34 6q44 13 102.5 45t125 79t130 99.5t119 106.5t92.5 101q8 12 18 14.5t17.5 -2t9.5 -13.5t-7 -17q-31 -41 -86 -96.5 t-122.5 -111.5t-142.5 -109.5t-144.5 -90.5t-129.5 -52q-28 -7 -51 -7q-28 0 -49 10q-39 18 -54 46q-16 30 -16 64q0 29 11 62q12 35 29 66l-471 -232q-25 -16 -30 4z" />
<glyph unicode="M" horiz-adv-x="1665" d="M1 108q0 33 22 44q98 45 220 142t251 221t254.5 263.5t229 266t176 230.5t97.5 157q10 27 28.5 37t33 5.5t19.5 -20.5t-9 -43l-594 -1175l1245 1105q59 72 68 101q6 16 41 26q32 10 68 10h7q40 -2 70 -16q25 -12 24 -36q0 -5 -1 -11q-4 -23 -62.5 -88t-148.5 -156.5 t-204 -203t-227.5 -226t-219 -226.5t-179.5 -206q-73 -95 -106 -163q-18 -36 -17 -61q0 -22 13 -34q18 -18 57 -6t89 44t108.5 79t116 100.5t107.5 108.5t87 102q8 12 18.5 14.5t17.5 -2t8 -13.5t-5 -17q-31 -41 -81 -97.5t-109.5 -113.5t-124 -110.5t-126 -89.5t-114.5 -48 q-18 -4 -33 -4q-31 0 -55 16q-43 32 -46 84v10q-1 48 25 110q28 68 83 150.5t124.5 170.5t151.5 179t164 179q-98 -86 -200.5 -176t-201 -176t-186.5 -163t-155.5 -136.5t-109.5 -96t-48 -40.5q-37 -31 -71 -47.5t-53 -15.5q-20 2 -23 24v5q0 23 20 66q16 35 55 116 t86 180.5t97 205t89 186.5q-76 -92 -154.5 -186t-154.5 -183t-147.5 -170t-131 -146.5t-105.5 -111.5t-73 -67q-8 -6 -16 -6q-12 1 -26 15q-22 24 -38 60q-16 38 -15 74z" />
<glyph unicode="N" horiz-adv-x="1558" d="M1 108q0 33 22 44q98 45 221 142t252 221t253.5 263.5t229 266t177.5 230t95 157.5q10 25 26.5 35t31 9t21.5 -14.5t-1 -36.5l2 2l-6 -10v-4q-4 -10 -36 -73.5t-80 -161t-105 -220t-114.5 -248.5t-109 -245t-85 -213t-43.5 -150q-3 -18 -4 -30q0 -27 16 -27q25 0 79 47 t129 127t163 185.5t179 222t179 236.5t163 229.5t131 200t83 149.5q8 16 48 26q37 10 76 10h8q44 -2 78 -16q28 -12 28 -36q0 -5 -1 -11q-4 -18 -55 -89t-135 -174t-192.5 -229t-226.5 -255t-234.5 -251t-218 -217.5t-178 -152.5t-113.5 -57q-46 0 -60 45q-10 32 -10 78 q0 19 2 41q6 74 28.5 166t51.5 185t59.5 178t53.5 146q-115 -137 -237 -277t-229.5 -260t-192.5 -208t-124 -119q-8 -6 -16 -6q-12 1 -26 15q-22 24 -38 60q-16 38 -15 74z" />
<glyph unicode="O" horiz-adv-x="1138" d="M5 139q-4 26 -4 55q1 68 25 152q36 119 113.5 256t182 271.5t228.5 254t252 203.5t251 120q64 19 123 19q54 0 104 -16q90 -28 116 -98q13 -36 13 -80q1 -40 -11 -85q-24 -95 -88.5 -210t-156.5 -233.5t-203.5 -234.5t-226.5 -214q24 -11 61 -11q11 0 22 1 q52 4 110.5 26.5t118 63.5t104.5 100q18 23 35.5 11.5t3.5 -31.5q-43 -55 -107.5 -102.5t-134.5 -76t-138 -33.5q-11 -1 -21 -1q-54 0 -91 22q-88 -72 -173 -128t-162 -91t-141 -45q-22 -3 -41 -3q-39 0 -69 13q-80 37 -95 125zM82 157q-2 -14 -2 -25q0 -54 45 -69 q25 -9 55 -9q24 0 50 6q60 12 130 46.5t147 90t155 122.5v13q0 72 41 152q45 87 115 160t148 118q67 38 124 38q10 0 20 -1q72 96 126 187t84 169q31 81 31 141q0 57 -36 86q-25 22 -64 22q-30 0 -68 -14q-87 -30 -196.5 -110t-230.5 -195.5t-235.5 -243.5t-211 -259 t-156 -240t-71.5 -185z" />
<glyph unicode="P" horiz-adv-x="1363" d="M5 6.5q-4 4.5 -4 12.5q0 18 22 49q43 61 130 162.5t194.5 220t222 243.5t211 232.5t161 186.5t72.5 108q4 16 40 26q33 9 68 9h8q40 -1 69.5 -15t23.5 -47q-4 -20 -60.5 -83.5t-146.5 -153t-203 -197t-227 -217.5q16 2 37.5 2h44.5q135 0 265 54t237.5 139t184.5 187.5 t103 200.5q12 45 13 85q0 47 -17 89q-31 78 -137 115q-82 27 -170 27t-173 -20.5t-160 -57.5t-130 -82t-85 -94q-23 -38 -23 -73l3 -26q0 -21 -33 -47q-36 -30 -83 -50q-45 -19 -87 -18h-4q-44 1 -57 42q-3 10 -3 22q0 32 24 74q33 57 100.5 117.5t164.5 116t216 91.5 t255 44q25 1 50 1q111 0 228 -28q172 -41 240 -128q56 -72 55 -156q-1 -18 -3 -36q-14 -106 -100 -217.5t-221 -203.5t-307 -150.5t-361 -58.5h-58.5t-47.5 2q-80 -74 -155 -145.5t-139.5 -133t-115.5 -113t-82 -83.5q-26 -29 -41 -29q-5 0 -9 4.5z" />
<glyph unicode="Q" horiz-adv-x="1138" d="M5 139q-4 26 -4 55q0 68 25 152q35 119 113 256t182.5 271.5t228.5 254t251 203.5t251 120q65 19 124 19q54 0 104 -16q90 -29 116 -98q13 -37 13 -80q0 -39 -11 -85q-24 -95 -88.5 -210t-156.5 -233.5t-203.5 -234.5t-226.5 -214q24 -11 61 -11q10 0 22 1 q52 4 110.5 26.5t118 63.5t104.5 100q18 23 35.5 11.5t3.5 -31.5q-43 -55 -107.5 -102.5t-134.5 -76t-138 -33.5q-10 -1 -21 -1q-53 0 -91 22q-141 -117 -268 -184q10 -61 25.5 -107.5t41.5 -64.5q10 -8 2 -42t-27.5 -67.5t-45.5 -54.5q-14 -11 -26 -11q-10 0 -19 7 q-47 39 -59 114q-10 58 -10 126q0 22 1 45q-59 -23 -111 -27q-10 -1 -20 -1q-39 0 -70 13q-80 37 -95 125zM80 122q4 -45 45 -59q25 -8 54 -8q13 0 26 1q45 5 98 26q4 61 8 123.5t5 124.5v17q0 52 -5 101q-6 58 -22 105q-66 -92 -115 -174t-74 -147q-21 -57 -21 -98 q0 -6 1 -12zM319 594q20 -41 35 -95.5t24 -115.5t16 -124.5t16 -123.5q59 35 122.5 82t129.5 102v9q0 47 18 100q20 57 55 112.5t82 104.5t98.5 85t100.5 56q37 14 71 14q11 0 21 -1q72 96 127 187t85 169q31 81 31 141q0 57 -36 86q-25 22 -62 22q-19 0 -41 -6 q-67 -16 -151 -69t-181.5 -135t-195.5 -180.5t-192.5 -207t-172.5 -212.5z" />
<glyph unicode="R" horiz-adv-x="1378" d="M5 6.5q-4 4.5 -4 12.5q0 18 22 49q43 61 130 162.5t194.5 220t222 243.5t211 232.5t161 186.5t72.5 108q4 16 40 26q33 9 68 9h8q40 -1 69.5 -15t23.5 -47q-4 -16 -37 -56t-88.5 -97.5t-128 -129t-154.5 -149.5h25q121 0 229.5 40t192.5 102.5t137 138t65 148.5 q3 20 4 38q0 51 -25 95q-34 60 -126 91q-82 27 -170 27t-173 -20.5t-161 -57.5t-130 -82t-84 -94q-23 -38 -23 -73l3 -26q0 -21 -33 -47q-36 -30 -83 -50q-45 -19 -87 -18h-4q-44 1 -57 42q-3 10 -3 22q0 32 24 74q33 57 100.5 117.5t164.5 116t216 91.5t255 44q25 1 50 1 q111 0 228 -28q156 -36 228 -104q73 -68 72 -151q0 -79 -58 -161q-60 -84 -166.5 -153.5t-252 -115.5t-313.5 -50q90 -35 116 -95q17 -40 16 -85q0 -21 -4 -45q-13 -70 -50 -142.5t-73 -133.5q-37 -62 -57 -107q-10 -22 -10 -37t11 -23q18 -12 57 2.5t91.5 46t110.5 76.5 t115.5 97.5t107.5 105.5t87 100q18 23 36 11.5t3 -29.5q-31 -41 -82 -96.5t-112.5 -113.5t-127 -111.5t-127 -89.5t-113.5 -48q-17 -4 -33 -4q-30 0 -52 16q-35 27 -38 78q-1 10 -1 20q1 42 11 96q12 66 33.5 140t33.5 144q8 46 8 88q0 20 -2 40q-6 60 -45 99 q-104 -100 -212.5 -202.5t-206 -195t-175.5 -169t-121 -121.5q-26 -29 -41 -29q-5 0 -9 4.5z" />
<glyph unicode="S" horiz-adv-x="1054" d="M1 276q5 80 41 164t91 155t126 118t147 53h8q40 0 70 -20q34 -22 51.5 -50t15.5 -53t-27 -27q-84 -8 -156.5 -44.5t-130 -89t-95.5 -114.5q-38 -64 -51 -122q-6 -29 -6.5 -55.5t6.5 -51.5q13 -49 61 -73q47 -26 104 -26h4q59 1 119.5 31.5t117 88t97.5 143.5 q42 85 64 197q17 82 16 181q0 35 -2 71q-1 23 -1 45q0 138 53 260q62 141 179 241.5t277 148.5q113 34 241 34q53 0 109 -6q80 -8 94 -40q5 -11 5 -24q-1 -24 -17 -53q-26 -45 -80.5 -101.5t-112 -116t-106 -120t-62.5 -111.5q-12 -47 -48 -54q-12 -2 -23 -2q-24 -1 -48 9 q-34 14 -59.5 43t-19.5 51q14 53 74.5 108.5t136 107t150.5 97.5q75 47 119 81q41 32 41 55q0 27 -83 33q-30 3 -59 3q-100 0 -194 -32q-122 -41 -213 -121t-138 -194q-34 -82 -34 -175q0 -36 5 -73q9 -62 9 -122q0 -64 -10 -127q-19 -122 -67.5 -227.5t-120 -187.5 t-158.5 -131t-185 -57q-15 -1 -30 -1q-82 0 -165 36q-75 33 -105 99q-25 57 -26 124q0 12 1 24z" />
<glyph unicode="T" horiz-adv-x="942" d="M5 7.5q-4 5.5 -4 12.5q0 18 22 50q43 61 136 167.5t207.5 233.5t235.5 259t219.5 243.5t159.5 187.5q56 69 56 89q0 2 -1 3q-4 8 -37.5 18.5t-84 22t-107.5 22.5t-107.5 21.5t-86 16.5t-40.5 10l-6 6l-4 4q-4 10 5.5 21.5t31.5 17.5q51 12 156.5 19.5t234.5 10.5t269.5 6 t259 6t203 10.5t102.5 19.5q7 5 12 5q8 0 7 -14q0 -18 -14 -48q-15 -32 -45 -67.5t-71 -53.5q-20 -7 -78 -9q-14 0 -30 -1q-48 -1 -108 3q-81 4 -177 12.5t-194.5 16.5t-189.5 16.5t-161 12.5q68 -14 149 -30.5t148.5 -36t110.5 -41.5q38 -19 38 -40q0 -3 -1 -6 q-6 -20 -51.5 -72.5t-116 -126t-160.5 -161.5t-187.5 -182.5t-196.5 -188.5t-186 -177t-157 -151.5t-109 -111.5q-28 -31 -42 -31q-6 0 -10 5.5z" />
<glyph unicode="U" horiz-adv-x="1269" d="M8 139q22 76 83 173.5t152 210t193.5 226t205.5 222t187 201t141.5 160t65.5 98.5q6 16 41 26q29 8 62 8h13q40 -2 70.5 -16t24.5 -45q-4 -25 -62.5 -90.5t-148.5 -158.5t-203.5 -205.5t-229.5 -227.5t-222.5 -226.5t-182.5 -202.5q-77 -92 -115 -156q-24 -40 -24 -63 q0 -14 9 -22q11 -10 29 -10q24 0 62 18q66 31 161.5 99.5t211 167t238.5 209t245 226.5t230 220q76 82 146.5 155.5t125 133t89 104.5t41.5 68q3 16 39 26q32 10 69 10h7q40 -2 70 -16q24 -12 24 -35q0 -6 -1 -12q-4 -23 -62 -88t-149.5 -156.5t-204 -203t-227 -226 t-219 -226.5t-178.5 -206q-75 -95 -107 -163q-17 -36 -17 -60q0 -22 14 -35q16 -18 55 -6t90 44t109.5 79t116 100.5t107.5 108.5t87 102q8 12 18 14.5t17.5 -2t8.5 -13.5t-7 -17q-31 -41 -80 -97.5t-109.5 -113.5t-125 -110.5t-124.5 -89.5t-114 -48q-18 -4 -34 -4 q-31 0 -54 16q-48 31 -48 90q0 56 34 130t95.5 163.5t139.5 184.5q-96 -90 -190.5 -175t-181.5 -157t-165 -127t-142.5 -88t-111.5 -38q-7 -1 -14 -1q-37 0 -57 24q-25 28 -25 69q0 23 8 50z" />
<glyph unicode="V" horiz-adv-x="978" d="M2 140q10 77 52 175.5t108.5 210t142.5 225t154 222t143.5 200t109.5 159t52 98.5q4 16 40 26q30 8 63 8h13q40 -2 70.5 -16t24.5 -45q-4 -25 -50 -90.5t-118 -158.5t-160 -205.5t-177 -227.5t-171 -226.5t-141 -202.5q-58 -92 -84 -156q-13 -34 -13 -55q0 -20 11 -30 q10 -10 27 -10q26 0 67 25q67 40 161.5 123t210 199t238.5 244t245 259t230.5 244.5t195.5 199.5t140 123q12 8 31.5 -4t31.5 -34q9 -17 10 -38q0 -6 -1 -13q-4 -28 -39 -52q-115 -74 -234.5 -178.5t-241.5 -223t-242 -242.5t-231.5 -237.5t-212 -209t-182.5 -156.5 q-82 -60 -146 -76q-18 -5 -34 -5q-41 0 -67 31q-29 34 -29 89q0 15 2 31z" />
<glyph unicode="W" horiz-adv-x="1470" d="M3 136q15 77 66.5 173.5t130.5 208t168 225t179 223t164.5 200.5t126 159t59.5 98q4 19 40 29q30 9 63 8h13q40 -2 69.5 -16t23.5 -47q-4 -23 -55.5 -89.5t-132 -158.5t-181 -205t-202 -228.5t-195.5 -226t-160 -202.5q-67 -93 -99 -157q-19 -38 -18 -60q0 -16 9.5 -25 t24.5 -8q17 -1 42 9q47 20 112.5 68t147.5 120.5t172.5 159.5t183.5 183.5t185 192.5q82 111 164 216.5t149.5 194.5t112.5 153.5t55 95.5q4 16 40 26q30 8 63 8h13q40 -2 69.5 -16t23.5 -45q-4 -25 -53 -90.5t-126 -158.5t-171 -205.5t-190.5 -227.5t-184.5 -226.5 t-151 -202.5q-64 -92 -92 -156q-16 -36 -17 -58q0 -17 10 -27t26 -10q25 0 65 25q64 40 151.5 123t195 199t222.5 244t228.5 259t216 244.5t185.5 199.5t136 123q12 8 31.5 -4t31.5 -34q9 -17 10 -37q0 -7 -2 -14q-4 -28 -38 -52q-115 -74 -232 -178.5t-231.5 -223 t-226 -242.5t-215 -237.5t-195.5 -209t-169 -156t-137 -76.5q-16 -5 -31 -5q-38 0 -65 31q-28 31 -28 81v5q2 54 26.5 120.5t66.5 144.5t97 161q-125 -129 -243.5 -241.5t-218 -187t-174.5 -101.5q-29 -10 -52 -10q-37 0 -59 26q-28 30 -28 78q0 19 4 40z" />
<glyph unicode="X" horiz-adv-x="1482" d="M2 84q4 29 39 51q186 123 331.5 242t259 215t201 159.5t158.5 75.5q-35 41 -35 92.5t21.5 104.5t57.5 109.5t72 109.5t66.5 100.5t40.5 86.5q6 16 42 26q30 8 63 8h13q40 -2 70 -16t23 -45q-6 -31 -42.5 -79t-86 -102.5t-102.5 -112.5t-91 -111q-37 -54 -51 -99 q-4 -14 -5 -26q0 -28 22 -48q21 -20 53 -20q20 0 44 8q62 21 139 75t165.5 131t178.5 157.5t175 156.5t154 125q12 8 32 -4t32 -34q9 -17 9 -37q0 -7 -1 -14q-4 -28 -39 -52q-174 -115 -305 -212t-230.5 -171t-173 -120t-135.5 -56q44 -38 43 -94v-14q-6 -66 -40.5 -140 t-86 -149.5t-96.5 -140t-69 -110.5q-13 -26 -14 -41q0 -12 9 -18q18 -12 58.5 2.5t91.5 46t109.5 76.5t116 97.5t108.5 105.5t86 100q18 23 36.5 11.5t4.5 -29.5q-31 -41 -82 -96.5t-112.5 -113.5t-127 -111.5t-127 -89.5t-113.5 -48q-18 -4 -33 -4q-30 0 -52 16 q-31 24 -31 73v11q4 58 30.5 132.5t65.5 156.5t69.5 159t44.5 138q6 24 6 44q0 30 -13 50q-11 4 -24 4q-36 0 -87 -28q-70 -38 -157 -109.5t-183 -163.5t-190.5 -184t-181.5 -173t-152 -128q-5 -5 -12 -5q-8 0 -20 7q-20 12 -32 34q-9 17 -9 38q0 7 1 14z" />
<glyph unicode="Y" horiz-adv-x="1097" d="M2 248q4 67 32.5 136t73 125t98.5 93t111 43q11 1 21 1q40 0 62 -18q28 -24 37 -53.5t4 -56t-17 -29.5q-45 -4 -97.5 -28.5t-99.5 -61.5t-85 -83t-54 -91q-10 -29 -10 -56q0 -16 3 -31q9 -42 54 -72q39 -26 82 -26q25 0 51 8q72 24 149 93.5t159.5 175t168.5 229.5 t173.5 256t175.5 253q-106 -106 -199.5 -194.5t-170.5 -143.5t-136 -71q-18 -5 -34 -5q-38 0 -65 27q-41 37 -41 89q0 8 2 17q7 62 46 132.5t98 145t116.5 144.5t103.5 129t58 100q4 16 40 27q33 9 68 9h7q39 -1 69.5 -15t24.5 -47q-6 -31 -56 -86.5t-119.5 -124 t-146.5 -142t-135.5 -141t-87.5 -123.5q-14 -30 -14 -52q0 -21 13 -36q16 -20 59 -2.5t102.5 59.5t130 103t144 131t146.5 140.5t134 131.5q53 61 104.5 111.5t102.5 85.5q8 6 35 10t59 6q21 2 41 2h25q33 -2 54.5 -7t25.5 -16q1 -1 1 -3q0 -10 -24 -25 q-94 -61 -191.5 -165.5t-196.5 -229.5t-200.5 -262t-202 -264t-200.5 -235.5t-197.5 -178.5t-190.5 -89q-25 -5 -50 -5q-67 0 -131 37q-66 37 -91 95q-23 50 -23 107q0 8 1 17z" />
<glyph unicode="Z" horiz-adv-x="1316" d="M4 16q0 3 -1 5q0 19 20 49q39 55 146 157.5t250.5 229.5t305.5 267t310.5 268t266 233.5t173.5 165.5q-121 -51 -221.5 -73t-179.5 -22t-133 16.5t-83 43.5q-20 18 -12 38.5t31.5 39t59.5 35t70.5 25.5t63.5 10h5q25 0 34 -9q49 -45 93 -65.5t91 -21.5h6q44 0 96 14 q56 14 128 38l30 8q25 6 56.5 8.5t59.5 -4t44 -19.5q13 -10 13 -27q0 -5 -1 -11q-4 -16 -59 -68.5t-147.5 -129t-213 -173t-252.5 -201t-268.5 -212t-260.5 -205.5t-227 -183t-171 -145l547 240h2l2 2q14 8 42 9t55.5 -2t47 -11t19.5 -21q0 -12 -33 -49t-68.5 -79t-57 -79.5 t2.5 -56.5q10 -9 28 -9q14 0 34 6q44 13 102.5 45t125 79t130 99.5t119 106.5t92.5 101q8 12 18.5 14.5t16.5 -2t8 -13.5t-4 -17q-33 -41 -87.5 -96.5t-122 -111.5t-142 -109.5t-144.5 -90.5t-130 -52q-28 -7 -50 -7q-28 0 -49 10q-39 18 -54.5 47t-15.5 62.5t12.5 68.5 t30.5 66l-579 -244v2q-17 -10 -21 10z" />
<glyph unicode="[" horiz-adv-x="792" d="M-227 -135l1226 1376q12 12 21 16q2 0 3 1.5t3 1.5q2 2 4 2q12 4 19 4h348q18 0 22 -8.5t-2 -18.5t-20.5 -18.5t-32.5 -8.5h-320q-25 -27 -82 -91t-134.5 -153t-172 -194.5t-192.5 -216.5t-193.5 -217.5t-175.5 -196.5t-140 -156.5t-87 -97.5h307q18 0 22.5 -8t-2 -18 t-20.5 -18.5t-33 -8.5h-350q-6 0 -10 2q-27 4 -8 27z" />
<glyph unicode="\" horiz-adv-x="530" d="M-176 1398.5q6 8.5 18.5 10.5t26.5 -3t22 -20q4 -8 42 -75.5t97.5 -174t134.5 -240.5t152.5 -273.5t152.5 -272.5t133.5 -239.5t95 -173t40.5 -72.5q6 -12 -1 -19.5t-19 -8.5t-25.5 3.5t-19.5 16.5q-6 8 -44 77.5t-97.5 175t-134 239.5t-151.5 272.5t-150.5 270.5 t-133 237.5t-96.5 173t-41 73.5q-8 14 -2 22.5z" />
<glyph unicode="]" horiz-adv-x="792" d="M-548.5 -151.5q-4.5 8.5 1.5 18.5t20.5 18.5t32.5 8.5h320l1178 1323h-308q-18 0 -22 8t2 18t20.5 18.5t32.5 8.5h352q6 0 9 -2q27 -4 8 -27l-1227 -1376q-12 -12 -21 -17q-2 0 -3 -1t-3 -1q-2 -2 -4 -2q-12 -4 -18 -4h-348q-18 0 -22.5 8.5z" />
<glyph unicode="^" horiz-adv-x="845" d="M344 887q6 8 43 26.5t88 41t110.5 48t112 49t90.5 44t48 34.5q20 23 53 24t55 -24q14 -20 26.5 -60t21.5 -82t18.5 -79t19.5 -51q12 -14 3 -23.5t-27.5 -11.5t-39 3t-32.5 20q-12 14 -18.5 49t-10.5 77t-8 81t-10 59q-23 -20 -74 -58t-105.5 -79t-99.5 -76t-55 -49 q-12 -14 -51 -16.5t-78 5t-65.5 20.5t-14.5 28z" />
<glyph unicode="_" horiz-adv-x="749" d="M-170 -102.5q-2 8.5 4 18.5t19.5 18.5t29.5 8.5h574q18 0 22 -8.5t-2 -18.5t-20.5 -18.5t-32.5 -8.5h-576q-16 0 -18 8.5z" />
<glyph unicode="`" horiz-adv-x="786" d="M86 1292q-16 10 4.5 30.5t55 40t71.5 30t53 2.5q14 -10 71.5 -41t127.5 -67t134.5 -67.5t92.5 -43.5q47 -23 40 -38t-83 3q-16 4 -62 15t-105.5 25.5t-126 31t-124 32t-98.5 28.5t-51 19z" />
<glyph unicode="a" horiz-adv-x="962" d="M-164 60q-10 25 -9 55q1 41 17 92q30 90 103 199.5t174.5 213t221.5 189.5t242 128q91 31 179 31q30 0 60 -4q118 -14 212 -108q9 -9 9 -19q0 -11 -9 -21q-18 -22 -52 -39t-67.5 -24.5t-46.5 5.5q-14 114 -70 144q-28 15 -63 15q-33 0 -73 -14q-80 -29 -174.5 -103.5 t-186.5 -169.5t-173 -197.5t-132 -188.5q-52 -86 -66 -142q-4 -14 -3 -25q0 -30 30 -30q43 0 98.5 34t125 95.5t156.5 147.5t191 188q66 72 115.5 119t59.5 53q14 8 41.5 9t55 -2t48 -11t20.5 -21q0 -8 -45 -52t-110.5 -106.5t-139 -134t-133 -136t-93.5 -114.5 q-23 -33 -23 -52q0 -9 6 -15q16 -18 59 -6t101.5 44t126 80t132 102.5t120 108.5t92.5 101q8 12 18 14.5t17.5 -2t9.5 -12.5t-7 -18q-31 -41 -85 -96.5t-120.5 -112.5t-139 -110.5t-141.5 -89.5t-127 -48q-20 -4 -38 -4q-33 0 -57 14q-36 22 -36 64q0 14 4 30q15 64 63 142 q-111 -111 -206 -179.5t-169 -68.5q-91 0 -113 58z" />
<glyph unicode="b" horiz-adv-x="829" d="M-185 127q9 74 63 170t141 206.5t187.5 223.5t204 221.5t189.5 199.5t143.5 158.5t65.5 98.5q4 17 40 27q30 9 63 8h12q38 -2 68 -16q25 -12 25 -36q0 -5 -1 -10q-4 -25 -61.5 -88t-145.5 -153t-198.5 -198t-222.5 -220.5t-213 -221t-173 -199.5q-72 -90 -102 -156 q-15 -32 -15 -56q0 -23 15 -37q18 -16 61 -2t100.5 51t125 92.5t137.5 116.5q-5 13 -5 28q0 29 16 65q25 58 72.5 126t106.5 138.5t114.5 131t98.5 102.5t55 54q12 10 41 15.5t57.5 3.5t47 -13.5t6.5 -35.5q-8 -16 -40 -58.5t-78 -97.5t-102.5 -120.5t-113.5 -128 t-111.5 -119t-95.5 -93.5q23 -11 69 -12q4 0 8 1q52 1 115.5 21.5t129 59.5t114.5 104q8 12 18.5 14.5t17.5 -2t9.5 -12.5t-6.5 -18q-45 -59 -113.5 -105.5t-142 -73t-141.5 -30.5q-9 -1 -18 -1q-56 0 -93 23q-74 -68 -148.5 -126t-141 -96t-120.5 -50q-18 -4 -34 -4 q-32 0 -55 16q-47 34 -47 93q0 10 1 20z" />
<glyph unicode="c" horiz-adv-x="770" d="M-123 135v14q0 87 45 191q49 113 140.5 231.5t206 213t241.5 148.5q98 42 192 41q28 0 56 -3q82 -10 96 -47q5 -13 5 -28q-1 -28 -17 -62q-26 -54 -80.5 -118.5t-114 -132t-113 -132t-73.5 -115.5q-18 -43 -52 -45h-7l-61 17q-34 18 -57.5 44.5t-19.5 38.5 q23 55 84.5 114.5t134 117t145 110.5t115.5 94q46 43 46 69q0 24 -66 30h-11q-46 0 -102 -28q-64 -32 -133 -87t-142 -129t-137.5 -152.5t-117.5 -157.5t-85 -145.5t-39 -114.5q-1 -10 -1 -20q0 -33 20 -47q31 -21 76 -21q13 0 29 2q64 8 141.5 41t159.5 84.5t156.5 108.5 t135 114.5t97.5 104.5q8 12 18.5 14.5t17.5 -2t9 -12.5t-6 -18q-39 -51 -102.5 -112.5t-140.5 -121t-163 -112t-166.5 -86t-154.5 -43.5q-19 -2 -37 -2q-50 0 -88 20q-76 39 -80 131z" />
<glyph unicode="d" horiz-adv-x="976" d="M-170 154q12 68 59.5 156.5t119 180t162.5 178.5t191 155q100 67 206 108q101 39 197 39h9q78 -4 127 -43q78 84 150.5 159.5t130 138t94.5 108.5t43 71q4 17 40 27q30 9 63 8h12q40 -2 70 -16q25 -12 25 -36q0 -5 -1 -10q-4 -25 -60.5 -88t-145.5 -152t-198.5 -196.5 t-221 -219.5t-213 -220.5t-173.5 -199.5q-72 -92 -102 -158q-16 -34 -16 -58q0 -23 14 -37q16 -16 55 -4t90 44t109.5 80t115 101.5t107.5 107.5t88 101q8 12 18.5 14.5t16.5 -2t8 -12.5t-6 -18q-31 -41 -81 -97.5t-109.5 -113.5t-124 -110.5t-126 -90.5t-114.5 -48 q-17 -3 -32 -3q-32 0 -56 16q-49 33 -49 93q0 17 4 36q18 86 88 197q-70 -72 -134.5 -134.5t-123 -107.5t-110.5 -70.5t-97 -25.5q-79 0 -105 42q-18 29 -18 70q0 19 4 40zM-70 85q0 -4 -1 -8q0 -30 30 -30q47 0 113.5 46t151.5 125t186.5 184.5t218.5 224.5 q57 66 117.5 132t119.5 132q-25 23 -56.5 28t-61.5 5q-55 0 -126 -38t-147 -99.5t-153.5 -140.5t-146.5 -161t-123 -160.5t-86 -140t-36 -99.5z" />
<glyph unicode="e" horiz-adv-x="806" d="M-117 136v14q0 87 45 193q49 114 141.5 233.5t206 214t240.5 146.5q94 39 185 39q32 0 63 -5q62 -11 78 -63q6 -20 6 -42q0 -38 -18 -84q-28 -74 -94 -156.5t-167.5 -155.5t-234.5 -124t-295 -59q-53 -87 -71 -153q-7 -24 -7 -42q0 -32 21 -47q31 -21 78 -21q14 0 30 2 q68 8 147.5 41t165.5 84.5t164 108.5t141.5 114.5t98.5 104.5q8 12 18.5 14.5t17.5 -1.5q9 -6 9 -16q0 -7 -6 -15q-39 -51 -104.5 -112.5t-146.5 -121t-170 -112t-174 -86t-161 -43.5q-20 -2 -38 -2q-51 0 -89 20q-76 39 -80 132zM63 328q80 12 172.5 60t180.5 112.5 t164.5 137.5t126 135.5t63.5 105.5q4 12 5 21q0 24 -27 30q-9 2 -18 2q-52 0 -128 -46q-90 -54 -187.5 -144.5t-191.5 -201t-160 -212.5z" />
<glyph unicode="f" horiz-adv-x="589" d="M-446 -249q14 83 84.5 208t183 281.5t243 319.5t265.5 318.5t248 280.5q82 92 162.5 158.5t154.5 103.5t137 42q10 1 18 1q53 0 93 -26q38 -25 38 -69q0 -11 -3 -23q-11 -62 -49.5 -125.5t-92 -111.5t-88.5 -52q-9 -1 -18 -1q-25 0 -46 8q-28 11 -45.5 28.5t-21.5 35 t12 23.5q31 14 69 37.5t76 50.5t71.5 54.5t54 51t23.5 40t-19 22.5q-8 2 -16 2q-30 0 -67 -23q-48 -28 -106.5 -82.5t-123 -125t-132.5 -146.5l-278 -313q-8 -78 -38 -167t-75 -181q18 -27 52 -33q11 -2 22 -2q26 0 55 9q43 13 92.5 47t100.5 87q8 10 18 13.5t17.5 0 t8.5 -11.5t-7 -20q-37 -49 -89.5 -89t-107.5 -61.5t-106 -22.5h-3q-48 0 -79 29q-70 -129 -158 -252.5t-177 -218t-169 -147.5q-67 -45 -115 -45q-10 0 -18 2q-54 10 -54 67q0 13 3 28zM-400 -265q-1 -7 -1 -13q0 -23 28 -23q45 0 118 56.5t154 149.5t163.5 212t148.5 245 q-10 27 -14 65q-1 11 -1 23q0 30 7 66q-78 -88 -160 -183t-157.5 -185.5t-138 -172t-100.5 -143t-47 -97.5z" />
<glyph unicode="g" horiz-adv-x="952" d="M-500 -264q70 59 213.5 116.5t364.5 100.5q2 0 3 1t3 1q72 80 142.5 165t135.5 167q-123 -125 -227 -205t-186 -80q-90 0 -113 58q-9 24 -9 55q0 41 17 92q29 90 102.5 199.5t175 213t221.5 189.5t243 128q91 31 179 31q31 0 61 -4q116 -14 212 -108q9 -9 9 -18 q0 -10 -10 -22q-19 -21 -52 -38.5t-67.5 -25t-47.5 5.5q-14 115 -70 144q-27 15 -62 15q-33 0 -72 -14q-80 -29 -175.5 -103.5t-187.5 -169.5t-172 -197.5t-132 -188.5t-67 -142q-3 -14 -3 -25q0 -30 30 -30q47 0 107.5 40t139.5 111.5t178 171t222 216.5q50 55 103 98 q14 12 49 13h12q28 0 54 -4q30 -5 47.5 -14t0.5 -20q-37 -27 -106.5 -96t-147 -155t-153.5 -175.5t-127 -152.5l-53 -64q92 37 183 89.5t175 113t163 127t146 133.5q23 23 40.5 11.5t0.5 -29.5q-61 -61 -141 -135t-177 -144.5t-211 -133t-241 -105.5 q-119 -135 -230.5 -230.5t-207.5 -150t-173 -65.5q-18 -3 -35 -3q-54 0 -91 27q-59 42 -59 95q0 58 73 120zM-513 -376v-7q0 -33 24 -51q24 -17 54 -17q18 0 38 5q55 16 122.5 63t144.5 118.5t157 158.5q-197 -41 -312.5 -90.5t-170 -95.5t-57.5 -84z" />
<glyph unicode="h" horiz-adv-x="899" d="M-371.5 7.5q-4.5 5.5 -4.5 13.5q0 18 22 49q33 45 98.5 122.5t151.5 173t185 204t198.5 217t192.5 211t166 185.5t119 142t52 80q6 17 42 27q30 9 63 8h13q41 -2 71 -16q25 -12 25 -36q0 -5 -1 -10q-2 -16 -42 -62t-104.5 -113.5t-149.5 -152.5t-181 -178.5 t-198.5 -191.5t-199.5 -191q133 115 259 216.5t230.5 169t182.5 89.5q26 8 48 8q44 0 71 -30q30 -32 30 -70q0 -40 -35 -96q-34 -55 -105.5 -132.5t-182.5 -188.5q-61 -61 -134 -128t-133.5 -124.5t-94 -99.5t-15.5 -54q8 -5 22 -6q16 1 40 9q44 14 103 46.5t125.5 78.5 t131 97.5t119.5 104.5t90 100q18 25 36.5 13.5t4.5 -31.5q-31 -41 -85 -95.5t-120.5 -110.5t-139.5 -108.5t-141 -88.5q-66 -36 -126 -50q-25 -6 -47 -6q-29 0 -50 12q-43 23 -43 66q0 10 2 20q12 58 60.5 128.5t118 145.5t129.5 138q68 74 132 141.5t112.5 119.5t74 87 t17.5 41q-14 12 -59.5 -8.5t-111 -62.5t-146.5 -102t-168 -128t-174 -138.5t-162.5 -133t-136 -114.5t-95.5 -81l-100 -102q-27 -29 -42 -29q-6 0 -10.5 5.5z" />
<glyph unicode="i" horiz-adv-x="432" d="M-218 110q0 52 28 114q30 64 84.5 133t119 138.5t132 136t126 123t98.5 101.5t50 70q6 16 44 26q33 8 68 8h11q41 -2 69.5 -16t16.5 -45q-10 -25 -53.5 -70t-105.5 -102t-137 -123.5t-149.5 -134.5t-141.5 -134.5t-114 -122.5q-48 -56 -66 -98q-8 -19 -8 -34 q0 -19 13 -31q16 -18 55 -6t90 45t109.5 80t116 101.5t107.5 108.5t87 101q8 12 18.5 14.5t17.5 -2t9 -12.5t-6 -18q-31 -41 -81 -97.5t-110.5 -115t-126 -112.5t-126 -90t-112.5 -47q-15 -3 -29 -3q-33 0 -56 18q-48 40 -48 96zM676 1233q0 53 38 91t91 38t90 -38t37 -91 t-37 -90t-90 -37t-91 37t-38 90z" />
<glyph unicode="j" horiz-adv-x="473" d="M-1052 -376q30 54 102.5 110.5t181.5 110t236 89.5q96 92 198.5 195.5t199.5 206t184 199t154.5 175t110 136t50.5 80.5q6 18 46 28q29 6 61 6h23q44 -4 75.5 -18t21.5 -43q-10 -25 -93 -117t-211 -223t-288 -281.5t-319 -291.5q100 27 206.5 71.5t210 107t199.5 141.5 t176 173q18 25 35.5 13.5t3.5 -31.5q-86 -106 -191.5 -194.5t-223 -156t-240.5 -113.5t-242 -69q-119 -102 -228.5 -188t-198.5 -142.5t-152 -77.5q-25 -8 -44 -8q-28 0 -41 17q-17 21 -17 47q0 22 14 48zM-1012 -434q4 -5 12 -5q12 0 34 11q36 18 90.5 58t124 100.5 t147.5 134.5q-94 -37 -175 -83t-137.5 -89t-83.5 -78q-17 -23 -17 -37q0 -7 5 -12zM621 1233q0 53 36.5 91t90.5 38q53 0 89.5 -38t36.5 -91t-36.5 -90t-89.5 -37t-90 37t-37 90z" />
<glyph unicode="k" horiz-adv-x="837" d="M-371.5 7.5q-4.5 5.5 -4.5 13.5q0 18 22 49q33 45 98.5 122.5t151.5 173t185 204t198.5 217t192.5 211t166 185.5t119 142t52 80q6 17 42 27q30 9 63 8h13q39 -2 69 -16q25 -12 25 -36q0 -5 -1 -10q-4 -20 -70.5 -94t-171 -179.5t-234.5 -232.5t-263 -256q19 -8 39 -8 q23 0 48 10q48 18 101 55.5t111.5 86.5t116 93t112.5 73.5t104 29.5q13 0 23 -30q6 -18 6 -38q0 -13 -2 -27q-6 -36 -28.5 -67.5t-67.5 -35.5q-51 -4 -110.5 -33t-123 -61.5t-127 -61.5t-121.5 -33q70 -39 80 -90q3 -15 4 -30q0 -37 -18 -75q-25 -54 -71 -108.5t-89 -99.5 t-69.5 -77t-12.5 -40q8 -5 21 -5q17 0 43 8q46 16 106 47.5t129.5 77.5t136 97.5t123 104.5t93.5 100q8 12 18 14.5t17.5 -2t9.5 -12.5t-6 -18q-31 -41 -88.5 -96.5t-127 -113.5t-146.5 -111.5t-147 -89.5q-72 -36 -130 -48q-20 -4 -36 -4q-33 0 -55 16q-31 22 -31 57 q0 7 2 14q8 44 35 96t64 109.5t61 113.5q23 53 22 99q0 51 -48 87q-94 -90 -183 -176t-164 -160t-133.5 -131t-90.5 -92q-27 -29 -42 -29q-6 0 -10.5 5.5z" />
<glyph unicode="l" horiz-adv-x="464" d="M-186 127q8 74 62 169t141 205.5t187.5 224.5t204 222.5t189.5 199.5t143.5 158.5t65.5 98.5q6 17 41 27q29 9 62 8h13q41 -2 71 -16q25 -12 25 -36q0 -5 -1 -10q-4 -25 -61.5 -88t-146.5 -152t-198.5 -196.5t-221 -219.5t-213 -220.5t-173.5 -199.5q-72 -92 -104 -158 q-16 -35 -16 -59q0 -23 14 -36q18 -16 57 -4t90 44t109.5 80t116 101.5t107.5 107.5t87 101q8 12 18.5 14.5t17.5 -2t8 -12.5t-7 -18q-31 -41 -80 -97.5t-109.5 -113.5t-125 -110.5t-125 -90.5t-113.5 -48q-17 -3 -32 -3q-32 0 -56 16q-48 34 -48 95q0 9 1 18z" />
<glyph unicode="m" horiz-adv-x="1370" d="M-356 8q-4 5 -4 12q0 18 22 50q43 61 110.5 143t144.5 171t156 179t144.5 168t110.5 137.5t53 87.5q6 18 41 28q29 9 62 9h13q40 -2 70.5 -16t24.5 -47q-4 -25 -66.5 -91.5t-154.5 -158.5q92 80 176 143.5t152.5 101.5t121.5 45q9 1 17 1q41 0 67 -29q20 -23 30.5 -49.5 t5.5 -58t-25.5 -72.5t-59.5 -92q90 76 177 140t160 104t129 50q14 3 25 3q38 0 60 -25q31 -33 31 -72t-35 -94t-105.5 -132.5t-181.5 -188.5q-61 -61 -135 -128t-133.5 -124.5t-93 -99.5t-15.5 -54q8 -5 22 -6q17 1 41 9q44 14 102.5 46.5t125 78.5t130 97.5t118.5 104.5 t92 100q8 12 18.5 14.5t17.5 -2t9 -12.5t-6 -18q-31 -41 -85 -95.5t-120.5 -110.5t-138.5 -108.5t-141 -88.5q-68 -36 -126 -50q-25 -6 -46 -6q-29 0 -52 12q-43 23 -43 66q1 10 3 20q12 58 60 128.5t117.5 145.5t129.5 138q68 74 132 141.5t112.5 119.5t74 87t17.5 41 q-12 10 -54.5 -9.5t-104 -60t-136 -99t-155.5 -125t-162 -136.5t-152 -133q-57 -53 -114.5 -107.5t-107 -99.5t-85 -78t-48.5 -45q-18 -16 -42 -19q-7 -1 -13 -1q-15 0 -29 5q-18 7 -25 21.5t5 30.5q39 47 89 99.5t106.5 109.5t117 118.5t119.5 125.5q68 74 125 143.5 t96 124.5t56.5 92t9.5 43q-4 4 -13 4q-22 -1 -69 -27q-66 -36 -158 -103.5t-199.5 -156t-211 -176.5t-192.5 -165.5t-140 -124.5l-66 -66t-53 -55q-29 -29 -43 -29q-6 1 -10 6z" />
<glyph unicode="n" horiz-adv-x="915" d="M-355.5 7.5q-4.5 5.5 -4.5 13.5q0 18 22 49q43 61 110.5 143t144.5 171t157 179t145.5 168t109.5 137.5t52 87.5q4 18 40 28q30 9 63 9h13q40 -2 70.5 -16t24.5 -47q-4 -16 -32 -51t-74 -83t-105 -106.5t-127 -122.5q119 100 229.5 187.5t202.5 142.5t162 71q19 4 36 4 q44 0 70 -30q30 -32 30 -70q0 -40 -35 -96q-34 -55 -105 -132.5t-182 -188.5q-61 -61 -135 -128t-133.5 -124.5t-93.5 -99.5t-15 -54q18 -12 62 2.5t102.5 47t125 78.5t130 97.5t119 104.5t91.5 100q8 12 18.5 14.5t17.5 -2t9.5 -12.5t-6.5 -18q-31 -41 -85 -95.5 t-119.5 -110.5t-138 -108.5t-141.5 -88.5t-127 -50q-24 -6 -45 -6q-29 0 -52 12q-43 24 -43 66q0 10 2 20q12 58 60 128.5t118 145.5t131 138q68 74 131.5 141.5t111.5 119.5t74.5 87t18.5 41q-5 5 -15 5q-24 0 -76 -28q-73 -40 -175.5 -113t-221 -166t-230.5 -184 t-202 -168t-135 -116l-53.5 -53.5t-44.5 -46.5q-27 -29 -42 -29q-6 0 -10.5 5.5z" />
<glyph unicode="o" horiz-adv-x="876" d="M-124 86q-4 20 -4 42q0 44 14 98q20 81 68 174.5t115.5 185.5t148.5 173t169 137t177 79q41 11 81 11q47 0 92 -15q91 -31 103 -105q2 -15 3 -32q0 -64 -36 -140q-45 -96 -133 -204.5t-193 -204.5q15 -3 33 -2q24 0 53 4q51 8 105.5 32.5t109 64.5t95.5 95q8 12 18 15 q9 2 17 -2q10 -6 10 -16q0 -7 -7 -15q-41 -53 -101 -99.5t-126 -77.5q-68 -30 -132 -40q-23 -4 -43 -4q-38 0 -69 12q-74 -66 -147.5 -118t-141 -87t-125.5 -47q-25 -5 -45 -5q-28 0 -48 9q-51 23 -61 82zM-70 106q-3 -12 -2 -21q0 -31 25 -42q13 -6 31 -5q21 0 47 7 q49 14 109.5 48t129 85t136.5 113q0 84 43 177t102 170t125.5 126t114.5 49q6 22 6 40q1 13 -3 23q-8 24 -28 33q-14 8 -33 8q-25 0 -59 -14q-60 -24 -132.5 -77.5t-154.5 -127t-157.5 -156.5t-141 -166t-107 -151.5t-51.5 -118.5z" />
<glyph unicode="p" horiz-adv-x="950" d="M-824 -488q-5 5 -5 13q0 18 22 49q33 45 98.5 123t152.5 175t187.5 206.5t200.5 219.5t194.5 213t168 187t121 144t53.5 80q4 18 39 28q29 9 61 9q7 0 15 -1q40 -2 71 -16t25 -45q-4 -16 -45 -64.5t-109 -119.5q92 74 179 130t159 89t127 38q7 1 14 1q45 0 72 -29 q19 -22 19 -55q0 -24 -10 -55q-23 -72 -87.5 -163t-160 -190.5t-206.5 -187.5q23 -10 57 -10q12 0 25 1q52 5 111 29.5t118.5 66.5t106.5 101q18 25 36 13q10 -6 10 -15q0 -7 -7 -16q-43 -55 -108.5 -104.5t-136 -79t-136.5 -37.5q-14 -1 -27 -1q-49 0 -85 23 q-86 -66 -174.5 -119t-171 -83.5t-154.5 -35.5q-11 -1 -21 -1q-59 0 -106 26q-41 23 -45 72q-98 -94 -190.5 -183.5t-172 -166t-140 -137t-93.5 -97.5q-28 -31 -43 -31q-6 0 -9 6zM-125 170q-4 -15 -4 -28q0 -36 31 -52q19 -10 44 -10q26 0 60 12q64 21 142.5 71 t166.5 121.5t172 150.5t159 158t129 145.5t81 112.5q19 33 19 48q0 7 -3 10q-6 6 -17 6q-17 0 -46 -12q-49 -20 -122 -67.5t-163 -115t-187 -145t-194.5 -161.5t-183.5 -162z" />
<glyph unicode="q" horiz-adv-x="1011" d="M-198 -488q-4 5 -4 13q0 18 22 49q29 43 75 101.5t105 129.5h-113q-16 0 -21 7.5t-2 14.5t13 14t27 7h129q86 104 181 217t181 220q-59 -55 -122.5 -107.5t-122 -91.5t-108.5 -62q-46 -22 -81 -22h-6q-90 4 -113 64q-9 25 -9 56q0 42 17 94q31 91 105 199.5t174 212 t220 187.5t243 125q89 30 175 30q33 0 65 -4q116 -16 212 -110q18 -18 -1 -39.5t-52 -39t-67.5 -25t-44.5 5.5q-14 115 -71 144q-28 15 -62 15t-74 -14q-80 -29 -174.5 -103.5t-186.5 -169.5t-173 -197.5t-133 -188.5t-67 -142q-3 -14 -3 -25q0 -30 30 -30q33 0 89.5 34 t125 87t141 119.5t138 130t117 119t77.5 86.5q10 14 14.5 24.5t8.5 18.5q6 16 42 26q33 9 69 9h7q40 -1 69.5 -15t23.5 -47q-4 -23 -57.5 -86.5t-138.5 -153.5t-189.5 -197.5t-208.5 -213.5q84 51 191.5 113.5t210 128t188.5 130t129 119.5q8 12 19 14.5t19 -1.5q9 -6 9 -16 q0 -7 -6 -15q-59 -74 -166 -154t-229.5 -156.5t-247.5 -145t-220 -120.5l-34 -37h114q37 0 31 -21.5t-45 -21.5h-143q-84 -84 -150.5 -153.5t-107.5 -114.5q-28 -31 -43 -31q-6 0 -10 6z" />
<glyph unicode="r" horiz-adv-x="684" d="M-4 446q-9 4 -8 11q0 9 12 22q86 98 162 177t125 151q-45 31 -51 88q-1 12 -1 23q-1 44 17 86q22 52 66 80q23 15 48 14q24 0 52 -13q29 -14 37 -38.5t-1.5 -58.5t-31.5 -75t-55 -84q31 -20 66.5 -42.5t64 -46t48 -48t19.5 -49.5q0 -29 -42 -81t-103.5 -113.5t-131 -126 t-126 -121t-89 -98.5t-20.5 -54q16 -18 59.5 -6t101.5 44t126 80t132.5 102.5t119.5 108.5t92 101q8 12 18.5 14.5t17.5 -1.5q9 -6 9 -16q0 -7 -6 -15q-31 -41 -86 -96.5t-121.5 -113.5t-139.5 -111.5t-141.5 -89.5t-126.5 -48q-20 -4 -37 -4q-34 0 -57 16q-23 15 -23 45 q1 15 7 35q18 58 64.5 130.5t110 152.5t121.5 149.5t97 118.5t39 62q0 12 -11 24t-25.5 23.5t-30 19.5t-27.5 14q-68 -86 -149 -172t-146 -155q-25 -25 -45 -15z" />
<glyph unicode="s" horiz-adv-x="679" d="M-232 161q4 52 30 110.5t69 108.5t98 85t113 41q51 37 106.5 80t105.5 84t91 78.5t63 64.5q-12 38 -12 75q0 22 4 42q10 58 37 98t66 58q19 9 39 9q21 0 43 -10q30 -12 29 -42q0 -28 -18 -65q-20 -38 -53.5 -83t-76.5 -88q28 -77 28 -159q0 -20 -2 -40 q-8 -102 -47 -197.5t-104.5 -177t-146.5 -137.5q-80 -54 -170 -78q-49 -13 -98 -13q-41 0 -83 9q-63 14 -89 54q-23 36 -23 81q1 6 1 12zM-162 104q12 -38 60 -51q9 -3 20 -2q31 -1 74 21q57 30 121.5 85.5t129 129t115 155.5t78.5 163q23 66 22 124q0 13 -1 25 q-29 -29 -67 -63t-81 -69.5t-89 -69.5t-89 -65q18 -19 18 -41q1 -8 -3 -18q-10 -32 -36 -62t-59 -50.5t-51 -20.5q-61 -4 -102 -38q-40 -34 -56 -75q-9 -23 -9 -45q0 -17 5 -33z" />
<glyph unicode="t" horiz-adv-x="466" d="M-187 124q7 71 56 161t130 195.5t176 212t193.5 210t180.5 191.5h-146q-16 0 -21 6t-2 14t13 14.5t27 6.5h168q70 74 115 128t53 83q6 16 40 26q31 9 68 9h7q40 -1 70 -15t24 -47q-4 -20 -45 -69.5t-107 -114.5h154q31 0 31 -15v-6q-6 -20 -46 -20h-180 q-84 -84 -189.5 -187.5t-212 -210t-203.5 -210t-167 -191.5q-70 -89 -100 -153q-14 -31 -14 -54q0 -24 16 -39q16 -16 55 -4t90 44t109.5 80t115 101.5t107.5 107.5t88 101q8 12 18.5 14.5t16.5 -2t8 -12.5t-6 -18q-31 -41 -81 -97.5t-109.5 -113.5t-124 -110.5t-126 -90.5 t-114.5 -48q-17 -3 -32 -3q-32 0 -56 16q-49 35 -49 94q0 8 1 16z" />
<glyph unicode="u" horiz-adv-x="925" d="M-234 141q26 76 93 168t159.5 191.5t179.5 189.5t151.5 164t76.5 115q4 17 40 27q33 10 69 9h7q40 -1 69.5 -15.5t23.5 -47.5q-4 -25 -45 -70t-104.5 -105t-142.5 -130t-158 -141.5t-151.5 -141t-123.5 -130.5q-50 -60 -74 -105q-13 -24 -13 -43q0 -16 9 -27 q8 -10 23 -10q17 1 41 11q48 20 114 67t147 114.5t166 144.5t167.5 154.5t154.5 145.5q55 57 107.5 107.5t92.5 88t65.5 60t31.5 26.5q14 8 42 10.5t55.5 -0.5t48 -12.5t20.5 -21.5q0 -6 -38 -45t-99.5 -98.5t-138 -134t-156.5 -152.5t-153.5 -154t-128 -138t-83 -106.5 t-16.5 -56.5q16 -18 59 -6t101.5 44t126 80t132 102.5t120 108.5t92.5 101q8 12 18 14.5t17.5 -2t9.5 -12.5t-6 -18q-31 -41 -85.5 -96.5t-121 -111.5t-139 -109.5t-141 -89.5t-126.5 -49q-22 -5 -41 -5q-32 0 -55 14q-31 18 -33 54v7q-1 33 17 77q20 48 58 106.5t87 120.5 q-102 -96 -195.5 -177t-171.5 -132q-76 -50 -136 -66q-20 -5 -37 -5q-34 0 -58 21q-30 29 -30 70q-1 24 9 51z" />
<glyph unicode="v" horiz-adv-x="800" d="M-224 116q20 70 77 159.5t139 190.5t159.5 194.5t136 169t70.5 116.5q4 18 40 28q30 9 63 9h12q39 -2 69.5 -16t24.5 -45t-69.5 -102.5t-153.5 -161t-190.5 -188.5t-179.5 -185q-78 -87 -119 -151q-24 -38 -24 -61q0 -16 11 -24q9 -7 25 -6q17 -1 43 7q48 16 110 51.5 t132.5 90t140.5 115.5q-5 12 -5 27q0 28 18 66q26 58 75 127t110.5 140.5t119 132t101.5 103.5t56 53t41 15.5t57 3.5q28 -1 46 -13q11 -7 12 -19q0 -7 -4 -15q-8 -16 -41 -59.5t-81 -99.5t-106.5 -121.5t-118 -129t-113.5 -120t-95 -93.5q21 -11 67 -12q4 0 8 1 q52 1 115 21.5t130 59.5t116 104q18 25 35.5 13.5t3.5 -31.5q-45 -59 -115 -105.5t-143.5 -73t-141.5 -30.5q-9 -1 -17 -1q-56 0 -93 23q-74 -68 -152 -125t-148 -95t-130 -50q-21 -4 -39 -4q-33 0 -56 14q-35 22 -35 65q0 17 6 37z" />
<glyph unicode="w" horiz-adv-x="1202" d="M-232 140q26 75 91 165t155 188.5t175 187.5t148.5 161.5t76.5 113.5q6 18 42 28q30 9 63 9h13q40 -2 69.5 -16t23.5 -47q-6 -31 -74 -99.5t-165 -155.5t-205.5 -184.5t-194.5 -184.5q-86 -86 -134 -156q-30 -44 -29 -73q0 -16 9 -28q8 -9 23 -9q17 0 43 12q48 22 114 74 t145 126t159.5 158t158.5 169t141 158q55 68 94.5 122t49.5 87q4 18 40 28q30 9 63 9h13q40 -2 69.5 -16t23.5 -45t-69.5 -102.5t-154 -161t-190.5 -188.5t-179 -185q-79 -87 -119 -151q-23 -37 -23 -60q0 -17 12 -25q9 -7 25 -7q17 0 42 8q47 16 108.5 51.5t133.5 90 t141 115.5q-5 12 -5 27q-1 28 17 66q26 58 74.5 127t111 140.5t119 132t100.5 103.5t56 53t41 15.5t58 3.5q28 -1 46 -13q11 -7 12 -18q0 -7 -5 -16q-8 -16 -41 -59.5t-81 -99.5t-106.5 -121.5t-118 -129t-113.5 -120t-95 -93.5q23 -11 69 -12q4 0 8 1q52 1 115.5 21.5 t129 59.5t114.5 104q8 12 18.5 14.5t17.5 -2t9 -12.5t-6 -18q-45 -59 -113.5 -105.5t-142.5 -73.5q-75 -26 -143 -30q-9 -1 -17 -1q-56 0 -94 23q-74 -68 -151.5 -125t-148.5 -95t-129 -50q-20 -4 -38 -4q-33 0 -57 14q-36 23 -36 65q1 17 7 39q22 72 82 167 q-80 -80 -152.5 -142.5t-133 -99.5t-107.5 -44q-9 -1 -18 -1q-35 0 -60 22q-30 29 -30 71q0 23 9 49z" />
<glyph unicode="x" horiz-adv-x="868" d="M-310.5 7.5q-4.5 5.5 -4.5 13.5q0 18 22 49q16 23 52 56.5t85.5 73.5t105.5 84t111 85q131 98 289 206q18 74 27.5 152t13.5 137q-41 -49 -92 -107.5t-100 -115.5t-91 -105.5t-69 -74.5q-25 -25 -44.5 -15.5t5.5 33.5q41 47 98.5 111.5t115.5 132.5t108.5 128t76.5 99 q0 2 1 3t1 3q6 18 42 28q30 9 63 9h13q40 -2 69.5 -16t23.5 -47q-2 -10 -11 -36t-23.5 -60.5t-31 -75.5t-32.5 -80q55 37 119.5 81t122 84t99.5 71.5t54 43.5t46 16q14 1 28 1q20 0 42 -3q36 -5 63.5 -15.5t27.5 -22.5q0 -6 -29.5 -28.5t-76.5 -54.5t-107.5 -70t-124.5 -76 q-147 -90 -336 -201q-47 -119 -82 -215q-14 -41 -27.5 -81t-21.5 -74t-11 -56.5t3 -28.5q16 -18 54 -6t89.5 44t109.5 80t115.5 102.5t108.5 108.5t88 101q8 12 18.5 14.5t17.5 -2t9 -12.5t-6 -18q-31 -41 -81 -96.5t-108.5 -112.5t-123 -110.5t-125.5 -89.5t-115 -48 q-19 -4 -35 -4q-31 0 -55 14q-29 16 -33 64q-1 13 -1 27q0 37 8 81q10 60 30.5 126.5t40.5 123.5q-70 -45 -156.5 -102.5t-168.5 -114.5t-148.5 -107.5t-93.5 -80.5q-27 -29 -42 -29q-6 0 -10.5 5.5z" />
<glyph unicode="y" horiz-adv-x="858" d="M-679 -393q3 39 37 76.5t95.5 72.5t139 67t166.5 60.5t182 53.5q72 72 146.5 150.5t150.5 158.5q-78 -70 -148 -123t-128 -85t-103 -38q-8 -1 -16 -1q-34 0 -56 21q-29 27 -29 68q0 8 2 18q7 52 41.5 115.5t92 135t124 144t135 143.5t126 132.5t97.5 111.5t48 81 q4 16 40 27q33 9 69 9h7q40 -1 69.5 -15.5t23.5 -47.5q-4 -25 -45 -70t-104.5 -105t-142.5 -130t-158 -141.5t-151.5 -141t-123.5 -130t-74 -105.5q-13 -24 -13 -43q0 -16 9 -27q8 -9 23 -9t39 10q45 18 108 62t141 108.5t160 137t164 149.5t153 144q102 104 173 175t81 100 q6 18 48 28q30 6 61 6h24q44 -4 75 -18q23 -10 23 -28q0 -7 -3 -15q-6 -16 -57.5 -61t-131.5 -114t-180 -160t-203 -199q-63 -66 -159.5 -165.5t-206.5 -203.5q70 25 160 71t184 108.5t185 139t167 164.5q20 25 36.5 13.5t2.5 -31.5q-84 -104 -187.5 -192.5t-213 -157 t-214 -114.5t-188.5 -65q-109 -102 -220.5 -193t-211.5 -152.5t-180 -80.5q-25 -7 -47 -7q-47 0 -78 30q-36 36 -36 72v6zM-623 -430q18 -22 48 -22q12 0 26 4q49 12 115.5 57t147.5 115.5t171 158.5q-115 -33 -217 -73.5t-176 -83.5t-107 -84q-19 -23 -19 -43q0 -16 11 -29 z" />
<glyph unicode="z" horiz-adv-x="915" d="M-256 15q6 38 40 96.5t95 119.5q35 35 84 69t97 52q37 14 68 15q10 1 18 -1q36 -6 49 -49l669 498q-86 -27 -164 -34q-46 -4 -88 -4q-30 0 -57 2q-66 5 -114 20.5t-72 38.5q-31 -37 -80 -93.5t-98.5 -113t-92.5 -104.5t-61 -66q-12 -12 -23.5 -15.5t-18.5 0t-7 12.5 t12 21q27 33 79 91.5t106.5 122t102.5 118.5t66 80q10 25 41 45t66 34.5t67 18.5q8 1 14 1q20 0 29 -9q41 -43 97 -65q54 -23 116 -28q18 -1 37 -1q45 0 89 8q64 12 122 37q23 10 32 8t9 -9t-7 -17.5t-15 -16.5l-852 -633q-1 -18 -1 -35q0 -105 44 -153q35 -38 90 -39 q26 0 57 9q96 26 231.5 133.5t294.5 299.5q10 14 20.5 15.5t16.5 -4t7.5 -14.5t-5.5 -15q-184 -221 -330 -332t-250 -130q-25 -5 -48 -5q-70 0 -115 46q-59 60 -68 183q-53 -43 -108 -84q-47 -35 -103.5 -77t-103.5 -74q-36 -23 -56 -23q-6 0 -12 2q-17 8 -17 33q0 7 1 15z " />
<glyph unicode="{" horiz-adv-x="792" d="M-74 0q4 55 39 126t84 144.5t104.5 144t97.5 126t62.5 89.5t1.5 34q-25 0 -30.5 7t0.5 15t23.5 15.5t41.5 7.5q33 0 73 39.5t90 99t111.5 128t137.5 128t165.5 99.5t198.5 40q43 0 34 -18.5t-50 -18.5q-23 0 -69 -40t-106.5 -100t-130 -131t-140 -130.5t-135 -99 t-113.5 -37.5q37 -23 32.5 -66t-33 -99.5t-76.5 -122t-98.5 -130t-94.5 -123.5t-68.5 -104.5t-20.5 -73t52 -27.5q33 0 43 -7t4 -15.5t-25.5 -15.5t-42.5 -7q-94 0 -130 34t-32 89z" />
<glyph unicode="|" horiz-adv-x="776" d="M-264 -154.5q-6 7.5 4 19.5q4 6 66.5 72.5t162 171t224 236.5t256 270.5t257 270.5t225 237.5t163 172t69.5 74.5q10 14 25.5 19.5t28 3.5t16.5 -10.5t-6 -22.5q-4 -6 -66.5 -72.5t-161 -171t-223.5 -235.5t-255 -268.5t-256 -268.5t-226 -236.5t-164 -174t-72 -76.5 q-8 -12 -22 -16.5t-26.5 -3.5t-18.5 8.5z" />
<glyph unicode="}" horiz-adv-x="792" d="M-390 -106.5q9 18.5 50 18.5q23 0 69 40t106.5 100.5t130 131t140 130t135 99.5t113.5 38q-37 20 -32.5 64t33 100.5t76.5 121t98.5 129t94.5 125t68.5 105.5t20.5 72.5t-51 27.5q-35 0 -44.5 7t-3 15.5t25.5 15.5t42 7q94 0 130 -33.5t32 -89t-39 -126t-84 -144.5 t-104.5 -144.5t-97.5 -126t-62.5 -89t-1.5 -33.5q25 0 31 -7.5t-0.5 -15.5t-24 -15t-41.5 -7q-31 0 -72 -40t-91 -99.5t-111.5 -128t-137.5 -128t-167 -99.5t-197 -40q-43 0 -34 18.5z" />
<glyph unicode="~" horiz-adv-x="905" d="M66 418q18 27 60 61.5t92 62t102.5 41t93.5 -4.5q33 -14 43 -39t15 -49.5t11 -46t33 -27.5q25 -8 55.5 13.5t59 52t50 60t28.5 40.5q8 8 33.5 9t51 -3t43 -13.5t9.5 -19.5q-14 -18 -56 -56t-96.5 -71t-112 -51.5t-102.5 0.5q-18 8 -28.5 31.5t-17.5 49t-14 47t-22 25.5 q-25 8 -56.5 -9t-60 -42.5t-50 -51.5t-27.5 -34q-8 -10 -34 -11t-51.5 3t-43 13.5t-8.5 19.5z" />
<glyph unicode="&#xa1;" horiz-adv-x="616" d="M-49 86q4 23 63.5 86.5t151.5 148.5t203.5 183t218 194.5t199 181.5t143.5 142q41 43 54 25.5t-19 -62.5q-43 -61 -115 -145t-155 -178.5t-170 -189.5t-159.5 -178t-121 -145.5t-56.5 -89.5q-4 -16 -44 -26t-85 -9t-79.5 15t-28.5 47zM1251 1405q0 41 28 68.5t69 27.5 t68.5 -27.5t27.5 -68.5t-27.5 -68.5t-68.5 -27.5t-69 27.5t-28 68.5z" />
<glyph unicode="&#xa2;" horiz-adv-x="770" d="M-213 -173q-6 7 4 19l146 170q-63 47 -60.5 140.5t55 204t143.5 226t203.5 206t236.5 141.5t243 37l121 141q10 14 25.5 19.5t27.5 3.5t16 -10.5t-6 -22.5q-4 -6 -37 -45t-88 -103q45 -20 42 -61t-35.5 -94.5t-86 -113.5t-109 -122.5t-102.5 -121t-65 -105.5 q-18 -43 -52 -45t-68 16.5t-57.5 45t-19.5 38.5q23 55 84.5 114.5t134 117t145 110.5t115.5 94t45.5 67t-65.5 32q-49 4 -112.5 -28t-133 -87t-142.5 -129t-137.5 -152.5t-117.5 -157.5t-85 -145.5t-39 -115t19 -66.5q41 -27 105.5 -18.5t141.5 41t159 84t156.5 108.5 t135 114.5t97.5 104.5q8 12 18.5 14.5t17.5 -2t9 -12.5t-6 -18q-37 -49 -96.5 -107.5t-133 -116t-153.5 -108.5t-160 -86t-151.5 -50.5t-126.5 1.5l-133 -156q-8 -12 -22.5 -16t-27 -3t-18.5 8z" />
<glyph unicode="&#xa3;" horiz-adv-x="1218" d="M-7 16.5q11 24.5 48 55.5q117 98 230.5 246.5t229 312.5t237.5 324.5t259.5 283.5t292 190.5t336.5 45.5q61 -8 78.5 -35t3.5 -67t-52 -92t-89 -108.5t-108.5 -115t-110 -114.5t-92 -106.5t-56.5 -88.5q-16 -43 -51 -45.5t-67.5 16t-56 45.5t-19.5 41q23 53 93 118.5 t157 132t175.5 130t145.5 116t68.5 86t-56.5 42.5q-82 0 -186.5 -63.5t-221 -166t-239.5 -233.5t-244 -267h193q18 0 22.5 -8t-2 -18t-20.5 -18.5t-33 -8.5h-207l-82 -94h211q18 0 22.5 -8t-1.5 -18.5t-20.5 -18.5t-32.5 -8h-226q-94 -109 -179 -202t-155 -161l385 199 q2 0 7 4q14 8 41.5 9t55.5 -2t48 -11t20 -21q0 -8 -16 -27.5t-38.5 -45t-48.5 -54t-43 -55.5t-22.5 -48.5t11.5 -33.5q18 -16 62 -3t102.5 45t125 79t130 99.5t119 106.5t92.5 101q8 12 18 14.5t17.5 -2t9.5 -13.5t-7 -17q-31 -41 -86 -96.5t-122.5 -111.5t-142.5 -109.5 t-144.5 -90.5t-130 -52t-99.5 3t-54 45t-16 59.5t11 66.5t29 65l-479 -234q-41 -14 -30 10.5z" />
<glyph unicode="&#xa4;" horiz-adv-x="802" d="M88 202q-4 7 6 19q6 8 22.5 25.5t38 40t46 49t47.5 51.5q-37 45 -37 115q0 68 43 123l-156 170q-10 12 -6 19t16.5 9t28 -2t25.5 -16q16 -20 55 -60t78 -83q49 33 108 32q66 0 117 -39l137 150q10 12 25.5 16t28 2t16.5 -9t-6 -19q-6 -8 -24.5 -27.5t-41 -44.5t-48 -53.5 t-50.5 -53.5q39 -51 39 -114t-35 -111q25 -25 49.5 -52.5t46 -51t38 -41t22.5 -25.5q10 -12 6 -19t-16.5 -9.5t-27.5 2t-26 16.5l-129 141q-53 -43 -121 -43t-118 39l-127 -137q-10 -12 -25.5 -16.5t-28 -2t-16.5 9.5zM262 502q0 -59 41 -100.5t100 -41.5t100.5 41t41.5 101 q0 59 -41 100t-101 41q-59 0 -100 -41t-41 -100z" />
<glyph unicode="&#xa5;" horiz-adv-x="1097" d="M2 248.5q4 66.5 32.5 135.5t73 125t98.5 93t111 43q55 6 83 -17.5t37 -53t4 -56t-17 -29.5q-45 -4 -97.5 -28.5t-99.5 -61.5t-85 -83t-54 -91t-7 -87t54 -72q51 -35 107.5 -25t118 53t126 115t131.5 162h-182q-16 0 -18 8t4 18.5t19.5 18.5t29.5 8h186l56 76h-189 q-16 0 -18 8t4 18.5t19.5 18.5t29.5 8h191q86 123 172 252t172 250q-106 -106 -199.5 -194.5t-170.5 -143.5t-136.5 -71.5t-98.5 22.5q-47 43 -39.5 105.5t46.5 133t98 145t116.5 144.5t103.5 129t58 100q4 16 40 26.5t75 9.5t69.5 -15t24.5 -47q-6 -31 -56 -86.5 t-119.5 -124t-146.5 -142t-135.5 -141t-87 -124t-1.5 -87.5q16 -20 59 -2.5t102.5 59.5t130 103t144 131t146.5 140.5t134 131.5q53 61 104.5 111.5t102.5 85.5q8 6 35 10t59.5 6.5t65.5 1t54.5 -6.5t25.5 -16t-23 -28q-94 -61 -191.5 -165.5t-196.5 -229.5t-200.5 -262 t-202 -264t-200.5 -235.5t-197.5 -178.5t-190.5 -89.5t-181 32.5q-66 37 -91.5 95t-21.5 124.5z" />
<glyph unicode="&#xa6;" horiz-adv-x="530" d="M-354 -154.5q-4 7.5 6 19.5l592 674h73l-602 -682q-10 -12 -25.5 -16.5t-27.5 -3.5t-16 8.5zM481 807l510 579q12 14 27.5 19.5t28 3.5t15.5 -10.5t-9 -22.5q-6 -6 -48 -54t-110 -125t-156 -178t-186 -212h-72z" />
<glyph unicode="&#xa7;" horiz-adv-x="1083" d="M-13 -19.5q5 54.5 34.5 115t75.5 109.5t104.5 81.5t117.5 32.5q49 -23 48.5 -58.5t-27.5 -70t-63.5 -59.5t-57.5 -25q-61 -4 -102 -37.5t-56.5 -74.5t-3 -79t59.5 -50q37 -10 81 12.5t88 68.5t84 108.5t68.5 134t43 146.5t7.5 142l-12 60q-16 51 -10 101t25.5 90t50 64.5 t67.5 24.5q14 92 53 171t100.5 131t142.5 72.5t177 -1.5q66 -14 91.5 -57t20.5 -97.5t-35 -115t-76 -109.5t-104 -82t-118 -33q-49 23 -48 59t27.5 70.5t63.5 59t58 24.5q61 4 102 38t56.5 75t3 79t-59.5 50q-37 10 -81 -12.5t-88 -68.5t-84 -108.5t-68.5 -134t-44 -146.5 t-7.5 -142l13 -60q14 -53 9 -103t-25.5 -90t-51.5 -63.5t-68 -23.5q-12 -92 -52 -171t-101.5 -131.5t-142 -73t-175.5 2.5q-66 14 -91 57t-20 97.5zM527.5 585.5q-2.5 -26.5 7.5 -55.5q23 -59 31.5 -117.5t11.5 -115.5q18 18 34.5 38.5t27.5 43t14 49.5t-7 57 q-43 117 -43 234q-18 -18 -34.5 -39t-28 -44.5t-14 -50z" />
<glyph unicode="&#xa8;" horiz-adv-x="712" d="M96 1253q0 47 33 80t80 33q45 0 77.5 -33t32.5 -80q0 -45 -32.5 -77.5t-77.5 -32.5q-47 0 -80 32.5t-33 77.5zM385 1253q0 47 33 80t80 33t78.5 -33t31.5 -80q0 -45 -31.5 -77.5t-78.5 -32.5t-80 32.5t-33 77.5z" />
<glyph unicode="&#xa9;" horiz-adv-x="1705" d="M72.5 156.5q-25.5 128.5 4 266.5t110.5 277t210 256t275.5 183.5t287 82t264.5 -23.5t210 -133q86 -96 111.5 -223t-4.5 -265.5t-110.5 -277.5t-209.5 -256t-275.5 -183.5t-287 -82t-264.5 23.5t-210 133t-111.5 222.5zM114.5 173q22.5 -120 102.5 -208t196.5 -123 t249 -19.5t270.5 79t261 174.5t199.5 240.5t104.5 260t5.5 250t-102.5 207.5t-197 123t-249 19.5t-270 -78.5t-261 -174t-200 -241t-104.5 -260t-5 -250zM313 135q-4 92 45.5 205t140.5 231.5t205.5 213t241.5 148.5t248 38q82 -10 96.5 -47t-11.5 -90.5t-81 -118 t-114.5 -132t-112.5 -132t-74 -115.5q-18 -43 -52 -45t-68 16.5t-57.5 45t-19.5 38.5q23 55 84.5 114.5t134 117t145.5 110.5t116 94t45 67t-66 32q-49 4 -112.5 -28t-133 -87t-142.5 -129t-137.5 -152.5t-117.5 -157.5t-85 -145.5t-39 -115t20 -66.5q41 -27 105.5 -18.5 t141 41t158.5 84t157 108.5t135 114.5t97 104.5q8 12 18.5 14.5t17.5 -2t9 -12.5t-6 -18q-39 -51 -102.5 -112.5t-140 -121t-162.5 -112t-167 -86t-155 -43t-125 17.5q-76 39 -80 131z" />
<glyph unicode="&#xaa;" horiz-adv-x="962" d="M215.5 503.5q-22.5 57.5 7 147.5t103 200t175 213t221.5 189t241.5 128t239.5 28t212 -109q18 -18 0 -39.5t-52 -39t-67.5 -24.5t-46.5 5q-14 115 -70.5 144.5t-136 1t-174 -103.5t-186.5 -170t-173 -197.5t-132 -188.5t-65.5 -141t26.5 -55q43 0 98.5 33.5t125 95 t156.5 147.5t191 188q66 72 115 119t59 53q14 8 42 9.5t55.5 -1.5t48 -11.5t20.5 -20.5q0 -8 -45 -52t-110.5 -106.5t-139 -134.5t-133 -136.5t-93.5 -114.5t-17 -66q16 -18 59 -6t101.5 43.5t126 79.5t132 102.5t120 109t91.5 101.5q8 12 18.5 14t17.5 -2t9.5 -12.5 t-6.5 -18.5q-31 -41 -85 -96t-120.5 -112.5t-139 -111t-141.5 -89t-127 -48t-95 10.5q-47 29 -32 93t62 142q-111 -111 -206 -179.5t-168 -68.5q-90 0 -112.5 57.5z" />
</font>
</defs>
</svg>
