<?xml version="1.0" encoding="utf-8"?>
<!-- Generator: Adobe Illustrator 17.0.0, SVG Export Plug-In . SVG Version: 6.00 Build 0)  -->
<!DOCTYPE svg PUBLIC "-//W3C//DTD SVG 1.1//EN" "http://www.w3.org/Graphics/SVG/1.1/DTD/svg11.dtd">
<svg version="1.1" id="Layer_1" xmlns="http://www.w3.org/2000/svg" xmlns:xlink="http://www.w3.org/1999/xlink" x="0px" y="0px"
	 width="350.654px" height="160.556px" viewBox="0 0 350.654 160.556" enable-background="new 0 0 350.654 160.556"
	 xml:space="preserve">
<path d="M349.166,143.239c-3.161,0-13.093-7.689-13.414-8.115c-0.084,0.078-15.432-15.422-35.196-14.613
	c-4.922,0.201-9.944,0.814-14.685,2.445c-0.058-0.176-3.346,1.277-5.226,1.93c-0.395,0.137-0.789,0.234-1.182,0.311
	c0.686,2.092,1.585,4.084,2.663,5.969c0.88-0.607,1.915-0.953,2.952-1.393c4.491-1.904,10.551-3.014,14.177-3.014
	c5.111,0,11.435,1.27,16.269,2.9c4.647,1.629,7.06,3.709,10.871,6.607l3.625,2.717c-0.027,0.02,10.717,11.053,19.796,10.412h0.838
	v-6.246L349.166,143.239z"/>
<path d="M31.518,158.542c-3.608,0-7.253-0.508-10.937-1.529c-3.686-1.016-7.055-2.939-10.115-5.762
	c-3.059-2.824-5.566-6.783-7.525-11.881C0.976,134.276,0,127.727,0,119.731V0h7.293v119.731c0,7.055,0.781,12.664,2.352,16.818
	c1.566,4.156,3.529,7.332,5.881,9.525c2.354,2.199,4.937,3.609,7.763,4.234c2.823,0.629,5.563,0.941,8.23,0.941
	c2.509,0,5.179-0.312,7.999-0.941c2.821-0.625,5.41-2.035,7.766-4.234c2.35-2.193,4.311-5.369,5.881-9.525
	c1.561-4.154,2.35-9.764,2.35-16.818V0h7.292v119.731c0,7.996-0.982,14.545-2.938,19.639c-1.965,5.098-4.434,9.057-7.412,11.881
	c-2.979,2.822-6.353,4.746-10.116,5.762C38.576,158.034,34.97,158.542,31.518,158.542z"/>
<path d="M158.104,0.235h7.527v158.54h-6.352L104.708,23.052v135.724h-7.527V0.235h6.115l54.809,135.726L158.104,0.235L158.104,0.235
	z"/>
<path d="M268.171,0.236l-39.073,80.212v78.33h-6.479v-78.33l-39.28-80.212h7.521l34.894,71.507L260.65,0.236
	C260.65,0.236,268.171,0.236,268.171,0.236z"/>
<path d="M328.864,152.897c-5.333,3.922-11.919,5.881-19.759,5.881c-11.291,0-19.76-3.84-25.406-11.527
	c-5.644-7.211-8.465-17.641-8.465-31.283V41.4c0-13.486,2.821-23.678,8.465-30.58c5.647-7.057,14.115-10.584,25.406-10.584
	c11.134,0,19.525,3.527,25.167,10.584c5.647,6.902,8.47,17.094,8.47,30.58v74.567c0,13.486-2.744,23.914-8.23,31.283l-0.471,0.473
	L328.864,152.897z M309.105,151.485c5.957,0,10.977-1.412,15.053-4.234l5.176-5.408c3.918-5.801,5.881-14.426,5.881-25.875V41.4
	c0-11.916-2.197-20.619-6.584-26.111c-4.234-5.174-10.748-7.762-19.525-7.762c-8.782,0-15.291,2.588-19.525,7.762
	c-4.549,5.805-6.818,14.507-6.818,26.111v74.567c0,11.918,2.27,20.857,6.818,26.814
	C293.814,148.586,300.323,151.485,309.105,151.485z"/>
</svg>
